{"glyphs":{"0":{"ha":475,"x_min":49,"x_max":442,"o":"m 203 -392 l 203 -392 q 242 -381 221 -392 q 288 -339 264 -369 q 419 206 392 -185 q 340 844 442 618 q 264 953 308 914 q 299 961 286 968 q 331 976 321 956 q 315 1010 336 1000 q 274 1013 297 1017 q 222 983 250 1010 q 221 982 221 983 q 147 1001 186 1000 q 119 976 124 1000 q 144 950 121 953 q 189 940 168 949 q 85 583 121 817 q 50 108 49 349 q 94 -274 51 -132 q 192 -390 129 -381 q 203 -392 197 -392 m 232 911 l 232 911 q 294 822 267 879 q 372 432 364 664 q 344 -10 379 200 q 246 -308 308 -219 q 200 -339 228 -337 q 143 -258 168 -333 q 114 399 79 -35 q 232 911 151 764 z "},"1":{"ha":256,"x_min":44,"x_max":206,"o":"m 79 -436 l 79 -436 q 81 -436 81 -436 q 104 -408 104 -432 q 110 -58 96 -276 q 145 389 124 161 q 185 775 167 617 q 206 944 204 933 q 183 972 206 968 q 154 950 160 974 q 133 768 151 929 q 92 381 114 607 q 58 -62 71 154 q 53 -412 44 -279 q 79 -436 58 -436 z "},"2":{"ha":717,"x_min":46,"x_max":699,"o":"m 76 -403 l 76 -403 q 78 -403 76 -403 q 231 -382 156 -397 q 406 -362 321 -365 q 572 -396 492 -358 q 607 -383 594 -404 q 594 -349 615 -361 q 409 -310 503 -307 q 222 -332 315 -314 q 125 -347 174 -340 q 400 132 218 -199 q 663 853 699 690 q 622 913 653 893 q 515 940 569 944 q 406 906 460 935 q 304 835 351 876 q 220 753 257 794 q 161 683 183 713 q 135 650 139 654 q 142 614 124 629 q 178 621 163 603 q 197 648 178 622 q 251 711 217 674 q 328 788 285 749 q 458 873 386 842 q 596 868 529 904 q 613 840 608 861 q 525 504 628 736 q 284 26 422 272 q 54 -364 146 -219 q 54 -390 46 -376 q 76 -403 63 -403 z "},"3":{"ha":697,"x_min":42,"x_max":714,"o":"m 214 -424 l 214 -424 q 294 -408 253 -424 q 472 -249 396 -371 q 538 69 547 -126 q 467 214 531 164 q 326 257 394 260 q 504 510 399 347 q 615 938 714 840 q 511 981 571 981 q 388 955 451 981 q 269 894 325 929 q 178 830 214 858 q 138 796 143 801 q 136 760 122 779 q 172 758 153 744 q 293 848 215 797 q 450 922 371 899 q 579 901 529 944 q 595 857 592 892 q 571 746 599 822 q 461 538 543 669 q 365 394 413 460 q 285 287 317 328 q 250 244 253 246 q 249 215 240 231 q 275 203 258 201 q 303 206 276 204 q 367 202 331 208 q 436 172 404 196 q 486 65 481 138 q 429 -218 497 -96 q 276 -361 369 -324 q 94 -310 165 -399 q 58 -304 79 -292 q 54 -340 42 -321 q 214 -424 119 -424 z "},"4":{"ha":601,"x_min":46,"x_max":551,"o":"m 526 831 l 526 831 q 551 804 550 828 l 501 -421 q 475 -446 496 -446 q 475 -446 475 -446 q 450 -418 451 -442 l 493 654 q 421 490 463 579 q 167 131 272 174 q 131 122 147 122 q 97 129 114 122 q 60 173 75 136 q 52 300 46 210 q 100 563 58 390 q 168 813 135 706 q 204 928 201 921 q 236 944 214 950 q 253 913 258 935 q 217 799 250 906 q 149 550 185 692 q 104 299 110 379 q 108 197 99 219 q 119 176 117 174 q 147 178 126 171 q 278 328 207 208 q 408 585 349 447 q 500 808 468 722 q 500 811 500 810 q 525 831 507 831 q 526 831 526 831 z "},"5":{"ha":594,"x_min":49,"x_max":546,"o":"m 544 918 l 544 918 q 524 889 546 894 l 188 831 l 206 478 q 329 522 256 507 q 458 485 403 536 q 520 299 514 418 q 494 49 526 181 q 400 -185 461 -82 q 165 -358 297 -356 q 119 -353 142 -358 q 100 -321 97 -344 q 132 -303 108 -299 q 269 -265 211 -317 q 357 -158 326 -212 q 465 183 446 0 q 419 450 485 367 q 359 474 396 475 q 285 458 322 472 q 224 428 249 443 q 197 413 199 414 q 171 411 185 406 q 157 433 158 418 l 136 821 l 81 811 q 75 811 78 811 q 50 832 57 811 q 71 863 49 856 l 133 874 l 132 903 q 156 931 132 926 q 183 906 179 929 l 185 882 l 515 939 q 544 918 539 942 z "},"6":{"ha":510,"x_min":38,"x_max":479,"o":"m 208 -403 l 208 -403 q 308 -357 261 -403 q 441 -46 403 -250 q 443 300 479 158 q 364 396 419 383 q 243 370 296 408 q 153 272 190 332 q 274 663 201 485 q 335 792 308 747 q 378 853 363 838 q 400 868 394 868 q 400 868 400 868 q 433 883 422 863 q 418 917 439 907 q 353 900 396 931 q 231 694 290 840 q 132 399 171 547 q 64 78 85 228 q 64 71 64 75 q 61 -246 38 -126 q 171 -397 88 -372 q 208 -403 189 -403 m 115 67 l 115 67 q 150 158 119 86 q 233 293 181 231 q 354 344 285 356 q 393 286 378 339 q 390 -34 425 158 q 272 -319 356 -226 q 185 -347 231 -361 q 110 -221 128 -329 q 115 67 92 -112 z "},"7":{"ha":674,"x_min":47,"x_max":632,"o":"m 549 463 l 549 463 q 564 429 569 453 q 532 414 554 410 q 475 406 519 414 q 365 382 431 397 q 202 16 272 211 q 125 -372 132 -179 q 99 -399 121 -399 q 99 -399 99 -399 q 74 -372 75 -396 q 144 8 79 -182 q 300 367 210 197 q 82 310 194 340 q 76 310 79 310 q 51 328 58 310 q 69 360 47 351 q 138 378 74 361 q 289 417 203 394 q 331 426 311 422 q 476 681 410 571 q 572 856 551 803 q 543 863 567 858 q 469 870 519 868 q 329 871 418 872 q 176 863 242 868 q 107 858 111 858 q 79 882 83 858 q 103 910 79 906 q 176 915 107 910 q 339 922 246 919 q 558 912 501 925 q 619 879 614 899 q 610 812 632 860 q 521 654 588 764 q 399 442 465 561 q 517 465 490 463 q 549 463 544 467 z "},"8":{"ha":682,"x_min":24,"x_max":678,"o":"m 206 -415 l 206 -415 q 319 -387 263 -415 q 413 -301 375 -358 q 428 -101 463 -215 q 329 139 394 13 q 324 151 326 146 q 324 153 324 151 q 565 565 467 369 q 600 867 678 794 q 460 890 553 911 q 287 799 372 868 q 165 633 201 729 q 169 397 133 521 q 264 156 206 274 q 60 -214 108 -81 q 128 -399 24 -346 q 206 -415 164 -415 m 290 100 l 290 100 q 377 -110 347 -12 q 369 -274 407 -207 q 263 -354 328 -335 q 149 -351 199 -374 q 110 -229 82 -319 q 290 100 153 -110 m 515 846 l 515 846 q 564 829 547 846 l 564 829 q 579 760 583 815 q 519 588 575 706 q 297 207 429 410 q 216 420 244 315 q 215 618 188 525 q 320 760 244 700 q 472 840 396 821 q 515 846 496 846 z "},"9":{"ha":501,"x_min":31,"x_max":499,"o":"m 190 -431 l 190 -431 q 215 -412 207 -431 q 240 -328 217 -408 q 296 -117 263 -247 q 363 163 329 13 q 425 906 499 774 q 375 947 406 939 q 301 944 346 957 q 204 871 257 932 q 74 595 117 758 q 65 347 31 432 q 125 287 93 297 q 179 282 157 276 q 277 339 228 293 q 365 443 326 385 q 267 -22 325 211 q 167 -399 208 -256 q 183 -431 161 -421 q 190 -431 188 -431 m 343 900 l 343 900 q 361 897 353 900 q 379 881 367 899 q 389 594 415 803 q 388 590 388 592 q 310 453 385 560 q 169 332 229 346 q 142 335 157 329 q 111 371 126 342 q 124 583 86 432 q 243 838 168 743 q 288 881 263 861 q 343 900 314 900 z "}," ":{"ha":507,"x_min":0,"x_max":0,"o":""},"!":{"ha":310,"x_min":79,"x_max":224,"o":"m 200 1179 l 200 1179 q 224 1151 224 1175 l 149 203 q 124 179 143 179 q 121 179 122 179 q 97 207 99 183 l 172 1156 q 200 1179 176 1179 m 107 22 l 107 22 q 135 -6 131 22 l 135 -6 q 107 -33 135 -28 q 79 -6 83 -33 l 79 -6 q 107 22 79 18 z "},"\"":{"ha":281,"x_min":50,"x_max":231,"o":"m 97 1111 l 97 1111 q 119 1082 119 1106 l 101 890 q 76 868 96 868 q 74 868 75 868 q 50 896 50 872 l 68 1088 q 97 1111 74 1111 m 207 1111 l 207 1111 q 231 1082 231 1106 l 213 890 q 186 868 206 868 q 183 868 185 868 q 161 896 161 872 l 179 1088 q 207 1111 183 1111 z "},"#":{"ha":858,"x_min":49,"x_max":757,"o":"m 738 363 l 738 363 q 747 328 757 349 q 711 318 733 308 q 606 333 682 333 l 542 126 q 673 117 635 128 q 719 89 711 106 q 714 53 732 69 q 679 58 694 42 q 669 65 679 60 q 625 73 658 69 q 525 75 592 76 l 407 -306 q 382 -324 399 -324 q 375 -322 379 -324 q 358 -290 353 -314 l 471 71 q 369 61 426 68 q 285 51 326 57 l 226 -125 q 201 -143 218 -143 q 193 -142 197 -143 q 176 -108 172 -132 l 228 43 q 123 26 164 33 q 81 18 82 19 q 75 18 78 18 q 50 39 57 18 q 71 69 49 63 q 122 78 74 69 q 246 97 171 86 l 314 304 q 182 281 242 292 q 176 279 179 279 q 151 300 158 279 q 171 331 149 324 q 333 358 204 338 l 418 615 q 451 632 428 636 q 467 599 472 622 l 390 367 q 568 383 481 379 l 675 725 q 707 742 683 747 q 724 710 729 733 l 622 383 q 738 363 699 383 m 488 124 l 488 124 l 551 331 q 372 313 467 325 l 303 106 q 364 113 333 110 q 488 124 435 121 z "},"$":{"ha":567,"x_min":43,"x_max":460,"o":"m 410 508 l 410 508 q 339 563 381 535 q 314 260 326 414 q 332 235 324 247 q 414 101 382 160 q 442 1 446 43 q 378 -94 432 -65 q 297 -111 342 -111 q 290 -111 293 -111 q 285 -232 286 -185 q 288 -292 285 -279 q 272 -324 293 -314 q 263 -326 268 -326 q 239 -311 247 -326 q 234 -274 236 -310 q 239 -106 232 -237 q 125 -73 175 -93 q 63 -46 75 -53 q 51 -11 43 -33 q 86 0 64 8 q 242 -54 140 -29 q 261 236 247 54 q 263 247 261 242 q 156 438 196 343 q 150 610 117 533 q 213 657 171 650 q 293 644 250 663 q 301 733 301 728 q 329 756 306 756 q 353 728 353 751 q 343 621 349 676 q 443 547 425 567 q 446 511 460 529 q 410 508 428 494 m 390 8 l 390 8 q 367 78 392 33 q 308 176 343 124 q 293 -60 299 46 q 354 -49 329 -61 q 390 8 385 -33 m 268 332 l 268 332 q 289 592 281 481 q 221 607 250 611 q 196 588 204 604 q 199 472 175 539 q 268 332 222 404 z "},"%":{"ha":774,"x_min":78,"x_max":658,"o":"m 643 663 l 643 663 q 644 628 658 646 q 619 593 640 622 q 565 515 599 564 q 491 403 532 465 q 406 268 450 340 q 144 -246 179 -96 q 119 -265 138 -265 q 114 -265 117 -265 q 94 -235 92 -258 q 200 18 119 -131 q 365 301 281 167 q 433 409 400 357 q 497 506 467 461 q 550 585 526 550 q 589 640 574 619 q 607 663 604 660 q 643 663 625 678 m 183 297 l 183 297 q 90 349 114 297 q 113 452 78 397 q 182 540 147 507 q 169 543 171 543 q 147 572 146 549 q 178 594 154 596 q 283 550 225 588 q 346 433 340 513 q 307 344 346 378 q 218 301 268 310 q 183 297 200 297 m 235 521 l 235 521 q 165 439 197 485 q 139 365 133 393 q 208 351 150 344 q 267 377 240 357 q 294 433 294 397 q 235 521 288 497 m 553 160 l 553 160 q 607 68 601 132 q 539 -25 606 1 q 489 -33 515 -33 q 414 -3 444 -33 q 397 38 401 10 q 417 106 392 65 q 454 149 431 126 q 450 168 449 157 q 479 189 456 192 q 499 185 489 188 q 528 203 519 201 q 543 203 536 206 q 560 171 564 194 q 553 160 558 165 m 521 24 l 521 24 q 556 67 550 31 q 507 128 547 114 q 447 51 461 90 q 454 29 446 39 q 521 24 471 11 z "},"&":{"ha":660,"x_min":-18,"x_max":568,"o":"m 486 -199 l 486 -199 q 497 -196 492 -199 q 510 -161 517 -183 q 481 -99 507 -158 q 417 56 456 -39 q 567 313 543 210 q 546 342 568 336 q 515 321 522 343 q 396 111 499 244 q 303 406 343 251 q 458 670 401 549 q 475 869 515 792 q 360 922 433 936 q 274 860 315 914 q 219 694 233 806 q 247 414 208 572 q 222 375 235 394 q 47 90 111 217 q 25 -111 -18 -37 q 144 -156 67 -172 q 379 13 257 -124 q 435 -124 413 -71 q 463 -183 458 -176 q 486 -199 471 -199 m 265 347 l 265 347 q 358 65 307 197 q 133 -106 226 -82 q 67 -83 89 -117 q 106 94 39 -28 q 264 347 174 215 q 265 347 265 347 m 383 874 l 383 874 q 431 843 411 874 q 410 690 457 790 q 288 475 364 590 q 269 689 261 596 q 310 824 281 781 q 371 872 340 867 q 383 874 376 874 z "},"'":{"ha":168,"x_min":49,"x_max":118,"o":"m 75 868 l 75 868 q 100 890 94 868 l 118 1082 q 96 1111 118 1106 q 67 1088 72 1111 l 49 896 q 72 868 49 872 q 75 868 74 868 z "},"(":{"ha":467,"x_min":-53,"x_max":424,"o":"m 186 -515 l 186 -515 q 206 -507 197 -515 q 204 -469 219 -487 q 188 369 8 -283 q 288 680 235 538 q 377 910 340 822 q 417 1000 414 997 q 404 1035 424 1024 q 369 1022 381 1043 q 329 930 367 1018 q 239 698 292 842 q 139 385 186 554 q 169 -508 -53 -303 q 186 -515 178 -515 z "},")":{"ha":333,"x_min":43,"x_max":333,"o":"m 76 -508 l 76 -508 q 89 -504 82 -508 q 296 -150 247 -407 q 301 343 333 51 q 253 651 282 510 q 200 881 224 793 q 175 972 176 968 q 143 990 167 994 q 126 958 121 981 q 151 866 128 953 q 202 640 174 779 q 249 338 231 501 q 263 16 268 175 q 210 -269 257 -143 q 63 -460 164 -396 q 54 -496 43 -474 q 76 -508 63 -508 z "},"*":{"ha":296,"x_min":44,"x_max":251,"o":"m 231 786 l 231 786 q 239 750 250 771 q 217 738 231 738 q 204 742 210 738 l 172 761 l 171 725 q 146 700 167 700 q 144 700 144 700 q 119 726 121 703 l 121 763 l 88 746 q 76 743 82 743 q 53 756 63 743 q 64 790 44 778 l 96 808 l 65 828 q 57 864 46 842 q 92 872 71 882 l 124 853 l 125 889 q 150 914 129 914 q 151 914 150 914 q 176 888 175 911 l 175 850 l 207 868 q 243 858 229 878 q 232 822 251 836 l 199 806 l 231 786 z "},"+":{"ha":624,"x_min":107,"x_max":528,"o":"m 508 369 l 508 369 q 521 335 528 357 q 489 321 510 315 q 430 323 476 324 q 317 319 383 322 l 307 178 q 281 154 301 154 q 279 154 281 154 q 256 182 256 158 l 265 318 q 133 313 200 315 q 133 313 133 313 q 107 336 113 313 q 132 364 108 360 q 268 369 146 364 l 278 500 q 306 525 282 524 q 329 497 329 521 l 321 372 q 474 374 442 375 q 508 369 507 372 z "},",":{"ha":342,"x_min":13,"x_max":151,"o":"m 46 -199 l 46 -199 q 60 -193 53 -199 q 124 -89 101 -157 q 149 -1 146 -21 q 129 29 151 22 q 99 8 106 32 q 70 -84 89 -35 q 31 -151 51 -133 q 25 -187 13 -168 q 46 -199 33 -199 z "},"-":{"ha":536,"x_min":108,"x_max":429,"o":"m 135 264 l 135 264 q 135 264 135 264 l 404 275 q 429 301 428 278 q 403 326 424 326 q 403 326 403 326 l 133 315 q 108 289 110 313 q 135 264 114 264 z "},".":{"ha":300,"x_min":64,"x_max":138,"o":"m 138 -28 l 138 -28 q 100 8 138 3 l 100 8 q 64 -28 71 8 l 64 -28 q 100 -64 64 -58 q 138 -28 138 -58 z "},"/":{"ha":376,"x_min":-112,"x_max":429,"o":"m -81 -447 l -81 -447 q -58 -433 -67 -447 q 88 -49 -24 -358 q 303 559 199 260 q 424 903 407 858 q 407 936 429 926 q 375 921 385 942 q 261 594 365 893 q 44 -20 157 294 q -104 -410 -69 -335 q -93 -444 -112 -432 q -81 -447 -87 -447 z "},":":{"ha":282,"x_min":100,"x_max":174,"o":"m 133 119 l 133 119 q 167 86 161 119 q 167 86 167 86 q 133 53 167 58 q 100 86 106 53 l 100 86 q 133 119 100 114 m 140 367 l 140 367 q 174 332 174 360 q 140 299 174 304 q 106 332 111 299 l 106 332 q 140 367 106 360 z "},";":{"ha":351,"x_min":86,"x_max":235,"o":"m 203 136 l 203 136 q 222 106 225 129 q 197 19 219 88 q 133 -86 175 -49 q 119 -90 126 -90 q 99 -81 107 -90 q 104 -44 86 -60 q 144 25 126 -25 q 172 117 163 75 q 203 136 179 139 m 204 336 l 204 336 q 174 367 179 336 q 174 367 174 367 q 204 397 174 392 q 235 367 229 397 q 204 336 235 342 z "},"<":{"ha":604,"x_min":82,"x_max":513,"o":"m 431 53 l 431 53 q 453 67 443 53 q 443 101 463 88 q 143 286 229 225 q 494 543 233 374 q 501 578 513 557 q 467 586 488 597 q 408 548 463 583 q 285 463 354 513 q 114 331 146 365 q 86 288 82 296 q 93 261 85 272 q 248 156 128 228 q 417 57 368 85 q 431 53 424 53 z "},"=":{"ha":675,"x_min":93,"x_max":574,"o":"m 125 374 l 125 374 q 99 397 101 374 q 122 425 99 421 q 178 427 125 425 q 300 432 231 429 q 438 431 393 433 q 497 425 482 429 q 515 417 511 421 q 518 381 532 400 q 499 371 510 371 q 485 375 492 371 q 125 374 400 389 m 557 226 l 557 226 q 561 190 574 210 q 542 181 553 181 q 528 183 533 181 q 119 193 436 200 q 93 218 96 194 q 118 244 94 242 q 181 245 122 244 q 318 246 240 246 q 473 242 424 246 q 538 235 522 239 q 557 226 553 231 z "},">":{"ha":501,"x_min":47,"x_max":403,"o":"m 78 92 l 78 92 q 85 92 81 92 q 133 109 89 93 q 236 153 178 125 q 400 313 399 232 q 378 367 403 328 q 269 482 354 406 q 129 592 163 574 q 94 581 107 601 q 106 546 86 560 q 129 530 110 544 q 177 492 149 515 q 238 442 206 469 q 315 365 292 393 q 344 326 339 338 q 349 314 349 314 q 251 219 340 268 q 69 142 163 171 q 53 108 47 132 q 78 92 61 92 m 106 546 l 106 546 l 106 546 l 106 546 z "},"?":{"ha":399,"x_min":46,"x_max":372,"o":"m 310 1107 l 310 1107 q 335 878 372 1050 q 211 460 299 706 q 133 200 144 276 q 108 176 128 176 q 107 176 107 176 q 82 203 83 179 q 163 476 92 282 q 276 849 231 667 q 297 1013 303 967 q 278 1067 292 1060 q 231 1078 244 1088 q 148 988 183 1058 q 100 876 113 918 q 68 860 92 854 q 51 892 46 868 q 75 956 54 906 q 131 1058 96 1006 q 215 1128 167 1110 q 310 1107 251 1144 m 94 43 l 94 43 q 122 15 118 43 l 122 15 q 94 -12 122 -8 q 67 15 72 -12 l 67 15 q 94 43 67 38 z "},"@":{"ha":918,"x_min":97,"x_max":814,"o":"m 433 -275 l 433 -275 q 438 -275 436 -275 q 463 -249 461 -272 q 435 -224 458 -225 q 415 -222 435 -224 q 365 -215 396 -221 q 300 -192 335 -208 q 235 -143 265 -175 q 160 111 150 -57 q 297 486 176 315 q 564 685 418 657 q 704 611 654 693 q 758 317 769 490 q 692 46 747 143 q 643 4 667 4 q 626 14 633 6 q 602 172 597 53 q 624 442 607 290 q 603 469 624 464 q 574 450 581 472 q 563 411 572 449 q 504 434 539 429 q 428 413 469 439 q 317 243 347 351 q 301 56 286 135 q 331 -6 313 11 q 364 -24 350 -22 q 549 206 453 -44 q 553 218 551 213 q 586 -19 540 39 q 640 -47 608 -44 q 684 -35 658 -49 q 736 19 710 -22 q 810 317 799 129 q 803 469 814 378 q 749 638 793 560 q 560 736 681 744 q 558 736 558 736 q 256 515 397 710 q 108 115 122 322 q 197 -179 97 -76 q 292 -244 243 -224 q 381 -270 342 -265 q 433 -275 421 -275 m 494 383 l 494 383 q 528 372 515 383 q 546 356 540 361 q 500 224 526 294 q 434 84 461 126 q 392 33 407 42 q 374 26 376 25 q 353 65 363 26 q 365 226 340 133 q 456 369 390 319 q 494 383 478 383 z "},"A":{"ha":854,"x_min":-339,"x_max":781,"o":"m 760 347 l 760 347 q 774 314 781 336 q 740 299 763 292 q 660 318 706 314 q 647 -206 647 33 q 656 -455 647 -367 q 677 -580 665 -543 q 699 -622 689 -617 q 703 -658 715 -639 q 682 -668 693 -668 q 667 -661 674 -668 q 618 -554 639 -647 q 596 -206 597 -461 q 608 322 596 35 q 300 282 460 321 q 167 -221 231 -10 q 41 -547 104 -432 q -92 -661 -22 -661 q -93 -661 -92 -661 q -226 -518 -167 -660 q -337 -97 -285 -381 q -317 -68 -339 -75 q -286 -89 -293 -65 q -204 -432 -243 -319 q -136 -578 -165 -544 q -92 -610 -107 -612 q -90 -610 -92 -610 q -47 -583 -75 -610 q 22 -470 -19 -556 q 115 -217 63 -385 q 244 268 182 1 q 75 219 142 242 q 4 196 8 197 q -4 194 0 194 q -29 211 -21 194 q -14 244 -35 233 q 29 258 -8 246 q 126 289 67 271 q 258 325 185 307 q 331 638 294 481 q 478 1242 410 992 q 560 1469 526 1410 q 624 1526 594 1528 q 656 1515 642 1528 q 685 1433 675 1501 q 696 1192 696 1364 q 672 585 692 935 q 663 369 668 476 q 760 347 717 364 m 643 1189 l 643 1189 q 641 1349 644 1290 q 633 1435 638 1407 q 624 1471 628 1463 q 610 1451 619 1467 q 588 1406 600 1436 q 525 1215 560 1340 q 381 626 457 969 q 314 338 346 475 q 611 372 467 372 q 621 588 617 479 q 643 1189 639 933 z "},"B":{"ha":889,"x_min":-83,"x_max":769,"o":"m 753 407 l 753 407 q 716 120 769 254 q 592 -110 663 -14 q 217 -460 425 -337 q 213 -461 215 -460 q 219 -570 215 -528 q 228 -626 224 -612 q 213 -660 233 -650 q 204 -661 208 -661 q 179 -643 188 -661 q 163 -482 168 -607 q 110 -489 138 -489 q 61 -482 86 -489 q -75 -358 -21 -458 q -64 -322 -83 -336 q -29 -333 -43 -314 q 75 -433 14 -415 q 160 -429 124 -443 q 157 500 147 -50 q 183 1221 165 931 q 189 1292 186 1258 q 56 1156 96 1213 q 22 1086 17 1100 q 21 1050 36 1068 q -17 1053 1 1036 q -15 1140 -43 1088 q 58 1239 13 1192 q 194 1361 117 1301 q 222 1547 208 1508 q 244 1585 235 1585 q 285 1582 265 1597 q 286 1544 300 1564 q 272 1538 281 1539 q 250 1400 261 1508 q 469 1499 360 1472 q 657 1469 578 1525 q 697 1226 742 1404 q 558 900 664 1093 q 346 553 436 681 q 496 588 411 578 q 653 564 581 599 q 753 407 736 519 m 210 -404 l 210 -404 q 452 -201 332 -331 q 646 85 572 -72 q 701 400 719 243 q 629 518 689 488 q 526 539 583 542 q 414 520 468 536 q 324 490 360 504 q 286 474 288 475 q 254 479 268 465 q 254 511 243 496 q 296 572 256 514 q 395 723 336 629 q 514 925 454 817 q 626 1429 733 1336 q 451 1442 556 1476 q 243 1333 346 1407 q 208 474 219 1071 q 210 -404 200 -74 z "},"C":{"ha":801,"x_min":36,"x_max":658,"o":"m 225 -671 l 225 -671 q 376 -550 296 -671 q 511 -294 439 -457 q 583 -118 551 -201 q 634 19 615 -35 q 653 76 653 74 q 636 108 658 99 q 604 92 614 114 q 585 36 603 89 q 535 -99 567 -17 q 464 -274 504 -182 q 342 -509 393 -435 q 263 -603 292 -583 q 222 -619 233 -622 q 151 -524 185 -619 q 104 -208 117 -429 q 192 838 88 290 q 317 1269 247 1111 q 461 1442 388 1428 q 507 1417 481 1450 q 539 967 575 1297 q 388 449 494 629 q 396 414 378 428 q 432 422 417 403 q 589 961 544 611 q 550 1444 629 1313 q 501 1488 526 1479 q 454 1492 475 1496 q 315 1376 375 1476 q 212 1133 256 1276 q 140 847 168 990 q 53 -210 36 294 q 219 -671 75 -661 q 225 -671 222 -671 z "},"D":{"ha":874,"x_min":-33,"x_max":815,"o":"m 783 1143 l 783 1143 q 649 331 815 803 q 236 -342 472 -147 q 199 -364 218 -354 q 206 -539 201 -471 q 217 -626 211 -607 q 201 -660 222 -650 q 193 -661 197 -661 q 168 -643 176 -661 q 156 -550 161 -619 q 147 -376 150 -481 q 136 -376 142 -376 q 100 -372 118 -376 q -25 -258 18 -350 q -12 -224 -32 -236 q 22 -236 11 -217 q 113 -322 54 -307 q 146 -325 129 -326 q 147 500 138 38 q 175 1219 156 931 q 181 1310 178 1269 q 150 1288 165 1299 q 49 1190 79 1231 q 19 1136 18 1149 q 21 1101 33 1118 q -17 1099 3 1085 q -32 1133 -31 1108 q -7 1200 -33 1157 q 186 1376 46 1282 q 205 1512 196 1468 q 222 1569 214 1556 q 236 1585 229 1582 q 275 1581 257 1596 q 276 1544 292 1563 q 264 1536 271 1538 q 242 1407 253 1508 q 246 1410 244 1408 q 419 1468 321 1450 q 617 1444 517 1486 q 783 1143 756 1378 m 204 -300 l 204 -300 q 484 79 356 -175 q 683 622 613 333 q 732 1138 754 911 q 694 1286 725 1211 q 594 1397 664 1361 q 417 1415 511 1435 q 236 1344 322 1396 q 199 474 211 1085 q 197 -306 190 13 q 204 -300 200 -303 z "},"E":{"ha":797,"x_min":-93,"x_max":881,"o":"m 289 1271 l 289 1271 q 225 644 253 1053 q 210 350 215 492 q 310 376 258 363 q 530 430 458 415 q 624 444 601 444 q 650 442 646 444 q 665 408 671 431 q 633 393 656 388 q 556 382 617 394 q 404 347 494 369 q 208 296 314 325 q 249 -482 194 -236 q 287 -587 268 -558 q 317 -619 306 -617 q 397 -606 331 -631 q 611 -454 464 -581 q 760 -310 699 -375 q 825 -242 821 -246 q 861 -240 842 -226 q 863 -276 876 -257 q 797 -346 860 -281 q 644 -493 735 -411 q 336 -674 442 -674 q 297 -667 314 -674 q 186 -426 219 -636 q 154 33 157 -254 q 157 282 153 151 q 33 247 94 265 q 26 246 29 246 q 1 265 8 246 q 18 296 -3 288 q 158 336 29 300 q 201 989 169 663 q 235 1257 217 1140 q 22 1177 78 1214 q -39 1117 -35 1140 q -62 1100 -47 1100 q -71 1100 -67 1100 q -87 1133 -93 1110 q 243 1313 -56 1238 q 250 1346 246 1331 q 284 1483 269 1451 q 311 1517 299 1515 q 347 1511 331 1525 q 349 1475 363 1493 q 332 1467 342 1468 q 297 1325 318 1438 q 364 1340 329 1333 q 842 1410 572 1382 l 851 1410 q 879 1388 875 1411 q 857 1360 881 1364 l 847 1358 q 375 1289 579 1331 q 289 1271 328 1281 z "},"F":{"ha":765,"x_min":-181,"x_max":999,"o":"m 978 1472 l 978 1472 q 992 1439 999 1461 q 957 1425 979 1418 q 880 1425 943 1429 q 719 1408 817 1421 q 500 1371 621 1394 q 354 1339 424 1356 q 317 525 331 1092 q 338 531 326 528 q 558 584 488 569 q 652 599 629 599 q 678 596 675 599 q 693 563 700 585 q 661 547 683 542 q 544 528 639 549 q 315 471 449 507 q 315 468 315 469 q 310 74 311 261 q 313 -262 310 -112 q 320 -506 315 -411 q 333 -626 325 -601 q 317 -660 339 -650 q 308 -661 313 -661 q 285 -643 293 -661 q 269 -507 275 -611 q 260 -248 263 -403 q 259 89 258 -93 q 264 457 260 271 q 61 401 163 431 q 54 400 57 400 q 29 418 38 400 q 47 450 25 442 q 112 469 50 451 q 265 511 174 486 q 293 1211 274 929 q 301 1326 297 1276 q -76 1185 33 1258 q -129 1118 -128 1149 q -154 1093 -135 1093 q -156 1093 -156 1093 q -181 1121 -179 1097 q -89 1238 -179 1182 q 91 1318 -15 1282 q 307 1381 197 1354 q 333 1540 321 1507 q 354 1575 346 1574 q 394 1571 375 1588 q 396 1535 410 1554 q 382 1528 390 1529 q 360 1393 371 1499 q 511 1425 446 1413 q 785 1468 638 1450 q 978 1472 932 1486 z "},"G":{"ha":897,"x_min":-15,"x_max":824,"o":"m 804 421 l 804 421 q 814 385 824 407 q 782 375 801 367 q 728 375 769 378 q 624 367 686 372 q 626 354 626 361 l 604 -844 q 579 -869 600 -869 q 578 -869 579 -869 q 553 -843 556 -867 l 572 189 q 467 -96 529 63 q 318 -414 386 -293 q 160 -596 229 -574 q 89 -586 121 -608 q 11 -433 33 -543 q -13 -194 -11 -324 q -8 39 -15 -64 q 147 979 24 538 q 451 1463 285 1453 q 514 1439 485 1465 q 647 1003 601 1358 q 669 772 663 869 q 675 668 675 674 q 650 642 674 644 q 624 667 626 643 q 606 914 621 760 q 560 1209 590 1068 q 479 1400 529 1350 q 454 1413 467 1413 q 196 965 324 1394 q 43 36 75 529 q 53 -381 29 -242 q 118 -544 78 -519 q 143 -547 129 -553 q 237 -450 169 -546 q 418 -76 304 -354 q 498 133 463 35 q 554 295 533 232 q 576 363 575 358 q 325 333 457 350 q 322 333 324 333 q 297 356 303 333 q 319 385 296 379 q 389 393 324 385 q 543 411 454 401 q 713 425 658 422 q 784 426 767 428 q 804 421 801 424 z "},"H":{"ha":1115,"x_min":-207,"x_max":1110,"o":"m 1089 567 l 1089 567 q 1104 533 1110 556 q 1071 518 1093 513 q 1047 519 1067 519 q 977 510 1026 518 q 838 483 928 503 q 837 177 836 322 q 840 -84 838 32 q 845 -274 842 -200 q 853 -368 849 -349 q 856 -394 861 -381 q 832 -408 846 -408 q 821 -406 826 -408 q 804 -383 810 -403 q 796 -307 799 -364 q 789 -114 792 -239 q 786 463 785 99 q 786 472 786 468 q 418 381 651 442 q 165 314 286 346 q 182 -227 174 -19 q 199 -546 190 -435 q 214 -701 207 -657 q 225 -750 221 -744 q 221 -785 238 -769 q 204 -792 214 -792 q 185 -782 194 -792 q 171 -751 179 -781 q 153 -621 163 -722 q 133 -301 143 -519 q 115 300 124 -82 q -171 219 -150 226 q -178 218 -175 218 q -203 238 -196 218 q -186 269 -207 260 q 114 353 -162 276 q 102 1045 106 749 q 99 1361 99 1342 q 124 1388 100 1385 q 150 1361 147 1385 q 153 1051 150 1343 q 165 367 157 758 q 408 432 281 399 q 786 525 649 494 q 790 1056 788 829 q 793 1296 792 1282 q 818 1321 797 1321 q 818 1321 818 1321 q 844 1294 842 1318 q 838 536 839 938 q 994 565 942 558 q 1065 571 1046 572 q 1089 567 1083 569 z "},"I":{"ha":563,"x_min":-314,"x_max":974,"o":"m 954 1428 l 954 1428 q 967 1394 974 1417 q 933 1382 956 1374 q 851 1387 918 1388 q 681 1377 785 1386 q 449 1349 576 1368 q 308 1325 376 1338 q 293 1153 300 1264 q 274 567 278 914 q 274 142 271 339 q 286 -190 278 -56 q 306 -360 294 -324 q 301 -383 310 -374 q 497 -338 433 -350 q 581 -326 560 -326 q 606 -329 601 -326 q 621 -362 626 -340 q 588 -378 610 -383 q 465 -397 565 -375 q 222 -457 364 -419 q -68 -537 81 -494 q -75 -537 -71 -537 q -100 -519 -92 -537 q -82 -487 -104 -496 q 17 -460 -76 -486 q 235 -400 111 -433 q 271 -392 254 -396 q 257 -376 261 -387 q 233 -179 242 -329 q 222 174 225 -29 q 222 588 219 378 q 243 1181 226 942 q 256 1315 249 1261 q -186 1169 -51 1253 q -262 1076 -261 1122 q -287 1051 -268 1051 q -289 1051 -289 1051 q -314 1078 -312 1054 q -211 1215 -311 1153 q 263 1369 -39 1313 q 285 1463 274 1442 q 304 1488 296 1485 q 346 1482 326 1500 q 347 1446 363 1465 q 331 1438 340 1439 q 317 1379 325 1428 q 726 1433 543 1419 q 954 1428 908 1446 z "},"J":{"ha":656,"x_min":-64,"x_max":767,"o":"m 746 1432 l 746 1432 q 760 1399 767 1421 q 728 1383 750 1378 q 628 1370 708 1386 q 432 1325 549 1354 q 447 546 446 1153 q 515 604 489 583 q 543 626 540 625 q 579 621 564 639 q 574 586 592 601 q 537 556 572 585 q 447 472 501 526 q 294 -569 433 -403 q 214 -611 258 -611 q 165 -598 193 -611 q 110 -543 138 -585 q 48 -265 49 -444 q 131 108 47 -85 q 260 331 190 233 q 396 493 331 428 q 392 1012 399 785 q 381 1311 385 1239 q -28 1200 185 1261 q -35 1199 -32 1199 q -60 1218 -53 1199 q -43 1250 -64 1240 q 72 1281 -36 1251 q 322 1350 179 1311 q 597 1417 508 1399 q 714 1435 686 1435 q 746 1432 742 1436 m 253 -539 l 253 -539 q 340 -290 299 -500 q 394 415 382 -79 q 178 88 278 290 q 99 -260 100 -92 q 153 -515 99 -428 q 178 -546 163 -532 q 214 -560 194 -560 q 253 -539 235 -560 z "},"K":{"ha":885,"x_min":6,"x_max":1015,"o":"m 996 -589 l 996 -589 q 1004 -624 1015 -603 q 908 -692 963 -692 q 906 -692 907 -692 q 760 -573 833 -685 q 600 -290 686 -461 q 445 -11 528 -150 q 272 213 363 128 q 196 179 235 189 q 194 -127 193 10 q 201 -353 196 -264 q 214 -467 206 -442 q 197 -500 219 -490 q 189 -501 193 -501 q 165 -483 174 -501 q 146 -252 150 -433 q 144 174 142 -71 q 58 187 86 174 q 22 217 31 200 q 26 281 6 247 q 147 329 65 333 q 151 507 149 418 q 185 1122 164 875 q 209 1333 197 1267 q 231 1418 221 1399 q 249 1440 242 1438 q 290 1436 271 1451 q 292 1399 306 1418 q 275 1392 285 1392 q 265 1353 272 1382 q 251 1262 258 1324 q 233 1094 243 1200 q 203 485 214 843 q 199 318 200 400 q 275 276 238 304 q 421 422 344 326 q 667 843 553 593 q 778 1139 742 1008 q 797 1244 796 1211 q 794 1282 799 1278 q 782 1315 775 1294 q 817 1329 793 1336 q 849 1270 847 1313 q 842 1188 850 1228 q 589 581 783 919 q 465 396 535 488 q 317 242 396 304 q 490 15 408 153 q 646 -267 571 -122 q 794 -533 725 -424 q 866 -619 839 -597 q 908 -640 893 -642 q 961 -597 933 -640 q 996 -589 975 -578 m 68 243 l 68 243 q 88 230 69 236 q 144 225 106 224 q 146 278 146 251 q 143 278 144 278 q 132 278 138 278 q 69 251 88 278 q 68 243 65 246 m 197 233 l 197 233 q 228 246 213 239 q 197 263 213 256 q 197 233 197 249 z "},"L":{"ha":543,"x_min":-115,"x_max":944,"o":"m 924 -151 l 924 -151 q 936 -186 944 -164 q 903 -199 925 -206 q 860 -199 900 -196 q 709 -226 819 -203 q 385 -304 599 -249 q 201 -353 289 -329 q 206 -371 203 -364 q 189 -404 211 -394 q 181 -406 185 -406 q 157 -387 164 -406 q 151 -367 154 -379 q -79 -432 -62 -426 q -86 -433 -83 -433 q -111 -414 -104 -433 q -94 -382 -115 -392 q 143 -315 -76 -376 q 111 544 114 -7 q 122 1119 110 889 q 147 1367 132 1317 q 174 1418 161 1418 q 214 1414 194 1431 q 215 1378 229 1396 q 200 1369 208 1371 q 181 1238 190 1340 q 167 956 172 1135 q 163 522 163 778 q 193 -301 168 -49 q 376 -253 281 -278 q 732 -168 617 -190 q 883 -146 847 -146 q 924 -151 919 -146 z "},"M":{"ha":1119,"x_min":43,"x_max":963,"o":"m 278 -575 l 278 -575 q 297 -565 289 -575 q 294 -529 311 -546 q 217 -317 260 -501 q 138 186 174 -133 q 125 1142 72 828 q 156 1236 140 1214 q 178 1258 171 1258 q 186 1256 178 1260 q 228 1201 199 1251 q 300 1018 257 1151 q 400 629 343 885 q 478 238 449 406 q 508 60 508 71 q 535 38 515 38 q 535 38 535 38 q 560 60 556 40 q 593 259 561 72 q 675 690 625 446 q 783 1131 733 968 q 840 1283 818 1242 q 871 1328 863 1324 q 882 1295 875 1322 q 896 1206 889 1268 q 907 1035 903 1144 q 899 432 914 793 q 879 99 890 256 q 856 -181 868 -57 q 833 -381 844 -304 q 813 -475 822 -457 q 808 -507 800 -489 q 844 -517 822 -526 q 860 -499 851 -515 q 878 -423 868 -482 q 903 -235 889 -364 q 944 332 928 11 q 956 641 950 438 q 958 1043 963 844 q 925 1332 953 1242 q 897 1375 913 1365 q 867 1382 881 1385 q 813 1338 844 1382 q 736 1153 782 1294 q 626 708 686 989 q 533 218 567 418 q 450 640 503 392 q 342 1056 393 896 q 265 1240 296 1190 q 213 1300 233 1290 q 163 1307 181 1315 q 75 1153 101 1290 q 51 703 43 974 q 86 181 58 432 q 119 -65 96 96 q 178 -375 142 -226 q 261 -569 214 -524 q 278 -575 269 -575 m 818 -472 l 818 -472 q 818 -472 818 -472 q 818 -472 818 -472 z "},"N":{"ha":1075,"x_min":49,"x_max":928,"o":"m 815 -603 l 815 -603 q 840 -593 829 -603 q 855 -569 846 -589 q 876 -487 864 -549 q 899 -296 888 -425 q 925 275 921 -53 q 926 585 928 378 q 908 1014 924 793 q 853 1376 892 1235 q 768 1499 819 1489 q 738 1479 744 1501 q 757 1449 735 1456 q 769 1437 758 1449 q 797 1382 781 1425 q 862 922 844 1228 q 875 306 879 615 q 849 -275 871 -25 q 828 -459 839 -399 q 811 -539 818 -519 q 783 -475 801 -522 q 736 -333 765 -428 q 604 143 678 -133 q 394 883 503 539 q 265 1199 314 1124 q 185 1271 217 1275 q 142 1249 168 1278 q 77 942 100 1176 q 50 438 54 707 q 52 170 49 347 q 74 -183 56 -7 q 135 -447 92 -358 q 204 -497 164 -499 q 229 -471 228 -494 q 203 -446 226 -447 q 190 -437 199 -447 q 169 -397 181 -426 q 103 501 92 -161 q 122 872 108 719 q 153 1112 136 1025 q 183 1218 169 1199 q 206 1196 190 1215 q 246 1126 222 1176 q 346 868 290 1038 q 556 131 453 525 q 692 -364 631 -158 q 764 -559 739 -515 q 806 -603 789 -603 q 815 -603 810 -603 z "},"O":{"ha":986,"x_min":15,"x_max":854,"o":"m 335 -618 l 335 -618 q 356 -617 346 -618 q 718 -232 585 -592 q 835 685 854 160 q 631 1407 806 1217 q 417 1464 536 1503 q 204 932 226 1399 q 63 279 100 651 q 156 -507 15 -269 q 335 -618 228 -618 m 201 760 l 201 760 q 207 619 203 693 q 236 267 217 432 q 272 -1 256 103 q 290 -110 289 -106 q 319 -131 296 -133 q 340 -101 342 -125 q 323 7 339 -96 q 288 273 307 110 q 258 622 268 436 q 256 921 250 788 q 333 1085 292 1015 q 413 1185 365 1139 q 519 1229 461 1231 q 547 1253 543 1231 q 524 1281 546 1276 q 289 1111 397 1290 q 268 1072 278 1093 q 278 1142 272 1108 q 432 1415 321 1378 q 594 1371 522 1446 q 752 972 704 1250 q 781 370 800 694 q 671 -214 761 46 q 551 -441 629 -335 q 351 -565 474 -547 q 199 -479 258 -575 q 114 275 68 -254 q 201 760 139 538 z "},"P":{"ha":740,"x_min":-65,"x_max":824,"o":"m 696 1482 l 696 1482 q 804 1190 824 1404 q 553 613 772 914 q 167 253 381 382 q 166 -68 165 82 q 170 -336 167 -218 q 179 -530 174 -454 q 192 -626 185 -606 q 175 -660 196 -650 q 167 -661 171 -661 q 142 -643 150 -661 q 124 -480 131 -607 q 115 -169 118 -353 q 114 224 113 15 q -6 171 54 192 q -14 169 -10 169 q -39 186 -31 169 q -24 219 -44 208 q 115 282 47 244 q 118 469 115 376 q 142 1169 125 889 q 151 1296 147 1243 q -14 1108 -4 1167 q -42 1085 -18 1085 q -65 1111 -64 1088 q 3 1228 -60 1158 q 158 1365 65 1297 q 182 1496 171 1468 q 203 1525 193 1524 q 242 1521 224 1538 q 243 1485 258 1503 q 229 1476 238 1478 q 215 1404 222 1458 q 278 1440 246 1424 q 481 1513 368 1490 q 696 1482 593 1536 m 753 1196 l 753 1196 q 746 1330 761 1261 q 669 1438 731 1399 q 474 1459 576 1485 q 301 1394 371 1433 q 207 1338 251 1368 q 168 444 181 1094 q 167 314 167 378 q 568 724 408 476 q 753 1196 728 971 z "},"Q":{"ha":1044,"x_min":26,"x_max":979,"o":"m 963 -524 l 963 -524 q 964 -560 979 -542 q 946 -568 956 -568 q 928 -561 936 -568 q 768 -476 874 -514 q 554 -412 663 -437 q 368 -496 469 -486 q 349 -497 358 -497 q 172 -386 244 -497 q 74 458 26 -133 q 269 1279 121 954 q 190 1151 222 1218 q 138 1025 157 1085 q 110 927 118 965 q 101 886 101 889 q 71 865 94 863 q 50 894 49 871 q 58 933 50 897 q 84 1024 67 968 q 131 1146 101 1081 q 351 1419 218 1339 q 578 1554 457 1564 q 601 1526 601 1550 q 574 1503 597 1504 q 463 1463 513 1506 q 683 1379 588 1488 q 865 703 846 1181 q 740 -126 876 229 q 597 -369 679 -279 q 806 -436 704 -397 q 963 -524 908 -475 m 540 -356 l 540 -356 q 692 -107 643 -244 q 806 420 783 129 q 788 966 829 711 q 644 1346 747 1221 q 464 1411 565 1436 q 386 1381 422 1400 q 361 1340 372 1360 q 170 782 235 1121 q 114 123 106 443 q 217 -360 122 -197 q 364 -444 275 -454 q 490 -397 435 -437 q 397 -376 433 -383 q 358 -369 360 -369 q 338 -339 335 -362 q 367 -318 343 -317 q 422 -329 374 -319 q 540 -356 469 -339 z "},"R":{"ha":856,"x_min":-51,"x_max":919,"o":"m 907 1165 l 907 1165 q 710 660 886 947 q 254 143 535 372 q 362 44 310 104 q 464 -83 414 -17 q 591 -233 529 -171 q 700 -275 653 -296 q 735 -286 721 -267 q 725 -321 744 -307 q 675 -333 700 -333 q 593 -302 635 -333 q 509 -222 551 -271 q 424 -115 467 -172 q 319 15 374 -47 q 211 110 265 76 q 179 86 194 97 q 179 -210 178 -72 q 184 -455 181 -347 q 192 -631 188 -562 q 204 -719 197 -699 q 188 -751 210 -742 q 179 -753 183 -753 q 156 -736 164 -753 q 138 -587 144 -701 q 129 -307 132 -474 q 128 53 126 -140 q 70 36 92 35 q 39 46 49 38 q 18 103 11 65 q 45 149 22 126 q 114 181 68 172 q 128 182 121 182 q 131 378 129 281 q 156 1076 138 796 q 158 1125 157 1103 q 3 926 22 996 q -28 907 -6 904 q -49 938 -51 914 q 164 1200 -18 1039 q 192 1392 178 1353 q 215 1432 206 1432 q 256 1428 236 1444 q 257 1392 271 1411 q 243 1385 250 1386 q 221 1246 232 1356 q 546 1429 378 1372 q 844 1388 736 1488 q 907 1165 919 1315 m 117 106 l 117 106 q 128 114 122 110 q 128 131 128 122 q 122 131 125 131 q 84 115 96 125 q 71 99 72 104 q 68 88 67 90 q 83 89 71 86 q 117 106 94 92 m 206 169 l 206 169 q 629 629 444 357 q 856 1169 832 936 q 853 1265 861 1214 q 808 1350 844 1315 q 561 1381 724 1431 q 214 1174 378 1315 q 182 351 192 918 q 179 178 181 264 q 206 169 193 175 z "},"S":{"ha":957,"x_min":-139,"x_max":992,"o":"m 218 -704 l 218 -704 q 497 -651 354 -704 q 804 -296 769 -540 q 773 -83 813 -204 q 663 178 733 39 q 881 311 794 261 q 972 364 967 361 q 982 399 992 376 q 947 408 968 418 q 856 356 942 406 q 640 225 771 307 q 536 424 590 322 q 366 760 443 596 q 265 1057 289 925 q 308 1263 242 1189 q 409 1311 357 1310 q 503 1296 461 1313 q 681 1152 606 1251 q 763 953 757 1053 q 789 928 765 931 q 814 954 813 931 q 723 1181 807 1069 q 521 1343 639 1293 q 272 1299 374 1399 q 250 911 158 1183 q 355 663 290 793 q 490 400 419 532 q 596 197 546 297 q 442 94 521 149 q -119 -464 -75 -262 q -64 -625 -139 -560 q 218 -704 38 -704 m 619 150 l 619 150 q 723 -94 685 19 q 753 -290 761 -208 q 642 -503 729 -429 q 478 -604 554 -578 q 192 -653 335 -658 q -31 -585 49 -647 q -69 -475 -83 -540 q 471 51 -26 -292 q 619 150 547 104 z "},"T":{"ha":540,"x_min":-369,"x_max":976,"o":"m 956 1476 l 956 1476 q 968 1443 976 1465 q 935 1429 957 1422 q 883 1431 931 1435 q 701 1400 835 1428 q 304 1306 567 1372 q 283 489 285 1061 q 286 119 283 294 q 294 -198 289 -57 q 306 -429 299 -339 q 321 -544 313 -519 q 304 -578 326 -568 q 296 -579 300 -579 q 272 -561 281 -579 q 255 -424 263 -529 q 242 -167 247 -319 q 234 163 236 -14 q 232 514 232 339 q 246 1188 233 918 q 251 1292 249 1246 q -152 1182 19 1231 q -333 1131 -324 1133 q -340 1129 -337 1129 q -365 1147 -358 1129 q -349 1179 -369 1171 q -160 1233 -337 1183 q 257 1346 18 1283 q 279 1497 268 1465 q 300 1531 290 1529 q 340 1526 321 1543 q 342 1490 356 1508 q 328 1482 336 1485 q 310 1360 318 1456 q 728 1458 593 1432 q 907 1483 864 1483 q 956 1476 950 1483 z "},"U":{"ha":1115,"x_min":44,"x_max":1019,"o":"m 985 -837 l 985 -837 q 996 -836 990 -837 q 1018 -807 1019 -831 q 988 -786 1011 -783 q 969 -779 981 -789 q 920 -658 946 -762 q 883 -297 894 -554 q 886 436 871 -39 q 913 961 897 715 q 940 1363 928 1207 q 953 1525 951 1518 q 931 1553 953 1547 q 901 1533 908 1554 q 866 1386 900 1526 q 774 1027 832 1246 q 643 564 715 808 q 408 -103 515 140 q 274 -345 324 -292 q 207 -393 224 -399 q 146 -329 172 -394 q 122 446 71 -118 q 179 854 147 699 q 232 1040 211 1010 q 254 1053 246 1042 q 246 1088 264 1074 q 203 1085 224 1100 q 188 1067 199 1082 q 163 1006 178 1051 q 129 868 149 960 q 72 463 94 692 q 50 70 56 315 q 96 -339 44 -175 q 207 -444 133 -444 q 208 -444 207 -444 q 310 -383 247 -450 q 465 -103 372 -317 q 692 549 558 111 q 878 1221 804 931 q 835 438 853 893 q 833 -354 818 -50 q 878 -705 850 -610 q 935 -817 907 -800 q 985 -837 957 -837 z "},"V":{"ha":881,"x_min":46,"x_max":889,"o":"m 225 -664 l 225 -664 q 233 -664 229 -664 q 302 -604 258 -667 q 421 -342 346 -542 q 629 340 518 -76 q 888 1599 864 1235 q 882 1661 889 1635 q 850 1693 875 1688 q 821 1672 826 1696 q 832 1646 818 1656 q 835 1615 835 1642 q 831 1524 836 1588 q 806 1346 825 1460 q 674 724 761 1086 q 307 -487 469 -112 q 261 -573 279 -546 q 235 -607 243 -600 q 225 -612 226 -614 q 210 -596 224 -615 q 103 397 118 -411 q 113 992 99 731 q 126 1165 118 1104 q 139 1252 133 1226 q 149 1283 144 1278 q 163 1306 163 1290 q 136 1332 163 1328 q 120 1327 129 1332 q 103 1307 111 1322 q 58 952 71 1231 q 51 363 46 674 q 63 22 53 228 q 99 -371 74 -185 q 172 -632 125 -557 q 200 -658 186 -651 q 225 -664 214 -664 m 136 1281 l 136 1281 q 136 1281 136 1281 q 136 1281 136 1281 z "},"W":{"ha":1288,"x_min":44,"x_max":1132,"o":"m 744 -732 l 744 -732 q 761 -731 753 -732 q 829 -680 789 -731 q 921 -469 869 -629 q 1036 75 983 -261 q 1126 1026 1114 575 q 1117 1386 1132 1250 q 1046 1575 1097 1547 q 1011 1565 1024 1585 q 1021 1531 1001 1543 q 1033 1514 1024 1531 q 1054 1447 1043 1497 q 1072 1297 1065 1397 q 1075 1028 1079 1196 q 986 83 1063 579 q 871 -454 933 -249 q 793 -641 825 -599 q 751 -681 761 -683 q 724 -672 738 -683 q 661 -557 696 -657 q 596 -218 626 -457 q 544 463 557 149 q 533 663 539 586 q 526 721 531 701 q 520 749 526 733 q 494 764 514 764 q 465 741 476 764 q 439 654 454 718 q 383 432 415 568 q 250 -93 324 168 q 179 -296 211 -224 q 149 -353 161 -336 q 133 -372 138 -369 q 123 -344 129 -367 q 110 -267 117 -321 q 103 -117 104 -214 q 119 407 99 97 q 152 788 133 618 q 190 1065 171 958 q 222 1193 208 1172 q 233 1224 238 1204 q 200 1240 224 1244 q 169 1201 185 1239 q 132 1036 153 1164 q 83 621 106 869 q 54 154 64 399 q 58 -258 44 -90 q 124 -424 71 -422 q 197 -374 158 -433 q 294 -126 236 -314 q 433 419 371 144 q 485 626 461 536 q 493 460 489 553 q 528 -60 507 188 q 588 -483 549 -308 q 692 -714 626 -658 q 744 -732 717 -732 m 217 1192 l 217 1192 q 217 1192 217 1192 q 217 1192 217 1192 m 222 1194 l 222 1194 q 222 1194 222 1194 z "},"X":{"ha":794,"x_min":-283,"x_max":1053,"o":"m 1042 1385 l 1042 1385 q 1038 1351 1053 1365 q 997 1296 1029 1342 q 913 1174 964 1250 q 797 1000 863 1099 q 655 785 731 901 q 498 544 579 669 q 335 292 417 419 q 376 122 356 206 q 560 -381 475 -235 q 700 -519 646 -528 q 728 -542 724 -519 q 706 -571 728 -565 q 697 -571 701 -571 q 378 -65 538 -569 q 297 231 335 72 q -37 -313 108 -67 q -229 -674 -183 -560 q -253 -690 -237 -690 q -262 -689 -258 -690 q -278 -656 -283 -678 q -56 -244 -221 -519 q 281 301 108 32 q 188 840 217 585 q 175 1136 168 1025 q 190 1226 176 1182 q 243 1279 204 1271 q 272 1257 267 1281 q 250 1229 272 1235 q 240 1210 249 1231 q 226 1125 231 1190 q 238 857 221 1024 q 319 363 263 625 q 399 488 363 429 q 804 1106 613 818 q 938 1301 896 1240 q 992 1377 979 1361 q 1006 1392 1006 1393 q 1042 1385 1026 1403 z "},"Y":{"ha":889,"x_min":43,"x_max":921,"o":"m 317 -750 l 317 -750 q 338 -749 326 -750 q 599 -353 500 -719 q 697 208 660 -132 q 794 256 751 236 q 865 285 838 275 q 900 297 893 294 q 903 297 901 297 q 921 322 919 304 q 903 346 919 340 q 886 346 900 349 l 886 346 q 886 346 886 346 q 829 326 874 343 q 704 271 783 310 q 717 401 711 335 q 747 915 739 674 q 756 1311 756 1157 q 757 1472 757 1465 q 735 1497 754 1493 q 706 1479 714 1499 q 678 1381 706 1474 q 603 1142 650 1288 q 497 838 556 997 q 319 433 390 558 q 208 276 249 307 q 156 254 168 246 q 110 351 126 260 q 108 646 94 443 q 128 830 117 743 q 149 972 140 917 q 158 1029 158 1026 q 138 1060 161 1053 q 108 1039 115 1061 q 98 981 107 1036 q 77 837 89 925 q 57 650 65 749 q 56 371 43 476 q 142 206 72 224 q 353 386 235 178 q 544 821 440 540 q 706 1294 644 1094 q 665 406 706 958 q 650 240 658 319 q 494 133 575 199 q 342 -24 413 67 q 167 -408 192 -233 q 203 -678 142 -582 q 317 -750 249 -749 m 642 175 l 642 175 q 329 -697 542 -646 q 276 -685 297 -701 q 246 -651 256 -668 q 217 -417 194 -564 q 383 -54 247 -237 q 642 175 501 93 z "},"Z":{"ha":832,"x_min":-40,"x_max":868,"o":"m 188 -793 l 188 -793 q 408 -547 281 -793 q 600 -42 528 -314 q 642 179 626 57 q 746 246 700 219 q 819 285 792 272 q 847 299 846 299 q 861 333 868 310 q 828 347 850 354 q 799 334 824 346 q 735 301 775 322 q 646 244 696 279 q 628 378 647 321 q 560 456 610 435 q 235 289 460 494 q 175 232 204 260 q 367 608 261 392 q 551 1036 489 863 q 608 1340 632 1258 q 574 1389 599 1374 q 194 1217 450 1457 q 83 1103 133 1158 q 3 1013 33 1049 q -28 975 -26 976 q -24 939 -40 956 q 13 943 -4 926 q 43 980 14 944 q 122 1069 72 1015 q 231 1181 171 1124 q 549 1344 456 1390 q 560 1326 553 1344 q 534 1147 575 1299 q 321 631 493 994 q 185 363 250 486 q 79 162 121 239 q 35 82 38 85 q 43 47 26 61 q 78 53 63 38 q 135 117 81 57 q 269 251 190 176 q 465 394 403 369 q 542 407 528 418 q 593 208 606 379 q 417 56 508 147 q 246 -160 325 -35 q 117 -501 142 -333 q 126 -749 92 -669 q 178 -792 153 -793 q 188 -793 182 -793 m 585 136 l 585 136 q 550 -29 574 61 q 363 -524 481 -294 q 247 -701 293 -654 q 185 -742 201 -747 q 174 -726 182 -742 q 169 -501 144 -658 q 289 -187 194 -344 q 585 136 429 21 z "},"[":{"ha":469,"x_min":122,"x_max":419,"o":"m 149 -511 l 149 -511 q 150 -511 149 -511 l 342 -497 q 365 -469 365 -493 q 338 -446 361 -446 l 174 -458 l 185 932 l 393 932 q 419 958 414 932 q 393 983 419 979 l 158 983 q 133 958 138 983 l 122 -485 q 131 -504 122 -497 q 149 -511 138 -511 z "},"\\":{"ha":546,"x_min":47,"x_max":503,"o":"m 471 -411 l 471 -411 q 485 -407 478 -411 q 492 -372 503 -393 q 461 -293 483 -358 q 407 -124 439 -228 q 337 109 375 -19 q 257 378 299 238 q 176 659 215 519 q 100 922 136 799 q 68 940 92 944 q 51 908 47 932 q 245 234 94 750 q 449 -400 396 -282 q 471 -411 458 -411 z "},"]":{"ha":436,"x_min":50,"x_max":336,"o":"m 76 -490 l 76 -490 q 76 -490 76 -490 l 240 -486 q 265 -462 263 -485 l 336 960 q 329 979 336 971 q 311 988 322 986 l 122 994 q 122 994 122 994 q 96 969 101 994 q 121 943 97 946 l 283 938 l 215 -436 l 75 -439 q 50 -465 51 -442 q 76 -490 54 -490 z "},"^":{"ha":383,"x_min":43,"x_max":338,"o":"m 307 685 l 307 685 q 317 686 313 685 q 331 721 338 699 l 240 926 q 219 942 233 939 q 196 932 206 943 l 56 757 q 60 719 43 736 q 96 724 79 707 l 210 867 l 283 700 q 307 685 292 685 z "},"_":{"ha":819,"x_min":50,"x_max":704,"o":"m 679 -22 l 679 -22 q 704 4 700 -22 q 679 29 704 25 l 76 29 q 50 4 54 29 q 76 -22 50 -18 l 679 -22 z "},"`":{"ha":263,"x_min":43,"x_max":219,"o":"m 186 1149 l 186 1149 q 206 1158 197 1149 q 203 1194 219 1176 l 93 1292 q 57 1290 74 1306 q 58 1254 43 1271 l 169 1156 q 186 1149 178 1149 z "},"a":{"ha":575,"x_min":-92,"x_max":624,"o":"m -7 -90 l -7 -90 q 63 -50 18 -94 q 183 133 107 -6 q 231 225 208 181 q 290 -36 217 -19 q 351 -27 314 -46 q 450 67 388 -8 q 613 304 513 143 q 604 340 624 325 q 569 332 583 350 q 388 72 457 151 q 325 17 343 25 q 307 13 307 10 q 297 26 306 11 q 282 99 288 42 q 293 361 275 188 q 274 388 293 382 q 243 374 253 392 q 213 306 242 369 q 139 160 183 242 q 54 22 86 64 q 8 -30 22 -21 q -8 -39 -7 -39 q -8 -39 -8 -39 q -19 -21 -14 -37 q 6 219 -37 63 q 132 458 50 375 q 221 490 179 499 q 267 464 247 483 q 298 426 288 444 q 310 407 308 408 q 343 394 321 386 q 356 428 364 406 q 347 445 356 431 q 323 479 339 460 q 284 516 307 499 q 232 540 261 533 q 99 497 165 554 q -42 237 8 407 q -68 -35 -92 67 q -14 -89 -46 -92 q -7 -90 -11 -90 z "},"b":{"ha":701,"x_min":-12,"x_max":749,"o":"m 731 328 l 731 328 q 739 293 749 314 q 547 114 667 185 q 311 -6 428 43 q 308 -7 310 -7 q 227 -122 269 -75 q 147 -175 185 -168 q 140 -175 143 -175 q 94 -149 113 -175 q 85 -96 76 -117 q 145 -31 96 -61 q 272 33 194 -1 q 349 189 313 103 q 394 345 389 294 q 389 404 399 396 q 361 408 385 417 q 168 168 282 369 q 64 -94 61 -35 q 64 -100 64 -97 q 100 -279 79 -244 q 93 -314 111 -300 q 78 -319 86 -319 q 57 -307 65 -319 q 10 -91 25 -251 q -8 233 -4 69 q -11 460 -11 396 q 3 953 -12 703 q 56 1326 18 1204 q 103 1390 74 1382 q 135 1375 125 1396 q 119 1342 140 1353 q 109 1324 118 1342 q 88 1251 100 1306 q 65 1086 76 1196 q 40 554 44 867 q 51 49 39 268 q 122 193 83 121 q 214 336 153 250 q 340 456 275 422 q 429 438 394 478 q 442 320 458 397 q 396 169 426 243 q 349 68 376 122 q 544 174 450 113 q 694 319 639 235 q 731 328 708 339 m 142 -124 l 142 -124 q 219 -49 169 -118 q 133 -110 146 -83 q 136 -121 132 -112 q 142 -124 140 -125 z "},"c":{"ha":442,"x_min":-18,"x_max":488,"o":"m 94 -226 l 94 -226 q 142 -208 113 -226 q 217 -133 171 -190 q 335 39 264 -76 q 435 215 394 138 q 479 296 476 292 q 468 331 488 318 q 433 319 446 340 q 390 240 431 315 q 290 65 350 164 q 181 -97 222 -44 q 119 -162 140 -149 q 94 -175 99 -176 q 58 -66 78 -164 q 38 207 39 32 q 64 494 39 393 q 119 611 89 596 q 131 611 125 614 q 187 533 160 594 q 231 411 214 471 q 261 393 238 389 q 279 425 283 401 q 239 542 272 458 q 151 658 206 626 q 96 657 124 671 q 7 472 32 615 q -14 163 -18 328 q 13 -104 -10 -1 q 92 -226 39 -226 q 94 -226 93 -226 z "},"d":{"ha":460,"x_min":-81,"x_max":426,"o":"m 386 -710 l 386 -710 q 406 -704 396 -710 q 418 -669 426 -692 q 386 -657 407 -651 q 371 -633 382 -654 q 344 -553 360 -611 q 311 -385 329 -494 q 256 215 275 -139 q 247 388 250 300 q 390 1072 351 739 q 397 1306 407 1219 q 384 1373 397 1331 q 331 1425 371 1415 q 297 1417 315 1428 q 260 1374 278 1407 q 198 986 211 1261 q 194 413 185 711 q 83 429 151 453 q -39 268 3 385 q -68 64 -81 151 q -34 -6 -57 11 q 8 -24 -11 -24 q 135 94 69 -31 q 201 250 168 157 q 253 -340 219 -89 q 293 -561 274 -487 q 328 -661 313 -635 q 350 -693 343 -687 q 386 -710 367 -710 m 126 386 l 126 386 q 160 375 146 386 q 182 351 175 364 q 108 154 142 225 q 49 56 74 83 q 14 28 25 28 q 13 28 13 28 q -17 72 -10 29 q 9 250 -28 151 q 104 382 46 349 q 126 386 115 386 m 324 1374 l 324 1374 q 324 1374 324 1374 q 338 1349 329 1374 q 349 1261 346 1325 q 339 1078 351 1197 q 243 564 313 839 q 251 1009 239 806 q 293 1318 263 1213 q 313 1363 304 1351 q 324 1374 322 1374 z "},"e":{"ha":413,"x_min":-51,"x_max":461,"o":"m 79 -86 l 79 -86 q 313 99 171 -86 q 382 196 351 150 q 431 272 413 242 q 451 306 450 301 q 442 340 461 326 q 407 331 421 350 q 367 266 406 326 q 272 131 329 206 q 129 -15 178 11 q 68 -32 81 -42 q 8 88 11 -8 q 35 299 4 185 q 63 383 47 344 q 133 397 86 372 q 212 472 175 422 q 244 567 249 521 q 196 614 238 604 q 106 571 147 622 q 33 445 64 519 q -15 311 1 371 q -42 69 -51 183 q 51 -81 -33 -46 q 79 -86 65 -86 m 182 564 l 182 564 q 185 564 183 564 q 194 558 196 561 q 108 442 190 503 q 82 432 92 432 q 139 530 111 496 q 182 564 167 564 z "},"f":{"ha":253,"x_min":-167,"x_max":208,"o":"m 181 524 l 181 524 q 208 500 204 524 q 183 472 207 476 l 82 467 q 40 324 63 393 q 67 -714 49 -265 q 75 -968 72 -883 q 50 -994 74 -992 q 49 -994 50 -994 q 24 -969 28 -994 q 15 -717 21 -885 q -12 442 -6 -208 q -12 461 -12 451 l -139 454 q -142 454 -140 454 q -167 478 -161 454 q -143 506 -165 501 l -12 513 q -1 963 -12 793 q 24 1169 10 1114 q 54 1235 39 1225 q 95 1253 78 1254 q 119 1246 113 1251 q 163 1113 158 1214 q 158 903 168 1011 q 94 519 140 713 l 181 524 m 50 960 l 50 960 q 39 515 40 792 l 40 515 q 107 903 88 710 q 112 1122 119 1054 q 94 1200 104 1190 q 89 1196 92 1199 q 81 1178 88 1196 q 65 1110 74 1161 q 50 960 57 1060 z "},"g":{"ha":553,"x_min":-274,"x_max":601,"o":"m -87 -1757 l -87 -1757 q -67 -1756 -76 -1757 q 163 -1374 78 -1722 q 258 -657 228 -1106 q 282 -76 279 -340 q 432 117 364 36 q 542 244 500 199 q 586 290 583 289 q 586 326 601 308 q 549 326 568 342 q 512 287 547 325 q 417 178 476 249 q 283 13 357 108 q 284 257 285 165 q 283 353 283 349 q 264 376 282 371 q 235 364 244 381 q 201 304 233 361 q 121 172 168 247 q 40 53 71 94 q -8 -3 8 13 q -29 -19 -24 -18 q -35 10 -33 -15 q -29 85 -37 35 q 56 347 -7 218 q 190 511 119 476 q 253 511 225 525 q 304 460 286 493 q 326 410 322 426 q 360 394 336 389 q 376 426 381 403 q 344 492 368 451 q 275 558 321 533 q 171 560 226 581 q 37 420 97 525 q -57 196 -24 315 q -86 3 -90 76 q -68 -53 -82 -37 q -39 -71 -54 -69 q 22 -47 -21 -82 q 157 133 64 -11 q 233 257 200 201 q 232 -60 235 144 q 46 -345 139 -187 q -124 -681 -47 -503 q -274 -1342 -272 -1039 q -179 -1707 -272 -1592 q -87 -1757 -135 -1757 m 229 -151 l 229 -151 q 207 -654 225 -386 q 124 -1309 175 -1083 q 18 -1618 72 -1535 q -78 -1706 -36 -1701 q -114 -1697 -97 -1708 q -139 -1674 -131 -1686 q -222 -1342 -219 -1572 q -194 -1080 -224 -1242 q -76 -700 -164 -918 q 229 -151 60 -389 z "},"h":{"ha":651,"x_min":-11,"x_max":699,"o":"m 63 -199 l 63 -199 q 69 -197 65 -199 q 89 -176 86 -193 q 101 -85 89 -171 q 138 115 114 0 q 188 315 165 247 q 226 408 210 383 q 247 435 242 433 q 250 436 250 436 q 285 308 271 399 q 326 143 299 219 q 414 51 353 67 q 599 171 490 39 q 662 256 638 219 q 689 297 686 293 q 679 333 699 319 q 644 324 658 343 q 533 174 597 246 q 422 103 468 101 q 367 180 388 113 q 336 318 347 247 q 310 431 324 388 q 268 485 296 474 q 221 479 244 493 q 163 399 197 471 q 86 125 129 328 q 58 -33 69 39 q 46 140 50 29 q 46 700 35 385 q 83 1249 57 1022 q 112 1418 99 1361 q 134 1494 125 1475 q 146 1514 143 1513 q 160 1546 165 1524 q 128 1561 150 1567 q 78 1492 99 1553 q 17 1105 39 1364 q -8 597 -4 846 q -11 365 -11 532 q 0 33 -11 197 q 42 -186 11 -131 q 63 -199 50 -199 m 250 436 l 250 436 l 250 436 l 250 436 m 146 1514 l 146 1514 l 146 1514 l 146 1514 z "},"i":{"ha":375,"x_min":-17,"x_max":422,"o":"m 403 346 l 403 346 q 413 310 422 332 q 347 205 400 288 q 226 41 294 122 q 96 -60 157 -40 q 76 -62 86 -62 q 39 -50 56 -62 q 0 24 17 -42 q -11 275 -17 90 q 0 459 -7 381 q 7 542 7 538 q 36 565 13 565 q 58 536 58 560 q 51 454 57 532 q 40 274 44 376 q 43 90 38 150 q 57 10 49 29 q 67 -8 65 -8 q 83 -10 71 -11 q 226 122 143 11 q 368 336 310 233 q 403 346 381 356 m 53 704 l 53 704 q 21 736 26 704 q 53 768 21 763 q 85 736 81 768 q 53 704 85 710 z "},"j":{"ha":303,"x_min":-492,"x_max":347,"o":"m 333 331 l 333 331 q 331 294 347 311 q 290 258 328 293 q 190 157 253 222 q 53 1 128 92 q 53 -31 53 -14 q 34 -489 49 -232 q -15 -986 19 -746 q -279 -1557 -96 -1515 q -300 -1558 -289 -1558 q -385 -1512 -346 -1558 q -465 -1313 -437 -1451 q -469 -980 -492 -1175 q -351 -553 -446 -785 q -187 -240 -281 -385 q 1 21 -93 -94 q -4 271 3 157 q -19 454 -11 385 q -26 526 -26 524 q -4 556 -28 550 q 24 533 19 557 q 31 469 25 531 q 44 307 38 408 q 53 82 51 206 q 176 215 121 160 q 263 301 231 271 q 297 333 296 332 q 333 331 317 347 m -67 -979 l -67 -979 q -19 -507 -33 -751 q 0 -64 -4 -262 q -304 -572 -174 -279 q -417 -978 -394 -793 q -416 -1294 -439 -1164 q -346 -1479 -393 -1424 q -292 -1507 -325 -1508 q -177 -1390 -239 -1501 q -67 -979 -115 -1278 m -35 722 l -35 722 q -67 756 -61 722 q -35 788 -67 782 q -1 756 -7 788 q -35 722 -1 728 z "},"k":{"ha":625,"x_min":-33,"x_max":669,"o":"m 651 335 l 651 335 q 660 300 669 321 q 639 267 658 296 q 585 195 619 238 q 503 108 551 153 q 397 28 456 64 q 271 -24 339 -8 q 197 -32 233 -32 q 28 14 111 -32 q 26 4 26 8 q 26 3 26 4 q 19 -425 18 -237 q 28 -627 22 -556 q 39 -728 33 -699 q 49 -761 44 -757 q 65 -783 64 -768 q 42 -811 65 -807 q 39 -811 40 -811 q 22 -807 32 -811 q 4 -787 13 -803 q -32 -341 -33 -697 q -3 432 -31 15 q 30 839 6 572 q 96 1353 54 1106 q 196 1688 138 1601 q 258 1714 233 1726 q 304 1661 290 1706 q 295 1327 331 1553 q 217 922 260 1101 q 120 538 171 719 q 40 304 69 357 q 39 281 40 293 q 33 164 36 222 q 83 267 57 217 q 172 418 118 333 q 279 544 225 503 q 346 561 315 571 q 385 515 379 550 q 368 445 392 504 q 225 238 344 386 q 57 57 128 124 q 260 26 156 3 q 374 74 321 40 q 472 151 428 108 q 549 233 517 193 q 598 298 581 272 q 615 326 615 324 q 651 335 629 344 m 310 503 l 310 503 q 197 363 257 463 q 89 161 136 263 q 197 286 139 215 q 298 424 269 375 q 331 492 326 474 q 332 511 335 511 q 331 513 332 511 q 329 513 331 513 q 310 503 325 513 m 203 1585 l 203 1585 q 113 1123 151 1425 q 53 488 75 821 q 168 940 104 661 q 256 1649 293 1506 q 246 1664 249 1664 q 232 1650 243 1665 q 203 1585 221 1635 z "},"l":{"ha":217,"x_min":-15,"x_max":294,"o":"m 119 -929 l 119 -929 q 139 -919 131 -929 q 136 -883 153 -900 q 119 -852 132 -882 q 92 -736 107 -822 q 63 -478 76 -650 q 42 349 36 -128 q 42 410 42 379 q 43 411 42 411 q 113 697 58 474 q 219 1185 167 921 q 283 1596 271 1457 q 279 1785 294 1735 q 235 1839 264 1835 q 192 1834 217 1844 q 143 1779 168 1824 q 30 1193 67 1613 q -10 350 -7 774 q 11 -482 -15 -129 q 44 -765 26 -672 q 78 -887 63 -857 q 103 -922 94 -918 q 119 -929 111 -929 m 219 1789 l 219 1789 q 221 1789 221 1789 q 233 1755 225 1792 q 231 1596 240 1718 q 165 1176 217 1439 q 47 647 106 879 q 188 1756 81 1521 q 219 1789 206 1789 z "},"m":{"ha":681,"x_min":-24,"x_max":582,"o":"m 554 -256 l 554 -256 q 579 -235 572 -256 q 560 -204 582 -211 q 547 -195 556 -204 q 529 -153 539 -186 q 511 -50 519 -119 q 503 274 500 103 q 500 474 504 414 q 478 549 496 535 q 453 557 467 558 q 406 526 436 558 q 318 392 375 494 q 297 350 307 371 q 299 508 299 422 q 290 725 297 654 q 272 819 282 796 q 254 847 261 843 q 224 860 240 860 q 147 756 181 860 q 94 549 122 682 q 38 233 63 393 q 49 526 43 392 q 24 553 47 550 q -3 528 0 551 q -14 218 -6 488 q -19 4 -18 82 q -19 -68 -19 -43 q 3 -121 -24 -111 q 33 -106 24 -124 q 42 -69 36 -101 q 63 54 47 -36 q 140 518 92 261 q 177 677 161 618 q 205 765 193 736 q 222 801 217 793 q 238 723 229 788 q 247 508 246 658 q 244 318 247 399 q 242 232 242 238 q 261 206 242 213 q 290 221 281 203 q 311 265 292 224 q 360 361 331 306 q 415 453 393 422 q 446 494 436 485 q 451 274 454 414 q 465 -96 449 47 q 550 -254 482 -239 q 554 -256 553 -256 m 33 -87 l 33 -87 l 33 -87 l 33 -87 m 460 506 l 460 506 q 460 506 460 506 q 460 506 460 506 z "},"n":{"ha":622,"x_min":-10,"x_max":667,"o":"m 17 -142 l 17 -142 q 42 -119 35 -142 q 102 217 61 38 q 194 446 143 396 q 204 451 200 451 q 215 443 206 451 q 236 401 224 435 q 271 269 254 346 q 312 119 289 185 q 376 35 335 54 q 563 156 447 6 q 628 251 603 208 q 657 297 654 293 q 647 332 667 318 q 613 322 626 342 q 585 278 611 319 q 522 186 560 238 q 440 99 471 122 q 396 82 408 76 q 353 157 371 96 q 321 281 335 218 q 279 431 303 368 q 211 501 256 493 q 163 488 193 507 q 117 426 150 483 q 42 185 85 368 l 42 549 q 17 575 42 571 q -10 549 -6 575 l -10 -115 q 14 -142 -10 -136 q 17 -142 15 -142 z "},"o":{"ha":438,"x_min":-37,"x_max":478,"o":"m 72 -82 l 72 -82 q 106 -72 88 -82 q 144 -31 125 -62 q 200 214 193 64 q 213 213 207 213 q 303 215 260 206 q 381 241 346 225 q 438 271 417 257 q 461 288 458 285 q 465 322 478 303 q 429 328 450 340 q 411 315 429 326 q 363 290 393 304 q 296 267 333 275 q 219 263 258 258 q 201 267 211 264 q 168 435 200 378 q 99 481 129 489 q 46 440 64 478 q 36 396 38 422 q 17 381 26 392 q -29 198 -21 328 q -3 -22 -37 68 q 34 -70 14 -57 q 71 -82 54 -83 q 72 -82 71 -82 m 49 335 l 49 335 q 67 303 56 318 q 150 232 103 254 q 100 -6 144 83 q 72 -31 85 -31 q 49 -12 58 -29 q 38 18 40 6 q 24 218 14 99 q 49 335 33 308 m 103 429 l 103 429 q 110 425 104 429 q 125 407 117 421 q 150 292 146 369 q 108 333 126 308 q 93 419 76 385 q 101 429 99 429 q 103 429 101 429 z "},"p":{"ha":454,"x_min":-121,"x_max":383,"o":"m 31 -11 l 31 -11 q 31 -37 31 -24 q 44 -588 28 -356 q 89 -871 61 -821 q 82 -907 100 -892 q 68 -911 75 -911 q 46 -900 56 -911 q 1 -683 15 -843 q -18 -359 -14 -522 q -22 -132 -22 -196 q -21 -35 -22 -85 q -82 -58 -50 -47 q -90 -60 -86 -60 q -115 -43 -107 -60 q -100 -10 -121 -21 q -21 22 -58 4 q -1 436 -17 238 q 44 733 14 635 q 92 799 63 789 q 125 782 115 804 q 110 750 131 760 q 99 731 107 750 q 78 658 90 713 q 56 494 67 603 q 39 261 44 392 q 128 444 76 356 q 233 568 179 532 q 299 579 267 588 q 378 442 371 553 q 303 214 383 338 q 31 -11 224 90 m 32 88 l 32 88 q 32 49 32 68 q 240 215 164 119 q 326 440 328 329 q 285 529 321 514 q 258 524 281 533 q 121 321 189 471 q 32 88 53 171 z "},"q":{"ha":617,"x_min":-50,"x_max":664,"o":"m 213 -1008 l 213 -1008 q 238 -985 232 -1008 q 252 -881 238 -979 q 297 -628 267 -783 q 374 -298 326 -474 q 491 39 422 -122 q 650 311 560 200 q 647 347 664 331 q 611 344 628 361 q 279 -460 413 108 q 261 -542 269 -501 l 311 415 q 292 440 311 435 q 263 428 272 444 q 231 368 261 424 q 158 239 201 313 q 83 119 113 160 q 39 64 54 79 q 18 47 24 49 q 10 69 15 50 q 7 133 6 88 q 61 392 17 261 q 151 551 106 522 q 192 553 174 561 q 244 485 226 538 q 276 468 254 463 q 293 500 299 478 q 213 600 267 575 q 129 597 172 617 q 38 471 79 568 q -27 261 -4 374 q -43 75 -50 149 q 8 -4 -35 6 q 68 21 28 -14 q 196 200 108 56 q 254 301 228 254 l 186 -981 q 210 -1008 188 -1004 q 213 -1008 211 -1008 z "},"r":{"ha":429,"x_min":-12,"x_max":401,"o":"m 21 -112 l 21 -112 q 46 -92 39 -112 q 106 163 61 8 q 219 443 150 318 q 376 576 288 568 q 401 603 400 579 q 375 628 399 626 q 85 265 208 625 q 43 129 61 194 l 39 454 q 14 479 35 479 q 13 479 13 479 q -12 453 -11 476 l -6 -87 q 18 -112 -3 -110 q 21 -112 19 -112 z "},"s":{"ha":390,"x_min":-94,"x_max":442,"o":"m 122 -579 l 122 -579 q 201 -526 169 -578 q 240 -250 265 -406 q 151 69 215 -94 q 274 186 213 135 q 378 267 336 238 q 424 299 421 297 q 431 335 442 314 q 394 342 415 353 q 349 310 389 339 q 250 233 308 281 q 131 124 192 185 q 97 208 114 167 q -11 524 21 388 q -9 647 -26 610 q 32 694 8 683 q 89 701 58 710 q 167 644 132 686 q 215 576 203 601 q 250 565 228 556 q 261 600 269 578 q 247 622 260 603 q 214 668 235 642 q 165 717 193 694 q 103 751 136 740 q 6 739 51 765 q -61 515 -94 682 q 49 189 -29 371 q 92 82 71 136 q -36 -119 3 -15 q -39 -403 -82 -262 q 82 -569 3 -531 q 122 -579 103 -579 m 113 26 l 113 26 q 190 -260 169 -122 q 157 -501 211 -399 q 128 -526 142 -524 q 103 -522 115 -529 q 10 -388 49 -496 q 13 -136 -28 -281 q 113 26 43 -53 z "},"t":{"ha":393,"x_min":-375,"x_max":835,"o":"m 808 1008 l 808 1008 q 835 983 832 1007 q 810 957 833 960 l 64 918 q 47 467 54 708 q 50 -147 39 83 q 64 -328 56 -265 q 81 -417 72 -392 q 94 -446 90 -442 q 120 -414 100 -443 q 176 -302 140 -385 q 265 -60 211 -219 q 348 199 315 88 q 382 317 381 310 q 414 335 390 339 q 431 303 435 326 q 394 178 429 296 q 310 -92 360 61 q 204 -364 250 -265 q 93 -499 142 -503 q 90 -499 92 -499 q 34 -437 57 -501 q 0 -187 11 -374 q -4 436 -14 40 q 13 915 1 692 l -349 894 q -349 894 -349 894 q -375 919 -369 894 q -350 946 -374 943 l 14 967 q 28 1232 22 1131 q 33 1338 33 1333 q 61 1361 38 1361 q 85 1335 85 1358 q 79 1231 85 1331 q 65 969 74 1131 l 808 1008 z "},"u":{"ha":408,"x_min":-36,"x_max":328,"o":"m 296 -243 l 296 -243 q 318 -229 310 -243 q 310 -194 328 -208 q 299 -171 307 -194 q 282 -72 290 -147 q 274 154 274 3 q 277 377 274 282 q 282 478 281 472 q 260 506 281 500 q 231 486 238 507 q 210 407 231 481 q 157 236 190 333 q 95 81 121 132 q 53 13 69 29 q 32 -3 38 -3 q 25 15 29 -1 q 19 70 21 31 q 24 182 18 110 q 38 300 31 250 q 46 354 46 350 q 25 383 49 378 q -4 363 1 385 q -13 309 -6 358 q -26 192 -21 260 q -27 20 -36 68 q -6 -39 -18 -28 q 33 -54 11 -56 q 103 -6 61 -58 q 207 219 146 46 q 222 269 215 244 q 222 147 221 211 q 232 -92 222 -1 q 256 -203 242 -172 q 283 -239 269 -233 q 296 -243 290 -243 m 308 -194 l 308 -194 q 310 -194 308 -194 q 308 -194 308 -194 m 33 -4 l 33 -4 l 33 -4 l 33 -4 z "},"v":{"ha":392,"x_min":-14,"x_max":325,"o":"m 88 -253 l 88 -253 q 114 -243 100 -253 q 203 -33 161 -189 q 258 188 246 124 q 301 428 276 267 q 304 676 325 589 q 272 693 294 699 q 256 661 250 683 q 207 194 282 550 q 141 -62 172 35 q 90 -190 110 -158 q 70 -85 82 -171 q 49 193 58 0 q 40 443 42 336 q 38 557 38 550 q 11 582 35 579 q -14 556 -12 579 q -12 437 -14 549 q -3 178 -10 325 q 19 -92 7 10 q 43 -209 31 -176 q 71 -249 56 -242 q 88 -253 79 -253 z "},"w":{"ha":590,"x_min":-19,"x_max":489,"o":"m 56 -265 l 56 -265 q 57 -265 56 -265 q 121 -215 86 -269 q 197 21 156 -160 q 210 78 204 50 q 335 -143 242 -140 q 436 -31 396 -147 q 488 347 483 122 q 476 520 489 435 q 421 639 463 606 q 386 632 401 650 q 392 596 374 611 q 436 347 431 574 q 386 -14 433 131 q 358 -76 371 -60 q 338 -92 344 -93 q 260 92 286 -83 q 247 228 249 169 q 244 290 244 288 q 221 317 243 313 q 194 294 199 317 q 181 213 193 289 q 147 35 169 136 q 94 -153 117 -101 q 60 -211 71 -206 q 41 -103 50 -189 q 33 136 32 -18 q 46 381 36 292 q 67 490 56 471 q 79 514 79 499 q 54 539 79 535 q 40 535 49 539 q 22 518 31 532 q -7 365 3 476 q -18 142 -17 254 q -13 -65 -19 60 q 19 -243 -7 -189 q 39 -261 29 -257 q 56 -265 49 -265 z "},"x":{"ha":592,"x_min":-75,"x_max":633,"o":"m 614 333 l 614 333 q 624 299 633 321 q 584 230 621 293 q 490 85 547 167 q 235 -135 335 -135 q 233 -135 235 -135 q 93 -18 154 -135 q -19 -310 -15 -214 q -44 -336 -21 -333 q -44 -336 -44 -336 q -71 -311 -65 -336 q 67 40 -75 -214 q 28 161 46 93 q -3 294 8 232 q -19 396 -14 356 q -25 440 -25 436 q -3 469 -26 464 q 26 446 21 469 q 100 99 43 275 q 151 188 124 142 q 305 428 238 329 q 376 533 372 528 q 413 540 392 551 q 418 504 431 525 q 124 38 294 331 q 235 -83 171 -76 q 235 -83 235 -83 q 344 -15 279 -83 q 472 148 408 54 q 579 324 535 242 q 614 333 592 343 z "},"y":{"ha":613,"x_min":-236,"x_max":661,"o":"m -29 -1710 l -29 -1710 q -11 -1708 -21 -1710 q 235 -1294 143 -1674 q 338 -515 304 -1003 q 361 -7 356 -247 q 501 156 438 88 q 604 263 565 225 q 644 301 643 300 q 647 338 661 319 q 610 339 629 354 q 576 306 608 338 q 488 215 543 274 q 363 76 432 157 q 365 440 367 300 q 364 586 364 579 q 342 611 361 606 q 314 594 322 613 q 282 513 313 589 q 207 338 251 438 q 124 170 157 226 q 76 95 92 114 q 56 75 60 76 q 36 117 44 79 q 32 244 28 156 q 46 367 38 314 q 54 422 54 419 q 35 453 57 446 q 4 432 11 454 q -6 373 3 426 q -18 249 -14 319 q 44 25 -33 42 q 150 111 89 11 q 246 300 192 179 q 314 456 285 383 q 310 13 315 293 q 115 -252 213 -106 q -58 -562 18 -399 q -205 -1046 -174 -824 q -208 -1427 -236 -1268 q -118 -1660 -179 -1586 q -29 -1710 -75 -1710 m 307 -74 l 307 -74 q 286 -511 301 -283 q 197 -1226 253 -981 q 82 -1562 142 -1472 q -24 -1658 22 -1653 q -55 -1650 -40 -1661 q -78 -1626 -69 -1639 q -140 -1494 -112 -1587 q -169 -1256 -168 -1400 q -140 -974 -172 -1144 q -11 -585 -108 -803 q 307 -74 128 -294 m 57 75 l 57 75 l 57 75 l 57 75 z "},"z":{"ha":590,"x_min":-224,"x_max":639,"o":"m -64 -1274 l -64 -1274 q 53 -1214 -6 -1274 q 308 -654 196 -1061 q 394 24 414 -254 q 388 72 393 50 q 506 192 453 142 q 590 271 558 243 q 622 300 621 299 q 626 336 639 317 q 589 340 608 353 q 558 313 588 339 q 480 239 529 286 q 368 126 431 192 q 308 181 346 165 q 163 165 238 203 q 233 267 197 213 q 347 488 333 424 q 339 572 361 553 q 220 610 293 622 q 85 566 147 599 q 6 522 22 533 q -1 488 -12 508 q 33 479 13 468 q 115 524 63 499 q 220 558 168 549 q 299 540 272 568 q 301 522 301 540 q 279 450 301 503 q 190 294 257 397 q 86 147 133 210 q 36 82 39 85 q 38 47 24 64 q 72 46 54 33 q 172 113 106 76 q 289 133 238 149 q 331 86 317 122 q 146 -133 239 -11 q -22 -389 53 -254 q -201 -897 -179 -689 q -167 -1200 -224 -1104 q -72 -1272 -129 -1268 q -64 -1274 -68 -1274 m 343 25 l 343 25 q 343 19 343 22 q 311 -410 357 -167 q 186 -867 265 -654 q 17 -1178 107 -1081 q -68 -1222 -31 -1224 q -122 -1175 -97 -1218 q -151 -912 -167 -1106 q 24 -414 -136 -719 q 343 25 167 -164 z "},"{":{"ha":590,"x_min":144,"x_max":540,"o":"m 357 -546 l 357 -546 q 432 -531 389 -546 q 447 -499 453 -521 q 414 -483 436 -476 q 328 -486 351 -506 q 303 -385 300 -460 q 318 -226 306 -311 q 333 -20 333 -118 q 286 138 333 78 q 244 169 268 157 q 303 317 283 219 q 339 535 324 414 q 371 742 351 642 q 424 909 390 843 q 515 979 457 975 q 540 1004 539 981 q 515 1031 536 1031 q 515 1031 515 1031 q 349 863 403 1029 q 288 542 307 719 q 247 301 272 410 q 169 183 221 192 q 144 158 146 181 q 171 132 149 132 q 249 103 222 132 q 283 -33 285 57 q 267 -221 281 -124 q 252 -408 251 -326 q 296 -526 253 -489 q 357 -546 321 -546 z "},"|":{"ha":333,"x_min":114,"x_max":190,"o":"m 142 -489 l 142 -489 q 167 -467 160 -489 q 181 -56 175 -385 q 188 589 186 272 q 190 954 190 906 q 165 979 189 976 q 165 979 165 979 q 139 954 144 979 q 137 608 139 925 q 130 -43 135 292 q 115 -460 125 -378 q 138 -489 114 -483 q 142 -489 139 -489 z "},"}":{"ha":490,"x_min":46,"x_max":382,"o":"m 167 -544 l 167 -544 q 253 -517 219 -544 q 303 -381 303 -471 q 286 -182 303 -290 q 272 64 263 -29 q 361 175 281 157 q 382 203 382 181 q 358 226 379 224 q 343 233 349 226 q 319 368 318 269 q 331 576 321 467 q 341 874 346 742 q 268 1053 336 1006 q 83 1019 201 1093 q 75 983 65 1004 q 111 975 90 965 q 179 1009 143 996 q 242 1008 215 1022 q 290 844 289 971 q 279 581 292 717 q 268 353 268 453 q 299 207 268 254 q 221 65 233 167 q 235 -189 211 -51 q 252 -364 250 -283 q 219 -478 254 -444 q 83 -479 182 -510 q 51 -496 60 -474 q 68 -528 46 -519 q 167 -544 124 -544 z "},"~":{"ha":856,"x_min":86,"x_max":747,"o":"m 119 215 l 119 215 q 138 225 129 215 q 220 295 164 256 q 326 322 276 335 q 392 288 356 311 q 488 236 433 258 q 606 227 543 214 q 735 321 668 240 q 731 357 747 340 q 694 353 711 369 q 549 274 617 263 q 418 331 482 286 q 343 371 379 357 q 236 363 289 388 q 146 303 183 338 q 100 258 108 269 q 101 222 86 239 q 119 215 110 215 z "},"":{"ha":436,"x_min":161,"x_max":306,"o":"m 185 -33 l 185 -33 q 161 -6 161 -29 l 236 944 q 261 968 242 968 q 264 968 263 968 q 288 940 286 964 l 213 -10 q 185 -33 208 -32 m 278 1124 l 278 1124 q 250 1151 254 1124 l 250 1151 q 278 1179 250 1175 q 306 1151 301 1179 l 306 1151 q 278 1124 306 1128 z "},"":{"ha":660,"x_min":103,"x_max":500,"o":"m 493 168 l 493 168 q 481 135 500 146 q 438 117 476 132 q 343 85 399 101 q 297 74 319 78 q 299 -36 297 7 q 306 -90 300 -79 q 294 -125 314 -112 q 282 -128 289 -128 q 260 -114 268 -128 q 253 -97 257 -111 q 248 -46 250 -83 q 246 65 246 -8 q 225 65 235 65 q 140 96 165 65 q 117 224 103 144 q 175 381 132 303 q 267 503 218 458 q 276 658 276 649 q 304 683 281 682 q 328 656 328 679 q 319 532 324 594 q 349 533 336 536 q 400 506 382 525 q 421 481 418 486 q 411 446 431 458 q 376 454 390 435 q 340 482 368 471 q 315 476 329 485 q 299 126 303 281 q 458 182 376 144 q 493 168 481 189 m 179 128 l 179 128 q 247 117 196 111 q 254 301 249 190 q 261 419 257 363 q 190 292 218 363 q 179 128 146 174 z "},"":{"ha":639,"x_min":49,"x_max":507,"o":"m 499 51 l 499 51 q 488 17 507 31 q 453 26 467 8 q 416 27 454 31 q 267 -22 378 24 q 153 -75 201 -51 q 94 -104 129 -97 q 89 -106 92 -106 q 65 -87 72 -106 q 76 -57 58 -68 q 122 -33 81 -54 q 160 190 161 15 q 163 283 161 235 q 81 269 121 278 q 75 269 78 269 q 50 292 57 269 q 71 321 49 315 q 167 336 81 322 q 178 451 169 392 q 228 607 196 560 q 293 664 261 654 q 392 647 346 682 q 426 554 435 608 q 397 533 421 532 q 376 564 374 540 q 358 607 379 589 q 311 615 347 622 q 270 577 296 613 q 229 444 244 542 q 218 343 222 392 q 352 356 322 357 q 385 351 382 356 q 394 317 404 338 q 363 306 383 299 q 215 292 332 307 q 211 189 213 238 q 194 1 211 76 q 258 29 225 15 q 499 51 468 119 z "},"":{"ha":317,"x_min":50,"x_max":267,"o":"m 78 1219 l 78 1219 q 106 1192 101 1219 l 106 1192 q 78 1164 106 1168 q 50 1192 54 1164 l 50 1192 q 78 1219 50 1215 m 239 1219 l 239 1219 q 267 1192 261 1219 l 267 1192 q 239 1164 267 1168 q 211 1192 215 1164 l 211 1192 q 239 1219 211 1215 z "},"":{"ha":774,"x_min":28,"x_max":656,"o":"m 589 411 l 589 411 q 597 135 656 250 q 479 13 551 51 q 326 -26 407 -26 q 207 -3 264 -26 q 71 131 111 40 q 72 363 28 232 q 196 523 111 467 q 372 601 281 579 q 307 632 340 622 q 290 664 285 642 q 322 682 299 686 q 439 615 382 664 q 514 625 481 622 q 568 628 547 628 q 593 629 589 629 q 618 603 617 626 q 593 578 614 578 q 592 578 592 578 q 561 577 590 578 q 486 571 532 576 q 589 411 549 501 m 551 158 l 551 158 q 540 392 599 253 q 425 560 497 490 q 247 494 333 543 q 121 346 160 444 q 119 149 82 224 q 226 44 157 74 q 404 36 311 10 q 551 158 497 63 m 439 232 l 439 232 q 472 218 461 239 q 460 185 481 196 q 433 174 457 183 q 374 153 408 164 q 299 140 329 140 q 239 163 257 140 q 237 301 203 217 q 321 431 271 386 q 376 449 354 456 q 413 429 400 443 q 428 413 426 415 q 418 376 438 390 q 383 386 397 367 q 368 399 379 394 q 354 392 361 399 q 288 290 314 354 q 278 196 261 225 q 439 232 308 179 z "},"":{"ha":678,"x_min":26,"x_max":649,"o":"m 513 804 l 513 804 q 615 628 581 733 q 597 411 649 522 q 422 263 539 300 q 329 249 376 249 q 210 272 267 249 q 76 397 125 306 q 72 638 26 489 q 354 853 133 810 q 264 856 303 871 q 231 868 242 847 q 243 903 222 890 q 444 864 335 938 q 537 864 500 867 q 576 860 574 861 q 599 831 600 854 q 569 810 593 808 q 551 811 568 810 q 504 814 533 813 q 513 804 508 808 m 551 435 l 551 435 q 565 617 594 526 q 475 769 535 707 q 429 811 453 793 q 251 765 340 806 q 121 621 161 724 q 120 424 82 499 q 229 319 158 349 q 406 311 314 285 q 551 435 499 338 m 439 478 l 439 478 q 471 465 458 483 q 461 431 481 444 q 440 426 451 426 q 403 435 424 426 q 357 457 382 443 q 318 475 339 467 q 322 383 318 403 q 306 351 326 360 q 297 350 301 350 q 272 368 281 350 q 267 472 267 396 q 264 475 265 474 q 251 506 247 486 q 268 529 254 521 q 268 543 268 538 q 269 601 268 576 q 261 603 265 601 q 242 633 239 610 q 274 679 247 654 q 290 722 279 722 q 324 718 308 732 q 326 715 325 717 q 346 724 336 721 q 413 713 399 733 q 429 661 429 701 q 351 517 419 589 q 379 503 364 511 q 439 478 415 485 m 367 676 l 367 676 q 324 653 344 671 q 319 558 321 614 q 378 675 386 643 q 367 676 372 678 z "},"":{"ha":289,"x_min":42,"x_max":250,"o":"m 129 1113 l 129 1113 q 201 1146 167 1113 q 235 1258 250 1199 q 175 1315 221 1303 q 81 1285 121 1326 q 54 1168 42 1239 q 110 1115 67 1128 q 129 1113 119 1113 m 154 1267 l 154 1267 q 164 1265 158 1267 q 186 1244 178 1264 q 164 1182 193 1214 q 124 1165 142 1161 q 103 1183 107 1168 q 119 1250 99 1225 l 119 1250 q 154 1267 135 1267 m 100 1268 l 100 1268 l 100 1268 l 100 1268 z "},"":{"ha":263,"x_min":43,"x_max":219,"o":"m 76 1121 l 76 1121 q 93 1128 85 1121 l 203 1225 q 206 1261 219 1243 q 169 1264 189 1278 l 58 1165 q 57 1129 43 1149 q 76 1121 65 1121 z "},"":{"ha":303,"x_min":47,"x_max":256,"o":"m 76 -668 l 76 -668 q 82 -668 79 -668 q 171 -619 108 -660 q 253 -512 256 -562 q 232 -472 251 -489 q 176 -454 208 -457 q 115 -454 143 -451 l 119 -382 q 94 -356 118 -358 q 68 -379 71 -357 l 63 -483 q 71 -504 63 -496 q 93 -510 81 -511 q 200 -512 161 -497 q 201 -515 201 -514 q 147 -573 196 -539 q 68 -618 97 -607 q 51 -649 47 -626 q 76 -668 58 -668 m 69 -618 l 69 -618 q 68 -618 69 -618 q 69 -618 69 -618 z "},"":{"ha":483,"x_min":26,"x_max":353,"o":"m 89 13 l 89 13 q 63 241 26 68 q 188 660 100 414 q 265 918 253 842 q 290 943 271 943 q 292 943 292 943 q 317 915 315 939 q 236 643 307 838 q 122 269 168 453 q 101 106 96 153 q 121 53 107 60 q 168 40 153 32 q 251 131 215 61 q 299 243 286 201 q 331 260 307 264 q 347 228 353 250 q 324 163 344 214 q 267 61 303 113 q 183 -8 232 10 q 89 13 147 -25 m 304 1076 l 304 1076 q 276 1104 281 1076 l 276 1104 q 304 1132 276 1126 q 332 1104 326 1132 l 332 1104 q 304 1076 332 1081 z "},"":{"ha":854,"x_min":-339,"x_max":781,"o":"m 760 347 l 760 347 q 774 314 781 336 q 740 299 763 292 q 660 318 706 314 q 647 -206 647 33 q 656 -455 647 -367 q 677 -580 665 -543 q 699 -622 689 -617 q 703 -658 715 -639 q 682 -668 693 -668 q 667 -661 674 -668 q 618 -554 639 -647 q 596 -206 597 -461 q 608 322 596 35 q 300 282 460 321 q 167 -221 231 -10 q 41 -547 104 -432 q -92 -661 -22 -661 q -93 -661 -92 -661 q -226 -518 -167 -660 q -337 -97 -285 -381 q -317 -68 -339 -75 q -286 -89 -293 -65 q -204 -432 -243 -319 q -136 -578 -165 -544 q -92 -610 -107 -612 q -90 -610 -92 -610 q -47 -583 -75 -610 q 22 -470 -19 -556 q 115 -217 63 -385 q 244 268 182 1 q 75 219 142 242 q 4 196 8 197 q -4 194 0 194 q -29 211 -21 194 q -14 244 -35 233 q 29 258 -8 246 q 126 289 67 271 q 258 325 185 307 q 331 638 294 481 q 478 1242 410 992 q 560 1469 526 1410 q 624 1526 594 1528 q 656 1515 642 1528 q 685 1433 675 1501 q 696 1192 696 1364 q 672 585 692 935 q 663 369 668 476 q 760 347 717 364 m 643 1189 l 643 1189 q 641 1349 644 1290 q 633 1435 638 1407 q 624 1471 628 1463 q 610 1451 619 1467 q 588 1406 600 1436 q 525 1215 560 1340 q 381 626 457 969 q 314 338 346 475 q 611 372 467 372 q 621 588 617 479 q 643 1189 639 933 m 608 1696 l 608 1696 q 628 1706 619 1696 q 625 1742 642 1724 l 515 1839 q 479 1838 496 1853 q 481 1801 465 1818 l 592 1703 q 608 1696 600 1696 z "},"":{"ha":854,"x_min":-339,"x_max":781,"o":"m 760 347 l 760 347 q 774 314 781 336 q 740 299 763 292 q 660 318 706 314 q 647 -206 647 33 q 656 -455 647 -367 q 677 -580 665 -543 q 699 -622 689 -617 q 703 -658 715 -639 q 682 -668 693 -668 q 667 -661 674 -668 q 618 -554 639 -647 q 596 -206 597 -461 q 608 322 596 35 q 300 282 460 321 q 167 -221 231 -10 q 41 -547 104 -432 q -92 -661 -22 -661 q -93 -661 -92 -661 q -226 -518 -167 -660 q -337 -97 -285 -381 q -317 -68 -339 -75 q -286 -89 -293 -65 q -204 -432 -243 -319 q -136 -578 -165 -544 q -92 -610 -107 -612 q -90 -610 -92 -610 q -47 -583 -75 -610 q 22 -470 -19 -556 q 115 -217 63 -385 q 244 268 182 1 q 75 219 142 242 q 4 196 8 197 q -4 194 0 194 q -29 211 -21 194 q -14 244 -35 233 q 29 258 -8 246 q 126 289 67 271 q 258 325 185 307 q 331 638 294 481 q 478 1242 410 992 q 560 1469 526 1410 q 624 1526 594 1528 q 656 1515 642 1528 q 685 1433 675 1501 q 696 1192 696 1364 q 672 585 692 935 q 663 369 668 476 q 760 347 717 364 m 643 1189 l 643 1189 q 641 1349 644 1290 q 633 1435 638 1407 q 624 1471 628 1463 q 610 1451 619 1467 q 588 1406 600 1436 q 525 1215 560 1340 q 381 626 457 969 q 314 338 346 475 q 611 372 467 372 q 621 588 617 479 q 643 1189 639 933 m 613 1700 l 613 1700 q 629 1707 621 1700 l 739 1804 q 742 1840 756 1822 q 706 1843 725 1857 l 594 1744 q 593 1708 579 1728 q 613 1700 601 1700 z "},"":{"ha":854,"x_min":-339,"x_max":781,"o":"m 760 347 l 760 347 q 774 314 781 336 q 740 299 763 292 q 660 318 706 314 q 647 -206 647 33 q 656 -455 647 -367 q 677 -580 665 -543 q 699 -622 689 -617 q 703 -658 715 -639 q 682 -668 693 -668 q 667 -661 674 -668 q 618 -554 639 -647 q 596 -206 597 -461 q 608 322 596 35 q 300 282 460 321 q 167 -221 231 -10 q 41 -547 104 -432 q -92 -661 -22 -661 q -93 -661 -92 -661 q -226 -518 -167 -660 q -337 -97 -285 -381 q -317 -68 -339 -75 q -286 -89 -293 -65 q -204 -432 -243 -319 q -136 -578 -165 -544 q -92 -610 -107 -612 q -90 -610 -92 -610 q -47 -583 -75 -610 q 22 -470 -19 -556 q 115 -217 63 -385 q 244 268 182 1 q 75 219 142 242 q 4 196 8 197 q -4 194 0 194 q -29 211 -21 194 q -14 244 -35 233 q 29 258 -8 246 q 126 289 67 271 q 258 325 185 307 q 331 638 294 481 q 478 1242 410 992 q 560 1469 526 1410 q 624 1526 594 1528 q 656 1515 642 1528 q 685 1433 675 1501 q 696 1192 696 1364 q 672 585 692 935 q 663 369 668 476 q 760 347 717 364 m 643 1189 l 643 1189 q 641 1349 644 1290 q 633 1435 638 1407 q 624 1471 628 1463 q 610 1451 619 1467 q 588 1406 600 1436 q 525 1215 560 1340 q 381 626 457 969 q 314 338 346 475 q 611 372 467 372 q 621 588 617 479 q 643 1189 639 933 m 710 1708 l 710 1708 q 724 1713 717 1708 q 732 1749 743 1728 l 649 1876 q 631 1889 642 1886 q 610 1882 618 1890 l 476 1758 q 475 1722 461 1740 q 511 1721 493 1707 l 622 1824 l 689 1721 q 710 1708 697 1710 z "},"":{"ha":854,"x_min":-339,"x_max":788,"o":"m 760 347 l 760 347 q 774 314 781 336 q 740 299 763 292 q 660 318 706 314 q 647 -206 647 33 q 656 -455 647 -367 q 677 -580 665 -543 q 699 -622 689 -617 q 703 -658 715 -639 q 682 -668 693 -668 q 667 -661 674 -668 q 618 -554 639 -647 q 596 -206 597 -461 q 608 322 596 35 q 300 282 460 321 q 167 -221 231 -10 q 41 -547 104 -432 q -92 -661 -22 -661 q -93 -661 -92 -661 q -226 -518 -167 -660 q -337 -97 -285 -381 q -317 -68 -339 -75 q -286 -89 -293 -65 q -204 -432 -243 -319 q -136 -578 -165 -544 q -92 -610 -107 -612 q -90 -610 -92 -610 q -47 -583 -75 -610 q 22 -470 -19 -556 q 115 -217 63 -385 q 244 268 182 1 q 75 219 142 242 q 4 196 8 197 q -4 194 0 194 q -29 211 -21 194 q -14 244 -35 233 q 29 258 -8 246 q 126 289 67 271 q 258 325 185 307 q 331 638 294 481 q 478 1242 410 992 q 560 1469 526 1410 q 624 1526 594 1528 q 656 1515 642 1528 q 685 1433 675 1501 q 696 1192 696 1364 q 672 585 692 935 q 663 369 668 476 q 760 347 717 364 m 643 1189 l 643 1189 q 641 1349 644 1290 q 633 1435 638 1407 q 624 1471 628 1463 q 610 1451 619 1467 q 588 1406 600 1436 q 525 1215 560 1340 q 381 626 457 969 q 314 338 346 475 q 611 372 467 372 q 621 588 617 479 q 643 1189 639 933 m 693 1715 l 693 1715 q 707 1717 700 1715 q 774 1784 760 1733 q 786 1850 788 1835 q 761 1876 783 1874 q 735 1851 738 1875 q 725 1801 733 1829 q 697 1768 717 1774 q 640 1804 672 1769 q 601 1839 622 1824 q 553 1854 579 1854 q 476 1810 506 1847 q 440 1763 446 1774 q 451 1728 432 1740 q 486 1738 472 1718 q 515 1776 494 1754 q 556 1803 535 1799 q 606 1767 578 1797 q 645 1732 624 1749 q 693 1715 667 1715 z "},"":{"ha":854,"x_min":-339,"x_max":781,"o":"m 760 347 l 760 347 q 774 314 781 336 q 740 299 763 292 q 660 318 706 314 q 647 -206 647 33 q 656 -455 647 -367 q 677 -580 665 -543 q 699 -622 689 -617 q 703 -658 715 -639 q 682 -668 693 -668 q 667 -661 674 -668 q 618 -554 639 -647 q 596 -206 597 -461 q 608 322 596 35 q 300 282 460 321 q 167 -221 231 -10 q 41 -547 104 -432 q -92 -661 -22 -661 q -93 -661 -92 -661 q -226 -518 -167 -660 q -337 -97 -285 -381 q -317 -68 -339 -75 q -286 -89 -293 -65 q -204 -432 -243 -319 q -136 -578 -165 -544 q -92 -610 -107 -612 q -90 -610 -92 -610 q -47 -583 -75 -610 q 22 -470 -19 -556 q 115 -217 63 -385 q 244 268 182 1 q 75 219 142 242 q 4 196 8 197 q -4 194 0 194 q -29 211 -21 194 q -14 244 -35 233 q 29 258 -8 246 q 126 289 67 271 q 258 325 185 307 q 331 638 294 481 q 478 1242 410 992 q 560 1469 526 1410 q 624 1526 594 1528 q 656 1515 642 1528 q 685 1433 675 1501 q 696 1192 696 1364 q 672 585 692 935 q 663 369 668 476 q 760 347 717 364 m 643 1189 l 643 1189 q 641 1349 644 1290 q 633 1435 638 1407 q 624 1471 628 1463 q 610 1451 619 1467 q 588 1406 600 1436 q 525 1215 560 1340 q 381 626 457 969 q 314 338 346 475 q 611 372 467 372 q 621 588 617 479 q 643 1189 639 933 m 542 1781 l 542 1781 q 569 1753 565 1781 l 569 1753 q 542 1725 569 1729 q 514 1753 518 1725 l 514 1753 q 542 1781 514 1776 m 703 1781 l 703 1781 q 731 1753 725 1781 l 731 1753 q 703 1725 731 1729 q 675 1753 679 1725 l 675 1753 q 703 1781 675 1776 z "},"":{"ha":854,"x_min":-339,"x_max":781,"o":"m 760 347 l 760 347 q 774 314 781 336 q 740 299 763 292 q 660 318 706 314 q 647 -206 647 33 q 656 -455 647 -367 q 677 -580 665 -543 q 699 -622 689 -617 q 703 -658 715 -639 q 682 -668 693 -668 q 667 -661 674 -668 q 618 -554 639 -647 q 596 -206 597 -461 q 608 322 596 35 q 300 282 460 321 q 167 -221 231 -10 q 41 -547 104 -432 q -92 -661 -22 -661 q -93 -661 -92 -661 q -226 -518 -167 -660 q -337 -97 -285 -381 q -317 -68 -339 -75 q -286 -89 -293 -65 q -204 -432 -243 -319 q -136 -578 -165 -544 q -92 -610 -107 -612 q -90 -610 -92 -610 q -47 -583 -75 -610 q 22 -470 -19 -556 q 115 -217 63 -385 q 244 268 182 1 q 75 219 142 242 q 4 196 8 197 q -4 194 0 194 q -29 211 -21 194 q -14 244 -35 233 q 29 258 -8 246 q 126 289 67 271 q 258 325 185 307 q 331 638 294 481 q 478 1242 410 992 q 560 1469 526 1410 q 624 1526 594 1528 q 656 1515 642 1528 q 685 1433 675 1501 q 696 1192 696 1364 q 672 585 692 935 q 663 369 668 476 q 760 347 717 364 m 643 1189 l 643 1189 q 641 1349 644 1290 q 633 1435 638 1407 q 624 1471 628 1463 q 610 1451 619 1467 q 588 1406 600 1436 q 525 1215 560 1340 q 381 626 457 969 q 314 338 346 475 q 611 372 467 372 q 621 588 617 479 q 643 1189 639 933 m 614 1719 l 614 1719 q 686 1753 651 1719 q 719 1865 735 1806 q 660 1922 706 1910 q 565 1892 606 1933 q 539 1775 526 1846 q 594 1722 551 1735 q 614 1719 604 1719 m 639 1874 l 639 1874 q 649 1872 643 1874 q 671 1851 663 1871 q 649 1789 678 1821 q 608 1772 626 1768 q 588 1790 592 1775 q 604 1857 583 1832 l 604 1857 q 639 1874 619 1874 m 585 1875 l 585 1875 l 585 1875 l 585 1875 z "},"":{"ha":801,"x_min":36,"x_max":658,"o":"m 225 -671 l 225 -671 q 376 -550 296 -671 q 511 -294 439 -457 q 583 -118 551 -201 q 634 19 615 -35 q 653 76 653 74 q 636 108 658 99 q 604 92 614 114 q 585 36 603 89 q 535 -99 567 -17 q 464 -274 504 -182 q 342 -509 393 -435 q 263 -603 292 -583 q 222 -619 233 -622 q 151 -524 185 -619 q 104 -208 117 -429 q 192 838 88 290 q 317 1269 247 1111 q 461 1442 388 1428 q 507 1417 481 1450 q 539 967 575 1297 q 388 449 494 629 q 396 414 378 428 q 432 422 417 403 q 589 961 544 611 q 550 1444 629 1313 q 501 1488 526 1479 q 454 1492 475 1496 q 315 1376 375 1476 q 212 1133 256 1276 q 140 847 168 990 q 53 -210 36 294 q 219 -671 75 -661 q 225 -671 222 -671 m 206 -935 l 206 -935 q 211 -935 208 -935 q 300 -886 238 -926 q 382 -779 385 -829 q 361 -739 381 -756 q 305 -721 338 -724 q 244 -721 272 -718 l 249 -649 q 224 -622 247 -625 q 197 -646 200 -624 l 192 -750 q 200 -771 192 -762 q 222 -776 210 -778 q 329 -779 290 -764 q 331 -782 331 -781 q 276 -840 325 -806 q 197 -885 226 -874 q 181 -915 176 -893 q 206 -935 188 -935 m 199 -885 l 199 -885 q 197 -885 199 -885 q 199 -885 199 -885 z "},"":{"ha":797,"x_min":-93,"x_max":881,"o":"m 289 1271 l 289 1271 q 225 644 253 1053 q 210 350 215 492 q 310 376 258 363 q 530 430 458 415 q 624 444 601 444 q 650 442 646 444 q 665 408 671 431 q 633 393 656 388 q 556 382 617 394 q 404 347 494 369 q 208 296 314 325 q 249 -482 194 -236 q 287 -587 268 -558 q 317 -619 306 -617 q 397 -606 331 -631 q 611 -454 464 -581 q 760 -310 699 -375 q 825 -242 821 -246 q 861 -240 842 -226 q 863 -276 876 -257 q 797 -346 860 -281 q 644 -493 735 -411 q 336 -674 442 -674 q 297 -667 314 -674 q 186 -426 219 -636 q 154 33 157 -254 q 157 282 153 151 q 33 247 94 265 q 26 246 29 246 q 1 265 8 246 q 18 296 -3 288 q 158 336 29 300 q 201 989 169 663 q 235 1257 217 1140 q 22 1177 78 1214 q -39 1117 -35 1140 q -62 1100 -47 1100 q -71 1100 -67 1100 q -87 1133 -93 1110 q 243 1313 -56 1238 q 250 1346 246 1331 q 284 1483 269 1451 q 311 1517 299 1515 q 347 1511 331 1525 q 349 1475 363 1493 q 332 1467 342 1468 q 297 1325 318 1438 q 364 1340 329 1333 q 842 1410 572 1382 l 851 1410 q 879 1388 875 1411 q 857 1360 881 1364 l 847 1358 q 375 1289 579 1331 q 289 1271 328 1281 m 454 1578 l 454 1578 q 474 1588 465 1578 q 471 1624 488 1606 l 361 1721 q 325 1719 342 1735 q 326 1683 311 1700 l 438 1585 q 454 1578 446 1578 z "},"":{"ha":797,"x_min":-93,"x_max":881,"o":"m 289 1271 l 289 1271 q 225 644 253 1053 q 210 350 215 492 q 310 376 258 363 q 530 430 458 415 q 624 444 601 444 q 650 442 646 444 q 665 408 671 431 q 633 393 656 388 q 556 382 617 394 q 404 347 494 369 q 208 296 314 325 q 249 -482 194 -236 q 287 -587 268 -558 q 317 -619 306 -617 q 397 -606 331 -631 q 611 -454 464 -581 q 760 -310 699 -375 q 825 -242 821 -246 q 861 -240 842 -226 q 863 -276 876 -257 q 797 -346 860 -281 q 644 -493 735 -411 q 336 -674 442 -674 q 297 -667 314 -674 q 186 -426 219 -636 q 154 33 157 -254 q 157 282 153 151 q 33 247 94 265 q 26 246 29 246 q 1 265 8 246 q 18 296 -3 288 q 158 336 29 300 q 201 989 169 663 q 235 1257 217 1140 q 22 1177 78 1214 q -39 1117 -35 1140 q -62 1100 -47 1100 q -71 1100 -67 1100 q -87 1133 -93 1110 q 243 1313 -56 1238 q 250 1346 246 1331 q 284 1483 269 1451 q 311 1517 299 1515 q 347 1511 331 1525 q 349 1475 363 1493 q 332 1467 342 1468 q 297 1325 318 1438 q 364 1340 329 1333 q 842 1410 572 1382 l 851 1410 q 879 1388 875 1411 q 857 1360 881 1364 l 847 1358 q 375 1289 579 1331 q 289 1271 328 1281 m 458 1582 l 458 1582 q 475 1589 467 1582 l 585 1686 q 588 1722 601 1704 q 551 1725 571 1739 l 440 1626 q 439 1590 425 1610 q 458 1582 447 1582 z "},"":{"ha":797,"x_min":-93,"x_max":881,"o":"m 289 1271 l 289 1271 q 225 644 253 1053 q 210 350 215 492 q 310 376 258 363 q 530 430 458 415 q 624 444 601 444 q 650 442 646 444 q 665 408 671 431 q 633 393 656 388 q 556 382 617 394 q 404 347 494 369 q 208 296 314 325 q 249 -482 194 -236 q 287 -587 268 -558 q 317 -619 306 -617 q 397 -606 331 -631 q 611 -454 464 -581 q 760 -310 699 -375 q 825 -242 821 -246 q 861 -240 842 -226 q 863 -276 876 -257 q 797 -346 860 -281 q 644 -493 735 -411 q 336 -674 442 -674 q 297 -667 314 -674 q 186 -426 219 -636 q 154 33 157 -254 q 157 282 153 151 q 33 247 94 265 q 26 246 29 246 q 1 265 8 246 q 18 296 -3 288 q 158 336 29 300 q 201 989 169 663 q 235 1257 217 1140 q 22 1177 78 1214 q -39 1117 -35 1140 q -62 1100 -47 1100 q -71 1100 -67 1100 q -87 1133 -93 1110 q 243 1313 -56 1238 q 250 1346 246 1331 q 284 1483 269 1451 q 311 1517 299 1515 q 347 1511 331 1525 q 349 1475 363 1493 q 332 1467 342 1468 q 297 1325 318 1438 q 364 1340 329 1333 q 842 1410 572 1382 l 851 1410 q 879 1388 875 1411 q 857 1360 881 1364 l 847 1358 q 375 1289 579 1331 q 289 1271 328 1281 m 556 1590 l 556 1590 q 569 1594 563 1590 q 578 1631 589 1610 l 494 1758 q 476 1771 488 1768 q 456 1764 464 1772 l 322 1640 q 321 1604 307 1622 q 357 1603 339 1589 l 468 1706 l 535 1603 q 556 1590 543 1592 z "},"":{"ha":797,"x_min":-93,"x_max":881,"o":"m 289 1271 l 289 1271 q 225 644 253 1053 q 210 350 215 492 q 310 376 258 363 q 530 430 458 415 q 624 444 601 444 q 650 442 646 444 q 665 408 671 431 q 633 393 656 388 q 556 382 617 394 q 404 347 494 369 q 208 296 314 325 q 249 -482 194 -236 q 287 -587 268 -558 q 317 -619 306 -617 q 397 -606 331 -631 q 611 -454 464 -581 q 760 -310 699 -375 q 825 -242 821 -246 q 861 -240 842 -226 q 863 -276 876 -257 q 797 -346 860 -281 q 644 -493 735 -411 q 336 -674 442 -674 q 297 -667 314 -674 q 186 -426 219 -636 q 154 33 157 -254 q 157 282 153 151 q 33 247 94 265 q 26 246 29 246 q 1 265 8 246 q 18 296 -3 288 q 158 336 29 300 q 201 989 169 663 q 235 1257 217 1140 q 22 1177 78 1214 q -39 1117 -35 1140 q -62 1100 -47 1100 q -71 1100 -67 1100 q -87 1133 -93 1110 q 243 1313 -56 1238 q 250 1346 246 1331 q 284 1483 269 1451 q 311 1517 299 1515 q 347 1511 331 1525 q 349 1475 363 1493 q 332 1467 342 1468 q 297 1325 318 1438 q 364 1340 329 1333 q 842 1410 572 1382 l 851 1410 q 879 1388 875 1411 q 857 1360 881 1364 l 847 1358 q 375 1289 579 1331 q 289 1271 328 1281 m 388 1663 l 388 1663 q 415 1635 411 1663 l 415 1635 q 388 1607 415 1611 q 360 1635 364 1607 l 360 1635 q 388 1663 360 1658 m 549 1663 l 549 1663 q 576 1635 571 1663 l 576 1635 q 549 1607 576 1611 q 521 1635 525 1607 l 521 1635 q 549 1663 521 1658 z "},"":{"ha":563,"x_min":-314,"x_max":974,"o":"m 954 1428 l 954 1428 q 967 1394 974 1417 q 933 1382 956 1374 q 851 1387 918 1388 q 681 1377 785 1386 q 449 1349 576 1368 q 308 1325 376 1338 q 293 1153 300 1264 q 274 567 278 914 q 274 142 271 339 q 286 -190 278 -56 q 306 -360 294 -324 q 301 -383 310 -374 q 497 -338 433 -350 q 581 -326 560 -326 q 606 -329 601 -326 q 621 -362 626 -340 q 588 -378 610 -383 q 465 -397 565 -375 q 222 -457 364 -419 q -68 -537 81 -494 q -75 -537 -71 -537 q -100 -519 -92 -537 q -82 -487 -104 -496 q 17 -460 -76 -486 q 235 -400 111 -433 q 271 -392 254 -396 q 257 -376 261 -387 q 233 -179 242 -329 q 222 174 225 -29 q 222 588 219 378 q 243 1181 226 942 q 256 1315 249 1261 q -186 1169 -51 1253 q -262 1076 -261 1122 q -287 1051 -268 1051 q -289 1051 -289 1051 q -314 1078 -312 1054 q -211 1215 -311 1153 q 263 1369 -39 1313 q 285 1463 274 1442 q 304 1488 296 1485 q 346 1482 326 1500 q 347 1446 363 1465 q 331 1438 340 1439 q 317 1379 325 1428 q 726 1433 543 1419 q 954 1428 908 1446 m 419 1538 l 419 1538 q 439 1547 431 1538 q 436 1583 453 1565 l 326 1681 q 290 1679 307 1694 q 292 1643 276 1660 l 403 1544 q 419 1538 411 1538 z "},"":{"ha":563,"x_min":-314,"x_max":974,"o":"m 954 1428 l 954 1428 q 967 1394 974 1417 q 933 1382 956 1374 q 851 1387 918 1388 q 681 1377 785 1386 q 449 1349 576 1368 q 308 1325 376 1338 q 293 1153 300 1264 q 274 567 278 914 q 274 142 271 339 q 286 -190 278 -56 q 306 -360 294 -324 q 301 -383 310 -374 q 497 -338 433 -350 q 581 -326 560 -326 q 606 -329 601 -326 q 621 -362 626 -340 q 588 -378 610 -383 q 465 -397 565 -375 q 222 -457 364 -419 q -68 -537 81 -494 q -75 -537 -71 -537 q -100 -519 -92 -537 q -82 -487 -104 -496 q 17 -460 -76 -486 q 235 -400 111 -433 q 271 -392 254 -396 q 257 -376 261 -387 q 233 -179 242 -329 q 222 174 225 -29 q 222 588 219 378 q 243 1181 226 942 q 256 1315 249 1261 q -186 1169 -51 1253 q -262 1076 -261 1122 q -287 1051 -268 1051 q -289 1051 -289 1051 q -314 1078 -312 1054 q -211 1215 -311 1153 q 263 1369 -39 1313 q 285 1463 274 1442 q 304 1488 296 1485 q 346 1482 326 1500 q 347 1446 363 1465 q 331 1438 340 1439 q 317 1379 325 1428 q 726 1433 543 1419 q 954 1428 908 1446 m 424 1542 l 424 1542 q 440 1549 432 1542 l 550 1646 q 553 1682 567 1664 q 517 1685 536 1699 l 406 1586 q 404 1550 390 1569 q 424 1542 413 1542 z "},"":{"ha":563,"x_min":-314,"x_max":974,"o":"m 954 1428 l 954 1428 q 967 1394 974 1417 q 933 1382 956 1374 q 851 1387 918 1388 q 681 1377 785 1386 q 449 1349 576 1368 q 308 1325 376 1338 q 293 1153 300 1264 q 274 567 278 914 q 274 142 271 339 q 286 -190 278 -56 q 306 -360 294 -324 q 301 -383 310 -374 q 497 -338 433 -350 q 581 -326 560 -326 q 606 -329 601 -326 q 621 -362 626 -340 q 588 -378 610 -383 q 465 -397 565 -375 q 222 -457 364 -419 q -68 -537 81 -494 q -75 -537 -71 -537 q -100 -519 -92 -537 q -82 -487 -104 -496 q 17 -460 -76 -486 q 235 -400 111 -433 q 271 -392 254 -396 q 257 -376 261 -387 q 233 -179 242 -329 q 222 174 225 -29 q 222 588 219 378 q 243 1181 226 942 q 256 1315 249 1261 q -186 1169 -51 1253 q -262 1076 -261 1122 q -287 1051 -268 1051 q -289 1051 -289 1051 q -314 1078 -312 1054 q -211 1215 -311 1153 q 263 1369 -39 1313 q 285 1463 274 1442 q 304 1488 296 1485 q 346 1482 326 1500 q 347 1446 363 1465 q 331 1438 340 1439 q 317 1379 325 1428 q 726 1433 543 1419 q 954 1428 908 1446 m 521 1550 l 521 1550 q 535 1554 528 1550 q 543 1590 554 1569 l 460 1718 q 442 1731 453 1728 q 421 1724 429 1732 l 288 1600 q 286 1564 272 1582 q 322 1563 304 1549 l 433 1665 l 500 1563 q 521 1550 508 1551 z "},"":{"ha":563,"x_min":-314,"x_max":974,"o":"m 954 1428 l 954 1428 q 967 1394 974 1417 q 933 1382 956 1374 q 851 1387 918 1388 q 681 1377 785 1386 q 449 1349 576 1368 q 308 1325 376 1338 q 293 1153 300 1264 q 274 567 278 914 q 274 142 271 339 q 286 -190 278 -56 q 306 -360 294 -324 q 301 -383 310 -374 q 497 -338 433 -350 q 581 -326 560 -326 q 606 -329 601 -326 q 621 -362 626 -340 q 588 -378 610 -383 q 465 -397 565 -375 q 222 -457 364 -419 q -68 -537 81 -494 q -75 -537 -71 -537 q -100 -519 -92 -537 q -82 -487 -104 -496 q 17 -460 -76 -486 q 235 -400 111 -433 q 271 -392 254 -396 q 257 -376 261 -387 q 233 -179 242 -329 q 222 174 225 -29 q 222 588 219 378 q 243 1181 226 942 q 256 1315 249 1261 q -186 1169 -51 1253 q -262 1076 -261 1122 q -287 1051 -268 1051 q -289 1051 -289 1051 q -314 1078 -312 1054 q -211 1215 -311 1153 q 263 1369 -39 1313 q 285 1463 274 1442 q 304 1488 296 1485 q 346 1482 326 1500 q 347 1446 363 1465 q 331 1438 340 1439 q 317 1379 325 1428 q 726 1433 543 1419 q 954 1428 908 1446 m 353 1622 l 353 1622 q 381 1594 376 1622 l 381 1594 q 353 1567 381 1571 q 325 1594 329 1567 l 325 1594 q 353 1622 325 1618 m 514 1622 l 514 1622 q 542 1594 536 1622 l 542 1594 q 514 1567 542 1571 q 486 1594 490 1567 l 486 1594 q 514 1622 486 1618 z "},"":{"ha":1075,"x_min":49,"x_max":928,"o":"m 815 -603 l 815 -603 q 840 -593 829 -603 q 855 -569 846 -589 q 876 -487 864 -549 q 899 -296 888 -425 q 925 275 921 -53 q 926 585 928 378 q 908 1014 924 793 q 853 1376 892 1235 q 768 1499 819 1489 q 738 1479 744 1501 q 757 1449 735 1456 q 769 1437 758 1449 q 797 1382 781 1425 q 862 922 844 1228 q 875 306 879 615 q 849 -275 871 -25 q 828 -459 839 -399 q 811 -539 818 -519 q 783 -475 801 -522 q 736 -333 765 -428 q 604 143 678 -133 q 394 883 503 539 q 265 1199 314 1124 q 185 1271 217 1275 q 142 1249 168 1278 q 77 942 100 1176 q 50 438 54 707 q 52 170 49 347 q 74 -183 56 -7 q 135 -447 92 -358 q 204 -497 164 -499 q 229 -471 228 -494 q 203 -446 226 -447 q 190 -437 199 -447 q 169 -397 181 -426 q 103 501 92 -161 q 122 872 108 719 q 153 1112 136 1025 q 183 1218 169 1199 q 206 1196 190 1215 q 246 1126 222 1176 q 346 868 290 1038 q 556 131 453 525 q 692 -364 631 -158 q 764 -559 739 -515 q 806 -603 789 -603 q 815 -603 810 -603 m 510 1456 l 510 1456 q 524 1457 517 1456 q 590 1524 576 1474 q 603 1590 604 1575 q 578 1617 600 1614 q 551 1592 554 1615 q 542 1542 550 1569 q 514 1508 533 1514 q 457 1544 489 1510 q 417 1579 439 1564 q 369 1594 396 1594 q 292 1551 322 1588 q 257 1503 263 1514 q 268 1468 249 1481 q 303 1478 289 1458 q 331 1517 311 1494 q 372 1543 351 1539 q 422 1507 394 1538 q 462 1472 440 1489 q 510 1456 483 1456 z "},"":{"ha":986,"x_min":15,"x_max":854,"o":"m 335 -618 l 335 -618 q 356 -617 346 -618 q 718 -232 585 -592 q 835 685 854 160 q 631 1407 806 1217 q 417 1464 536 1503 q 204 932 226 1399 q 63 279 100 651 q 156 -507 15 -269 q 335 -618 228 -618 m 201 760 l 201 760 q 207 619 203 693 q 236 267 217 432 q 272 -1 256 103 q 290 -110 289 -106 q 319 -131 296 -133 q 340 -101 342 -125 q 323 7 339 -96 q 288 273 307 110 q 258 622 268 436 q 256 921 250 788 q 333 1085 292 1015 q 413 1185 365 1139 q 519 1229 461 1231 q 547 1253 543 1231 q 524 1281 546 1276 q 289 1111 397 1290 q 268 1072 278 1093 q 278 1142 272 1108 q 432 1415 321 1378 q 594 1371 522 1446 q 752 972 704 1250 q 781 370 800 694 q 671 -214 761 46 q 551 -441 629 -335 q 351 -565 474 -547 q 199 -479 258 -575 q 114 275 68 -254 q 201 760 139 538 m 443 1590 l 443 1590 q 463 1600 454 1590 q 460 1636 476 1618 l 350 1733 q 314 1732 331 1747 q 315 1696 300 1713 l 426 1597 q 443 1590 435 1590 z "},"":{"ha":986,"x_min":15,"x_max":854,"o":"m 335 -618 l 335 -618 q 356 -617 346 -618 q 718 -232 585 -592 q 835 685 854 160 q 631 1407 806 1217 q 417 1464 536 1503 q 204 932 226 1399 q 63 279 100 651 q 156 -507 15 -269 q 335 -618 228 -618 m 201 760 l 201 760 q 207 619 203 693 q 236 267 217 432 q 272 -1 256 103 q 290 -110 289 -106 q 319 -131 296 -133 q 340 -101 342 -125 q 323 7 339 -96 q 288 273 307 110 q 258 622 268 436 q 256 921 250 788 q 333 1085 292 1015 q 413 1185 365 1139 q 519 1229 461 1231 q 547 1253 543 1231 q 524 1281 546 1276 q 289 1111 397 1290 q 268 1072 278 1093 q 278 1142 272 1108 q 432 1415 321 1378 q 594 1371 522 1446 q 752 972 704 1250 q 781 370 800 694 q 671 -214 761 46 q 551 -441 629 -335 q 351 -565 474 -547 q 199 -479 258 -575 q 114 275 68 -254 q 201 760 139 538 m 447 1594 l 447 1594 q 464 1601 456 1594 l 574 1699 q 576 1735 590 1717 q 540 1738 560 1751 l 429 1639 q 428 1603 414 1622 q 447 1594 436 1594 z "},"":{"ha":986,"x_min":15,"x_max":854,"o":"m 335 -618 l 335 -618 q 356 -617 346 -618 q 718 -232 585 -592 q 835 685 854 160 q 631 1407 806 1217 q 417 1464 536 1503 q 204 932 226 1399 q 63 279 100 651 q 156 -507 15 -269 q 335 -618 228 -618 m 201 760 l 201 760 q 207 619 203 693 q 236 267 217 432 q 272 -1 256 103 q 290 -110 289 -106 q 319 -131 296 -133 q 340 -101 342 -125 q 323 7 339 -96 q 288 273 307 110 q 258 622 268 436 q 256 921 250 788 q 333 1085 292 1015 q 413 1185 365 1139 q 519 1229 461 1231 q 547 1253 543 1231 q 524 1281 546 1276 q 289 1111 397 1290 q 268 1072 278 1093 q 278 1142 272 1108 q 432 1415 321 1378 q 594 1371 522 1446 q 752 972 704 1250 q 781 370 800 694 q 671 -214 761 46 q 551 -441 629 -335 q 351 -565 474 -547 q 199 -479 258 -575 q 114 275 68 -254 q 201 760 139 538 m 544 1603 l 544 1603 q 558 1607 551 1603 q 567 1643 578 1622 l 483 1771 q 465 1783 476 1781 q 444 1776 453 1785 l 311 1653 q 310 1617 296 1635 q 346 1615 328 1601 l 457 1718 l 524 1615 q 544 1603 532 1604 z "},"":{"ha":986,"x_min":15,"x_max":854,"o":"m 335 -618 l 335 -618 q 356 -617 346 -618 q 718 -232 585 -592 q 835 685 854 160 q 631 1407 806 1217 q 417 1464 536 1503 q 204 932 226 1399 q 63 279 100 651 q 156 -507 15 -269 q 335 -618 228 -618 m 201 760 l 201 760 q 207 619 203 693 q 236 267 217 432 q 272 -1 256 103 q 290 -110 289 -106 q 319 -131 296 -133 q 340 -101 342 -125 q 323 7 339 -96 q 288 273 307 110 q 258 622 268 436 q 256 921 250 788 q 333 1085 292 1015 q 413 1185 365 1139 q 519 1229 461 1231 q 547 1253 543 1231 q 524 1281 546 1276 q 289 1111 397 1290 q 268 1072 278 1093 q 278 1142 272 1108 q 432 1415 321 1378 q 594 1371 522 1446 q 752 972 704 1250 q 781 370 800 694 q 671 -214 761 46 q 551 -441 629 -335 q 351 -565 474 -547 q 199 -479 258 -575 q 114 275 68 -254 q 201 760 139 538 m 528 1610 l 528 1610 q 542 1611 535 1610 q 608 1678 594 1628 q 621 1744 622 1729 q 596 1771 618 1768 q 569 1746 572 1769 q 560 1696 568 1724 q 532 1663 551 1668 q 475 1699 507 1664 q 435 1733 457 1718 q 388 1749 414 1749 q 310 1705 340 1742 q 275 1657 281 1668 q 286 1622 267 1635 q 321 1632 307 1613 q 349 1671 329 1649 q 390 1697 369 1693 q 440 1661 413 1692 q 480 1626 458 1643 q 528 1610 501 1610 z "},"":{"ha":986,"x_min":15,"x_max":854,"o":"m 335 -618 l 335 -618 q 356 -617 346 -618 q 718 -232 585 -592 q 835 685 854 160 q 631 1407 806 1217 q 417 1464 536 1503 q 204 932 226 1399 q 63 279 100 651 q 156 -507 15 -269 q 335 -618 228 -618 m 201 760 l 201 760 q 207 619 203 693 q 236 267 217 432 q 272 -1 256 103 q 290 -110 289 -106 q 319 -131 296 -133 q 340 -101 342 -125 q 323 7 339 -96 q 288 273 307 110 q 258 622 268 436 q 256 921 250 788 q 333 1085 292 1015 q 413 1185 365 1139 q 519 1229 461 1231 q 547 1253 543 1231 q 524 1281 546 1276 q 289 1111 397 1290 q 268 1072 278 1093 q 278 1142 272 1108 q 432 1415 321 1378 q 594 1371 522 1446 q 752 972 704 1250 q 781 370 800 694 q 671 -214 761 46 q 551 -441 629 -335 q 351 -565 474 -547 q 199 -479 258 -575 q 114 275 68 -254 q 201 760 139 538 m 376 1675 l 376 1675 q 404 1647 400 1675 l 404 1647 q 376 1619 404 1624 q 349 1647 353 1619 l 349 1647 q 376 1675 349 1671 m 538 1675 l 538 1675 q 565 1647 560 1675 l 565 1647 q 538 1619 565 1624 q 510 1647 514 1619 l 510 1647 q 538 1675 510 1671 z "},"":{"ha":582,"x_min":144,"x_max":479,"o":"m 472 228 l 472 228 q 458 193 479 204 q 449 192 453 192 q 425 206 433 192 q 384 247 418 215 q 300 324 350 279 l 194 229 q 178 222 186 222 q 158 231 167 222 q 160 267 144 249 l 261 358 q 163 446 213 401 q 161 482 147 463 q 197 485 178 497 q 300 393 208 475 l 397 481 q 433 479 417 496 q 432 443 447 461 l 339 358 q 451 254 429 278 q 472 228 474 231 z "},"":{"ha":989,"x_min":15,"x_max":856,"o":"m 717 1132 q 754 972 739 1060 q 782 370 801 694 q 671 -214 763 46 q 552 -441 631 -335 q 353 -565 474 -547 q 200 -479 260 -575 q 158 -389 176 -439 q 285 -74 213 -262 q 290 -110 289 -107 q 321 -131 297 -133 q 342 -101 343 -125 q 324 7 340 -96 l 321 24 q 374 167 346 92 q 615 840 506 529 q 717 1132 686 1043 m 136 -310 q 115 275 83 -90 q 203 760 140 538 q 208 619 204 693 q 238 268 218 432 q 268 31 254 126 q 136 -310 193 -172 m 306 131 q 289 274 297 194 q 260 622 269 436 q 257 921 251 788 q 335 1085 293 1015 q 414 1185 367 1139 q 521 1229 461 1231 q 549 1253 544 1231 q 525 1281 547 1276 q 290 1111 399 1290 q 269 1072 279 1093 q 279 1142 274 1108 q 433 1415 322 1378 q 596 1371 524 1446 q 690 1211 651 1310 q 574 875 681 1183 q 329 196 464 564 q 306 131 317 163 m 336 -618 q 357 -617 347 -618 q 719 -232 586 -592 q 836 685 856 160 q 632 1407 807 1217 q 417 1464 538 1503 q 206 932 228 1399 q 64 279 101 651 q 156 -507 15 -269 q 336 -618 228 -618 z "},"":{"ha":1115,"x_min":44,"x_max":1019,"o":"m 985 -837 l 985 -837 q 996 -836 990 -837 q 1018 -807 1019 -831 q 988 -786 1011 -783 q 969 -779 981 -789 q 920 -658 946 -762 q 883 -297 894 -554 q 886 436 871 -39 q 913 961 897 715 q 940 1363 928 1207 q 953 1525 951 1518 q 931 1553 953 1547 q 901 1533 908 1554 q 866 1386 900 1526 q 774 1027 832 1246 q 643 564 715 808 q 408 -103 515 140 q 274 -345 324 -292 q 207 -393 224 -399 q 146 -329 172 -394 q 122 446 71 -118 q 179 854 147 699 q 232 1040 211 1010 q 254 1053 246 1042 q 246 1088 264 1074 q 203 1085 224 1100 q 188 1067 199 1082 q 163 1006 178 1051 q 129 868 149 960 q 72 463 94 692 q 50 70 56 315 q 96 -339 44 -175 q 207 -444 133 -444 q 208 -444 207 -444 q 310 -383 247 -450 q 465 -103 372 -317 q 692 549 558 111 q 878 1221 804 931 q 835 438 853 893 q 833 -354 818 -50 q 878 -705 850 -610 q 935 -817 907 -800 q 985 -837 957 -837 m 496 1342 l 496 1342 q 515 1351 507 1342 q 513 1388 529 1369 l 403 1485 q 367 1483 383 1499 q 368 1447 353 1464 l 479 1349 q 496 1342 488 1342 z "},"":{"ha":1115,"x_min":44,"x_max":1019,"o":"m 985 -837 l 985 -837 q 996 -836 990 -837 q 1018 -807 1019 -831 q 988 -786 1011 -783 q 969 -779 981 -789 q 920 -658 946 -762 q 883 -297 894 -554 q 886 436 871 -39 q 913 961 897 715 q 940 1363 928 1207 q 953 1525 951 1518 q 931 1553 953 1547 q 901 1533 908 1554 q 866 1386 900 1526 q 774 1027 832 1246 q 643 564 715 808 q 408 -103 515 140 q 274 -345 324 -292 q 207 -393 224 -399 q 146 -329 172 -394 q 122 446 71 -118 q 179 854 147 699 q 232 1040 211 1010 q 254 1053 246 1042 q 246 1088 264 1074 q 203 1085 224 1100 q 188 1067 199 1082 q 163 1006 178 1051 q 129 868 149 960 q 72 463 94 692 q 50 70 56 315 q 96 -339 44 -175 q 207 -444 133 -444 q 208 -444 207 -444 q 310 -383 247 -450 q 465 -103 372 -317 q 692 549 558 111 q 878 1221 804 931 q 835 438 853 893 q 833 -354 818 -50 q 878 -705 850 -610 q 935 -817 907 -800 q 985 -837 957 -837 m 500 1346 l 500 1346 q 517 1353 508 1346 l 626 1450 q 629 1486 643 1468 q 593 1489 613 1503 l 482 1390 q 481 1354 467 1374 q 500 1346 489 1346 z "},"":{"ha":1115,"x_min":44,"x_max":1019,"o":"m 985 -837 l 985 -837 q 996 -836 990 -837 q 1018 -807 1019 -831 q 988 -786 1011 -783 q 969 -779 981 -789 q 920 -658 946 -762 q 883 -297 894 -554 q 886 436 871 -39 q 913 961 897 715 q 940 1363 928 1207 q 953 1525 951 1518 q 931 1553 953 1547 q 901 1533 908 1554 q 866 1386 900 1526 q 774 1027 832 1246 q 643 564 715 808 q 408 -103 515 140 q 274 -345 324 -292 q 207 -393 224 -399 q 146 -329 172 -394 q 122 446 71 -118 q 179 854 147 699 q 232 1040 211 1010 q 254 1053 246 1042 q 246 1088 264 1074 q 203 1085 224 1100 q 188 1067 199 1082 q 163 1006 178 1051 q 129 868 149 960 q 72 463 94 692 q 50 70 56 315 q 96 -339 44 -175 q 207 -444 133 -444 q 208 -444 207 -444 q 310 -383 247 -450 q 465 -103 372 -317 q 692 549 558 111 q 878 1221 804 931 q 835 438 853 893 q 833 -354 818 -50 q 878 -705 850 -610 q 935 -817 907 -800 q 985 -837 957 -837 m 597 1354 l 597 1354 q 611 1358 604 1354 q 619 1394 631 1374 l 536 1522 q 518 1535 529 1532 q 497 1528 506 1536 l 364 1404 q 363 1368 349 1386 q 399 1367 381 1353 l 510 1469 l 576 1367 q 597 1354 585 1356 z "},"":{"ha":1115,"x_min":44,"x_max":1019,"o":"m 985 -837 l 985 -837 q 996 -836 990 -837 q 1018 -807 1019 -831 q 988 -786 1011 -783 q 969 -779 981 -789 q 920 -658 946 -762 q 883 -297 894 -554 q 886 436 871 -39 q 913 961 897 715 q 940 1363 928 1207 q 953 1525 951 1518 q 931 1553 953 1547 q 901 1533 908 1554 q 866 1386 900 1526 q 774 1027 832 1246 q 643 564 715 808 q 408 -103 515 140 q 274 -345 324 -292 q 207 -393 224 -399 q 146 -329 172 -394 q 122 446 71 -118 q 179 854 147 699 q 232 1040 211 1010 q 254 1053 246 1042 q 246 1088 264 1074 q 203 1085 224 1100 q 188 1067 199 1082 q 163 1006 178 1051 q 129 868 149 960 q 72 463 94 692 q 50 70 56 315 q 96 -339 44 -175 q 207 -444 133 -444 q 208 -444 207 -444 q 310 -383 247 -450 q 465 -103 372 -317 q 692 549 558 111 q 878 1221 804 931 q 835 438 853 893 q 833 -354 818 -50 q 878 -705 850 -610 q 935 -817 907 -800 q 985 -837 957 -837 m 429 1426 l 429 1426 q 457 1399 453 1426 l 457 1399 q 429 1371 457 1375 q 401 1399 406 1371 l 401 1399 q 429 1426 401 1422 m 590 1426 l 590 1426 q 618 1399 613 1426 l 618 1399 q 590 1371 618 1375 q 563 1399 567 1371 l 563 1399 q 590 1426 563 1422 z "},"":{"ha":889,"x_min":43,"x_max":921,"o":"m 317 -750 l 317 -750 q 338 -749 326 -750 q 599 -353 500 -719 q 697 208 660 -132 q 794 256 751 236 q 865 285 838 275 q 900 297 893 294 q 903 297 901 297 q 921 322 919 304 q 903 346 919 340 q 886 346 900 349 l 886 346 q 886 346 886 346 q 829 326 874 343 q 704 271 783 310 q 717 401 711 335 q 747 915 739 674 q 756 1311 756 1157 q 757 1472 757 1465 q 735 1497 754 1493 q 706 1479 714 1499 q 678 1381 706 1474 q 603 1142 650 1288 q 497 838 556 997 q 319 433 390 558 q 208 276 249 307 q 156 254 168 246 q 110 351 126 260 q 108 646 94 443 q 128 830 117 743 q 149 972 140 917 q 158 1029 158 1026 q 138 1060 161 1053 q 108 1039 115 1061 q 98 981 107 1036 q 77 837 89 925 q 57 650 65 749 q 56 371 43 476 q 142 206 72 224 q 353 386 235 178 q 544 821 440 540 q 706 1294 644 1094 q 665 406 706 958 q 650 240 658 319 q 494 133 575 199 q 342 -24 413 67 q 167 -408 192 -233 q 203 -678 142 -582 q 317 -750 249 -749 m 642 175 l 642 175 q 329 -697 542 -646 q 276 -685 297 -701 q 246 -651 256 -668 q 217 -417 194 -564 q 383 -54 247 -237 q 642 175 501 93 m 317 1358 l 317 1358 q 333 1365 325 1358 l 443 1463 q 446 1499 460 1481 q 410 1501 429 1515 l 299 1403 q 297 1367 283 1386 q 317 1358 306 1358 z "},"":{"ha":575,"x_min":-92,"x_max":624,"o":"m -7 -90 l -7 -90 q 63 -50 18 -94 q 183 133 107 -6 q 231 225 208 181 q 290 -36 217 -19 q 351 -27 314 -46 q 450 67 388 -8 q 613 304 513 143 q 604 340 624 325 q 569 332 583 350 q 388 72 457 151 q 325 17 343 25 q 307 13 307 10 q 297 26 306 11 q 282 99 288 42 q 293 361 275 188 q 274 388 293 382 q 243 374 253 392 q 213 306 242 369 q 139 160 183 242 q 54 22 86 64 q 8 -30 22 -21 q -8 -39 -7 -39 q -8 -39 -8 -39 q -19 -21 -14 -37 q 6 219 -37 63 q 132 458 50 375 q 221 490 179 499 q 267 464 247 483 q 298 426 288 444 q 310 407 308 408 q 343 394 321 386 q 356 428 364 406 q 347 445 356 431 q 323 479 339 460 q 284 516 307 499 q 232 540 261 533 q 99 497 165 554 q -42 237 8 407 q -68 -35 -92 67 q -14 -89 -46 -92 q -7 -90 -11 -90 m 225 668 l 225 668 q 244 678 236 668 q 242 714 258 696 l 132 811 q 96 810 113 825 q 97 774 82 790 l 208 675 q 225 668 217 668 z "},"":{"ha":575,"x_min":-92,"x_max":624,"o":"m -7 -90 l -7 -90 q 63 -50 18 -94 q 183 133 107 -6 q 231 225 208 181 q 290 -36 217 -19 q 351 -27 314 -46 q 450 67 388 -8 q 613 304 513 143 q 604 340 624 325 q 569 332 583 350 q 388 72 457 151 q 325 17 343 25 q 307 13 307 10 q 297 26 306 11 q 282 99 288 42 q 293 361 275 188 q 274 388 293 382 q 243 374 253 392 q 213 306 242 369 q 139 160 183 242 q 54 22 86 64 q 8 -30 22 -21 q -8 -39 -7 -39 q -8 -39 -8 -39 q -19 -21 -14 -37 q 6 219 -37 63 q 132 458 50 375 q 221 490 179 499 q 267 464 247 483 q 298 426 288 444 q 310 407 308 408 q 343 394 321 386 q 356 428 364 406 q 347 445 356 431 q 323 479 339 460 q 284 516 307 499 q 232 540 261 533 q 99 497 165 554 q -42 237 8 407 q -68 -35 -92 67 q -14 -89 -46 -92 q -7 -90 -11 -90 m 229 672 l 229 672 q 246 679 238 672 l 356 776 q 358 813 372 794 q 322 815 342 829 l 211 717 q 210 681 196 700 q 229 672 218 672 z "},"":{"ha":575,"x_min":-92,"x_max":624,"o":"m -7 -90 l -7 -90 q 63 -50 18 -94 q 183 133 107 -6 q 231 225 208 181 q 290 -36 217 -19 q 351 -27 314 -46 q 450 67 388 -8 q 613 304 513 143 q 604 340 624 325 q 569 332 583 350 q 388 72 457 151 q 325 17 343 25 q 307 13 307 10 q 297 26 306 11 q 282 99 288 42 q 293 361 275 188 q 274 388 293 382 q 243 374 253 392 q 213 306 242 369 q 139 160 183 242 q 54 22 86 64 q 8 -30 22 -21 q -8 -39 -7 -39 q -8 -39 -8 -39 q -19 -21 -14 -37 q 6 219 -37 63 q 132 458 50 375 q 221 490 179 499 q 267 464 247 483 q 298 426 288 444 q 310 407 308 408 q 343 394 321 386 q 356 428 364 406 q 347 445 356 431 q 323 479 339 460 q 284 516 307 499 q 232 540 261 533 q 99 497 165 554 q -42 237 8 407 q -68 -35 -92 67 q -14 -89 -46 -92 q -7 -90 -11 -90 m 326 681 l 326 681 q 340 685 333 681 q 349 721 360 700 l 265 849 q 247 861 258 858 q 226 854 235 863 l 93 731 q 92 694 78 713 q 128 693 110 679 l 239 796 l 306 693 q 326 681 314 682 z "},"":{"ha":575,"x_min":-92,"x_max":624,"o":"m -7 -90 l -7 -90 q 63 -50 18 -94 q 183 133 107 -6 q 231 225 208 181 q 290 -36 217 -19 q 351 -27 314 -46 q 450 67 388 -8 q 613 304 513 143 q 604 340 624 325 q 569 332 583 350 q 388 72 457 151 q 325 17 343 25 q 307 13 307 10 q 297 26 306 11 q 282 99 288 42 q 293 361 275 188 q 274 388 293 382 q 243 374 253 392 q 213 306 242 369 q 139 160 183 242 q 54 22 86 64 q 8 -30 22 -21 q -8 -39 -7 -39 q -8 -39 -8 -39 q -19 -21 -14 -37 q 6 219 -37 63 q 132 458 50 375 q 221 490 179 499 q 267 464 247 483 q 298 426 288 444 q 310 407 308 408 q 343 394 321 386 q 356 428 364 406 q 347 445 356 431 q 323 479 339 460 q 284 516 307 499 q 232 540 261 533 q 99 497 165 554 q -42 237 8 407 q -68 -35 -92 67 q -14 -89 -46 -92 q -7 -90 -11 -90 m 310 688 l 310 688 q 324 689 317 688 q 390 756 376 706 q 403 822 404 807 q 378 849 400 846 q 351 824 354 847 q 342 774 350 801 q 314 740 333 746 q 257 776 289 742 q 217 811 239 796 q 169 826 196 826 q 92 783 122 819 q 57 735 63 746 q 68 700 49 713 q 103 710 89 690 q 131 749 111 726 q 172 775 151 771 q 222 739 194 769 q 262 704 240 721 q 310 688 283 688 z "},"":{"ha":575,"x_min":-92,"x_max":624,"o":"m -7 -90 l -7 -90 q 63 -50 18 -94 q 183 133 107 -6 q 231 225 208 181 q 290 -36 217 -19 q 351 -27 314 -46 q 450 67 388 -8 q 613 304 513 143 q 604 340 624 325 q 569 332 583 350 q 388 72 457 151 q 325 17 343 25 q 307 13 307 10 q 297 26 306 11 q 282 99 288 42 q 293 361 275 188 q 274 388 293 382 q 243 374 253 392 q 213 306 242 369 q 139 160 183 242 q 54 22 86 64 q 8 -30 22 -21 q -8 -39 -7 -39 q -8 -39 -8 -39 q -19 -21 -14 -37 q 6 219 -37 63 q 132 458 50 375 q 221 490 179 499 q 267 464 247 483 q 298 426 288 444 q 310 407 308 408 q 343 394 321 386 q 356 428 364 406 q 347 445 356 431 q 323 479 339 460 q 284 516 307 499 q 232 540 261 533 q 99 497 165 554 q -42 237 8 407 q -68 -35 -92 67 q -14 -89 -46 -92 q -7 -90 -11 -90 m 158 753 l 158 753 q 186 725 182 753 l 186 725 q 158 697 186 701 q 131 725 135 697 l 131 725 q 158 753 131 749 m 319 753 l 319 753 q 347 725 342 753 l 347 725 q 319 697 347 701 q 292 725 296 697 l 292 725 q 319 753 292 749 z "},"":{"ha":575,"x_min":-92,"x_max":624,"o":"m -7 -90 l -7 -90 q 63 -50 18 -94 q 183 133 107 -6 q 231 225 208 181 q 290 -36 217 -19 q 351 -27 314 -46 q 450 67 388 -8 q 613 304 513 143 q 604 340 624 325 q 569 332 583 350 q 388 72 457 151 q 325 17 343 25 q 307 13 307 10 q 297 26 306 11 q 282 99 288 42 q 293 361 275 188 q 274 388 293 382 q 243 374 253 392 q 213 306 242 369 q 139 160 183 242 q 54 22 86 64 q 8 -30 22 -21 q -8 -39 -7 -39 q -8 -39 -8 -39 q -19 -21 -14 -37 q 6 219 -37 63 q 132 458 50 375 q 221 490 179 499 q 267 464 247 483 q 298 426 288 444 q 310 407 308 408 q 343 394 321 386 q 356 428 364 406 q 347 445 356 431 q 323 479 339 460 q 284 516 307 499 q 232 540 261 533 q 99 497 165 554 q -42 237 8 407 q -68 -35 -92 67 q -14 -89 -46 -92 q -7 -90 -11 -90 m 231 692 l 231 692 q 303 725 268 692 q 336 838 351 778 q 276 894 322 882 q 182 864 222 906 q 156 747 143 818 q 211 694 168 707 q 231 692 221 692 m 256 846 l 256 846 q 265 844 260 846 q 288 824 279 843 q 265 761 294 793 q 225 744 243 740 q 204 763 208 747 q 221 829 200 804 l 221 829 q 256 846 236 846 m 201 847 l 201 847 l 201 847 l 201 847 z "},"":{"ha":440,"x_min":-18,"x_max":488,"o":"m 94 -226 l 94 -226 q 142 -208 113 -226 q 217 -133 171 -190 q 335 39 264 -76 q 435 215 394 138 q 479 296 476 292 q 468 331 488 318 q 433 319 446 340 q 390 240 431 315 q 290 65 350 164 q 181 -97 222 -44 q 119 -162 140 -149 q 94 -175 99 -176 q 58 -66 78 -164 q 38 207 39 32 q 64 494 39 393 q 119 611 89 596 q 131 611 125 614 q 187 533 160 594 q 231 411 214 471 q 261 393 238 389 q 279 425 283 401 q 239 542 272 458 q 151 658 206 626 q 96 657 124 671 q 7 472 32 615 q -14 163 -18 328 q 13 -104 -10 -1 q 92 -226 39 -226 q 94 -226 93 -226 m 78 -492 l 78 -492 q 83 -492 81 -492 q 172 -443 110 -483 q 254 -336 257 -386 q 233 -296 253 -312 q 177 -278 210 -281 q 117 -278 144 -275 l 121 -206 q 96 -179 119 -182 q 69 -203 72 -181 l 64 -307 q 72 -328 64 -319 q 94 -333 82 -335 q 201 -336 163 -321 q 203 -339 203 -337 q 148 -397 197 -362 q 69 -442 99 -431 q 53 -472 49 -450 q 78 -492 60 -492 m 71 -442 l 71 -442 q 69 -442 71 -442 q 71 -442 71 -442 z "},"":{"ha":413,"x_min":-51,"x_max":461,"o":"m 79 -86 l 79 -86 q 313 99 171 -86 q 382 196 351 150 q 431 272 413 242 q 451 306 450 301 q 442 340 461 326 q 407 331 421 350 q 367 266 406 326 q 272 131 329 206 q 129 -15 178 11 q 68 -32 81 -42 q 8 88 11 -8 q 35 299 4 185 q 63 383 47 344 q 133 397 86 372 q 212 472 175 422 q 244 567 249 521 q 196 614 238 604 q 106 571 147 622 q 33 445 64 519 q -15 311 1 371 q -42 69 -51 183 q 51 -81 -33 -46 q 79 -86 65 -86 m 182 564 l 182 564 q 185 564 183 564 q 194 558 196 561 q 108 442 190 503 q 82 432 92 432 q 139 530 111 496 q 182 564 167 564 m 163 696 l 163 696 q 182 706 174 696 q 179 742 196 724 l 69 839 q 33 838 50 853 q 35 801 19 818 l 146 703 q 163 696 154 696 z "},"":{"ha":413,"x_min":-51,"x_max":461,"o":"m 79 -86 l 79 -86 q 313 99 171 -86 q 382 196 351 150 q 431 272 413 242 q 451 306 450 301 q 442 340 461 326 q 407 331 421 350 q 367 266 406 326 q 272 131 329 206 q 129 -15 178 11 q 68 -32 81 -42 q 8 88 11 -8 q 35 299 4 185 q 63 383 47 344 q 133 397 86 372 q 212 472 175 422 q 244 567 249 521 q 196 614 238 604 q 106 571 147 622 q 33 445 64 519 q -15 311 1 371 q -42 69 -51 183 q 51 -81 -33 -46 q 79 -86 65 -86 m 182 564 l 182 564 q 185 564 183 564 q 194 558 196 561 q 108 442 190 503 q 82 432 92 432 q 139 530 111 496 q 182 564 167 564 m 167 700 l 167 700 q 183 707 175 700 l 293 804 q 296 840 310 822 q 260 843 279 857 l 149 744 q 147 708 133 728 q 167 700 156 700 z "},"":{"ha":413,"x_min":-51,"x_max":461,"o":"m 79 -86 l 79 -86 q 313 99 171 -86 q 382 196 351 150 q 431 272 413 242 q 451 306 450 301 q 442 340 461 326 q 407 331 421 350 q 367 266 406 326 q 272 131 329 206 q 129 -15 178 11 q 68 -32 81 -42 q 8 88 11 -8 q 35 299 4 185 q 63 383 47 344 q 133 397 86 372 q 212 472 175 422 q 244 567 249 521 q 196 614 238 604 q 106 571 147 622 q 33 445 64 519 q -15 311 1 371 q -42 69 -51 183 q 51 -81 -33 -46 q 79 -86 65 -86 m 182 564 l 182 564 q 185 564 183 564 q 194 558 196 561 q 108 442 190 503 q 82 432 92 432 q 139 530 111 496 q 182 564 167 564 m 264 708 l 264 708 q 278 713 271 708 q 286 749 297 728 l 203 876 q 185 889 196 886 q 164 882 172 890 l 31 758 q 29 722 15 740 q 65 721 47 707 l 176 824 l 243 721 q 264 708 251 710 z "},"":{"ha":413,"x_min":-51,"x_max":461,"o":"m 79 -86 l 79 -86 q 313 99 171 -86 q 382 196 351 150 q 431 272 413 242 q 451 306 450 301 q 442 340 461 326 q 407 331 421 350 q 367 266 406 326 q 272 131 329 206 q 129 -15 178 11 q 68 -32 81 -42 q 8 88 11 -8 q 35 299 4 185 q 63 383 47 344 q 133 397 86 372 q 212 472 175 422 q 244 567 249 521 q 196 614 238 604 q 106 571 147 622 q 33 445 64 519 q -15 311 1 371 q -42 69 -51 183 q 51 -81 -33 -46 q 79 -86 65 -86 m 182 564 l 182 564 q 185 564 183 564 q 194 558 196 561 q 108 442 190 503 q 82 432 92 432 q 139 530 111 496 q 182 564 167 564 m 96 781 l 96 781 q 124 753 119 781 l 124 753 q 96 725 124 729 q 68 753 72 725 l 68 753 q 96 781 68 776 m 257 781 l 257 781 q 285 753 279 781 l 285 753 q 257 725 285 729 q 229 753 233 725 l 229 753 q 257 781 229 776 z "},"":{"ha":372,"x_min":-97,"x_max":422,"o":"m 403 346 l 403 346 q 413 310 422 332 q 347 205 400 288 q 226 41 294 122 q 96 -60 157 -40 q 76 -62 86 -62 q 39 -50 56 -62 q 0 24 17 -42 q -11 275 -17 90 q 0 459 -7 381 q 7 542 7 538 q 36 565 13 565 q 58 536 58 560 q 51 454 57 532 q 40 274 44 376 q 43 90 38 150 q 57 10 49 29 q 67 -8 65 -8 q 83 -10 71 -11 q 226 122 143 11 q 368 336 310 233 q 403 346 381 356 m 46 696 l 46 696 q 65 706 57 696 q 63 742 79 724 l -47 839 q -83 838 -67 853 q -82 801 -97 818 l 29 703 q 46 696 38 696 z "},"":{"ha":372,"x_min":-17,"x_max":422,"o":"m 403 346 l 403 346 q 413 310 422 332 q 347 205 400 288 q 226 41 294 122 q 96 -60 157 -40 q 76 -62 86 -62 q 39 -50 56 -62 q 0 24 17 -42 q -11 275 -17 90 q 0 459 -7 381 q 7 542 7 538 q 36 565 13 565 q 58 536 58 560 q 51 454 57 532 q 40 274 44 376 q 43 90 38 150 q 57 10 49 29 q 67 -8 65 -8 q 83 -10 71 -11 q 226 122 143 11 q 368 336 310 233 q 403 346 381 356 m 50 700 l 50 700 q 67 707 58 700 l 176 804 q 179 840 193 822 q 143 843 163 857 l 32 744 q 31 708 17 728 q 50 700 39 700 z "},"":{"ha":372,"x_min":-101,"x_max":422,"o":"m 403 346 l 403 346 q 413 310 422 332 q 347 205 400 288 q 226 41 294 122 q 96 -60 157 -40 q 76 -62 86 -62 q 39 -50 56 -62 q 0 24 17 -42 q -11 275 -17 90 q 0 459 -7 381 q 7 542 7 538 q 36 565 13 565 q 58 536 58 560 q 51 454 57 532 q 40 274 44 376 q 43 90 38 150 q 57 10 49 29 q 67 -8 65 -8 q 83 -10 71 -11 q 226 122 143 11 q 368 336 310 233 q 403 346 381 356 m 147 708 l 147 708 q 161 713 154 708 q 169 749 181 728 l 86 876 q 68 889 79 886 q 47 882 56 890 l -86 758 q -87 722 -101 740 q -51 721 -69 707 l 60 824 l 126 721 q 147 708 135 710 z "},"":{"ha":372,"x_min":-49,"x_max":422,"o":"m 403 346 l 403 346 q 413 310 422 332 q 347 205 400 288 q 226 41 294 122 q 96 -60 157 -40 q 76 -62 86 -62 q 39 -50 56 -62 q 0 24 17 -42 q -11 275 -17 90 q 0 459 -7 381 q 7 542 7 538 q 36 565 13 565 q 58 536 58 560 q 51 454 57 532 q 40 274 44 376 q 43 90 38 150 q 57 10 49 29 q 67 -8 65 -8 q 83 -10 71 -11 q 226 122 143 11 q 368 336 310 233 q 403 346 381 356 m -21 781 l -21 781 q 7 753 3 781 l 7 753 q -21 725 7 729 q -49 753 -44 725 l -49 753 q -21 781 -49 776 m 140 781 l 140 781 q 168 753 163 781 l 168 753 q 140 725 168 729 q 113 753 117 725 l 113 753 q 140 781 113 776 z "},"":{"ha":618,"x_min":-10,"x_max":667,"o":"m 17 -142 l 17 -142 q 42 -119 35 -142 q 102 217 61 38 q 194 446 143 396 q 204 451 200 451 q 215 443 206 451 q 236 401 224 435 q 271 269 254 346 q 312 119 289 185 q 376 35 335 54 q 563 156 447 6 q 628 251 603 208 q 657 297 654 293 q 647 332 667 318 q 613 322 626 342 q 585 278 611 319 q 522 186 560 238 q 440 99 471 122 q 396 82 408 76 q 353 157 371 96 q 321 281 335 218 q 279 431 303 368 q 211 501 256 493 q 163 488 193 507 q 117 426 150 483 q 42 185 85 368 l 42 549 q 17 575 42 571 q -10 549 -6 575 l -10 -115 q 14 -142 -10 -136 q 17 -142 15 -142 m 282 600 l 282 600 q 296 601 289 600 q 363 669 349 618 q 375 735 376 719 q 350 761 372 758 q 324 736 326 760 q 314 686 322 714 q 286 653 306 658 q 229 689 261 654 q 190 724 211 708 q 142 739 168 739 q 65 695 94 732 q 29 647 35 658 q 40 613 21 625 q 75 622 61 603 q 103 661 83 639 q 144 688 124 683 q 194 651 167 682 q 234 617 213 633 q 282 600 256 600 z "},"":{"ha":438,"x_min":-37,"x_max":478,"o":"m 72 -82 l 72 -82 q 106 -72 88 -82 q 144 -31 125 -62 q 200 214 193 64 q 213 213 207 213 q 303 215 260 206 q 381 241 346 225 q 438 271 417 257 q 461 288 458 285 q 465 322 478 303 q 429 328 450 340 q 411 315 429 326 q 363 290 393 304 q 296 267 333 275 q 219 263 258 258 q 201 267 211 264 q 168 435 200 378 q 99 481 129 489 q 46 440 64 478 q 36 396 38 422 q 17 381 26 392 q -29 198 -21 328 q -3 -22 -37 68 q 34 -70 14 -57 q 71 -82 54 -83 q 72 -82 71 -82 m 49 335 l 49 335 q 67 303 56 318 q 150 232 103 254 q 100 -6 144 83 q 72 -31 85 -31 q 49 -12 58 -29 q 38 18 40 6 q 24 218 14 99 q 49 335 33 308 m 103 429 l 103 429 q 110 425 104 429 q 125 407 117 421 q 150 292 146 369 q 108 333 126 308 q 93 419 76 385 q 101 429 99 429 q 103 429 101 429 m 113 565 l 113 565 q 132 575 124 565 q 129 611 146 593 l 19 708 q -17 707 0 722 q -15 671 -31 688 l 96 572 q 113 565 104 565 z "},"":{"ha":438,"x_min":-37,"x_max":478,"o":"m 72 -82 l 72 -82 q 106 -72 88 -82 q 144 -31 125 -62 q 200 214 193 64 q 213 213 207 213 q 303 215 260 206 q 381 241 346 225 q 438 271 417 257 q 461 288 458 285 q 465 322 478 303 q 429 328 450 340 q 411 315 429 326 q 363 290 393 304 q 296 267 333 275 q 219 263 258 258 q 201 267 211 264 q 168 435 200 378 q 99 481 129 489 q 46 440 64 478 q 36 396 38 422 q 17 381 26 392 q -29 198 -21 328 q -3 -22 -37 68 q 34 -70 14 -57 q 71 -82 54 -83 q 72 -82 71 -82 m 49 335 l 49 335 q 67 303 56 318 q 150 232 103 254 q 100 -6 144 83 q 72 -31 85 -31 q 49 -12 58 -29 q 38 18 40 6 q 24 218 14 99 q 49 335 33 308 m 103 429 l 103 429 q 110 425 104 429 q 125 407 117 421 q 150 292 146 369 q 108 333 126 308 q 93 419 76 385 q 101 429 99 429 q 103 429 101 429 m 117 569 l 117 569 q 133 576 125 569 l 243 674 q 246 710 260 692 q 210 713 229 726 l 99 614 q 97 578 83 597 q 117 569 106 569 z "},"":{"ha":438,"x_min":-37,"x_max":478,"o":"m 72 -82 l 72 -82 q 106 -72 88 -82 q 144 -31 125 -62 q 200 214 193 64 q 213 213 207 213 q 303 215 260 206 q 381 241 346 225 q 438 271 417 257 q 461 288 458 285 q 465 322 478 303 q 429 328 450 340 q 411 315 429 326 q 363 290 393 304 q 296 267 333 275 q 219 263 258 258 q 201 267 211 264 q 168 435 200 378 q 99 481 129 489 q 46 440 64 478 q 36 396 38 422 q 17 381 26 392 q -29 198 -21 328 q -3 -22 -37 68 q 34 -70 14 -57 q 71 -82 54 -83 q 72 -82 71 -82 m 49 335 l 49 335 q 67 303 56 318 q 150 232 103 254 q 100 -6 144 83 q 72 -31 85 -31 q 49 -12 58 -29 q 38 18 40 6 q 24 218 14 99 q 49 335 33 308 m 103 429 l 103 429 q 110 425 104 429 q 125 407 117 421 q 150 292 146 369 q 108 333 126 308 q 93 419 76 385 q 101 429 99 429 q 103 429 101 429 m 214 578 l 214 578 q 228 582 221 578 q 236 618 247 597 l 153 746 q 135 758 146 756 q 114 751 122 760 l -19 628 q -21 592 -35 610 q 15 590 -3 576 l 126 693 l 193 590 q 214 578 201 579 z "},"":{"ha":438,"x_min":-64,"x_max":478,"o":"m 72 -82 l 72 -82 q 106 -72 88 -82 q 144 -31 125 -62 q 200 214 193 64 q 213 213 207 213 q 303 215 260 206 q 381 241 346 225 q 438 271 417 257 q 461 288 458 285 q 465 322 478 303 q 429 328 450 340 q 411 315 429 326 q 363 290 393 304 q 296 267 333 275 q 219 263 258 258 q 201 267 211 264 q 168 435 200 378 q 99 481 129 489 q 46 440 64 478 q 36 396 38 422 q 17 381 26 392 q -29 198 -21 328 q -3 -22 -37 68 q 34 -70 14 -57 q 71 -82 54 -83 q 72 -82 71 -82 m 49 335 l 49 335 q 67 303 56 318 q 150 232 103 254 q 100 -6 144 83 q 72 -31 85 -31 q 49 -12 58 -29 q 38 18 40 6 q 24 218 14 99 q 49 335 33 308 m 103 429 l 103 429 q 110 425 104 429 q 125 407 117 421 q 150 292 146 369 q 108 333 126 308 q 93 419 76 385 q 101 429 99 429 q 103 429 101 429 m 197 585 l 197 585 q 211 586 204 585 q 278 653 264 603 q 290 719 292 704 q 265 746 288 743 q 239 721 242 744 q 229 671 238 699 q 201 638 221 643 q 144 674 176 639 q 105 708 126 693 q 57 724 83 724 q -20 680 10 717 q -56 632 -50 643 q -44 597 -64 610 q -10 607 -24 588 q 19 646 -1 624 q 60 672 39 668 q 110 636 82 667 q 149 601 128 618 q 197 585 171 585 z "},"":{"ha":438,"x_min":-37,"x_max":478,"o":"m 72 -82 l 72 -82 q 106 -72 88 -82 q 144 -31 125 -62 q 200 214 193 64 q 213 213 207 213 q 303 215 260 206 q 381 241 346 225 q 438 271 417 257 q 461 288 458 285 q 465 322 478 303 q 429 328 450 340 q 411 315 429 326 q 363 290 393 304 q 296 267 333 275 q 219 263 258 258 q 201 267 211 264 q 168 435 200 378 q 99 481 129 489 q 46 440 64 478 q 36 396 38 422 q 17 381 26 392 q -29 198 -21 328 q -3 -22 -37 68 q 34 -70 14 -57 q 71 -82 54 -83 q 72 -82 71 -82 m 49 335 l 49 335 q 67 303 56 318 q 150 232 103 254 q 100 -6 144 83 q 72 -31 85 -31 q 49 -12 58 -29 q 38 18 40 6 q 24 218 14 99 q 49 335 33 308 m 103 429 l 103 429 q 110 425 104 429 q 125 407 117 421 q 150 292 146 369 q 108 333 126 308 q 93 419 76 385 q 101 429 99 429 q 103 429 101 429 m 46 650 l 46 650 q 74 622 69 650 l 74 622 q 46 594 74 599 q 18 622 22 594 l 18 622 q 46 650 18 646 m 207 650 l 207 650 q 235 622 229 650 l 235 622 q 207 594 235 599 q 179 622 183 594 l 179 622 q 207 650 179 646 z "},"":{"ha":678,"x_min":93,"x_max":592,"o":"m 565 333 l 565 333 q 592 308 589 332 q 567 282 590 285 l 119 275 q 119 275 119 275 q 93 300 97 275 q 118 326 94 324 l 565 333 m 338 385 l 338 385 q 310 413 314 385 l 310 413 q 338 440 310 435 q 365 413 361 440 l 365 413 q 338 385 365 389 m 329 211 l 329 211 q 357 183 353 211 q 357 183 357 183 q 329 154 357 160 q 301 183 306 154 l 301 183 q 329 211 301 206 z "},"":{"ha":438,"x_min":-37,"x_max":478,"o":"m 106 339 q 93 419 78 386 q 103 429 99 429 q 110 425 104 429 q 125 407 117 421 l 128 401 l 106 339 m 126 244 q 150 232 138 238 q 100 -6 144 83 q 72 -31 85 -31 q 50 -11 58 -29 q 42 7 44 -1 l 126 244 m 24 110 q 24 218 19 158 q 49 335 33 308 q 68 303 56 318 q 85 282 76 292 l 24 110 m 149 307 q 150 292 150 300 l 144 296 l 149 307 m 72 -82 q 107 -72 88 -82 q 144 -31 126 -62 q 201 214 193 64 q 214 213 207 213 q 303 215 260 206 q 382 241 347 225 q 438 271 417 257 q 461 288 458 285 q 467 322 478 303 q 431 328 450 340 q 411 315 429 326 q 363 290 393 304 q 296 267 333 275 q 221 263 258 258 q 201 267 211 264 q 169 435 200 378 q 99 481 129 489 q 46 440 64 478 q 36 396 38 422 q 17 381 26 392 q -29 198 -21 328 q -3 -22 -37 68 q 34 -70 14 -57 q 71 -82 54 -83 l 72 -82 z "},"":{"ha":385,"x_min":-36,"x_max":328,"o":"m 296 -243 l 296 -243 q 318 -229 310 -243 q 310 -194 328 -208 q 299 -171 307 -194 q 282 -72 290 -147 q 274 154 274 3 q 277 377 274 282 q 282 478 281 472 q 260 506 281 500 q 231 486 238 507 q 210 407 231 481 q 157 236 190 333 q 95 81 121 132 q 53 13 69 29 q 32 -3 38 -3 q 25 15 29 -1 q 19 70 21 31 q 24 182 18 110 q 38 300 31 250 q 46 354 46 350 q 25 383 49 378 q -4 363 1 385 q -13 309 -6 358 q -26 192 -21 260 q -27 20 -36 68 q -6 -39 -18 -28 q 33 -54 11 -56 q 103 -6 61 -58 q 207 219 146 46 q 222 269 215 244 q 222 147 221 211 q 232 -92 222 -1 q 256 -203 242 -172 q 283 -239 269 -233 q 296 -243 290 -243 m 308 -194 l 308 -194 q 310 -194 308 -194 q 308 -194 308 -194 m 33 -4 l 33 -4 l 33 -4 l 33 -4 m 122 488 l 122 488 q 142 497 133 488 q 139 533 156 515 l 29 631 q -7 629 10 644 q -6 593 -21 610 l 106 494 q 122 488 114 488 z "},"":{"ha":385,"x_min":-36,"x_max":328,"o":"m 296 -243 l 296 -243 q 318 -229 310 -243 q 310 -194 328 -208 q 299 -171 307 -194 q 282 -72 290 -147 q 274 154 274 3 q 277 377 274 282 q 282 478 281 472 q 260 506 281 500 q 231 486 238 507 q 210 407 231 481 q 157 236 190 333 q 95 81 121 132 q 53 13 69 29 q 32 -3 38 -3 q 25 15 29 -1 q 19 70 21 31 q 24 182 18 110 q 38 300 31 250 q 46 354 46 350 q 25 383 49 378 q -4 363 1 385 q -13 309 -6 358 q -26 192 -21 260 q -27 20 -36 68 q -6 -39 -18 -28 q 33 -54 11 -56 q 103 -6 61 -58 q 207 219 146 46 q 222 269 215 244 q 222 147 221 211 q 232 -92 222 -1 q 256 -203 242 -172 q 283 -239 269 -233 q 296 -243 290 -243 m 308 -194 l 308 -194 q 310 -194 308 -194 q 308 -194 308 -194 m 33 -4 l 33 -4 l 33 -4 l 33 -4 m 126 492 l 126 492 q 143 499 135 492 l 253 596 q 256 632 269 614 q 219 635 239 649 l 108 536 q 107 500 93 519 q 126 492 115 492 z "},"":{"ha":385,"x_min":-51,"x_max":328,"o":"m 296 -243 l 296 -243 q 318 -229 310 -243 q 310 -194 328 -208 q 299 -171 307 -194 q 282 -72 290 -147 q 274 154 274 3 q 277 377 274 282 q 282 478 281 472 q 260 506 281 500 q 231 486 238 507 q 210 407 231 481 q 157 236 190 333 q 95 81 121 132 q 53 13 69 29 q 32 -3 38 -3 q 25 15 29 -1 q 19 70 21 31 q 24 182 18 110 q 38 300 31 250 q 46 354 46 350 q 25 383 49 378 q -4 363 1 385 q -13 309 -6 358 q -26 192 -21 260 q -27 20 -36 68 q -6 -39 -18 -28 q 33 -54 11 -56 q 103 -6 61 -58 q 207 219 146 46 q 222 269 215 244 q 222 147 221 211 q 232 -92 222 -1 q 256 -203 242 -172 q 283 -239 269 -233 q 296 -243 290 -243 m 308 -194 l 308 -194 q 310 -194 308 -194 q 308 -194 308 -194 m 33 -4 l 33 -4 l 33 -4 l 33 -4 m 197 503 l 197 503 q 211 507 204 503 q 219 543 231 522 l 136 671 q 118 683 129 681 q 97 676 106 685 l -36 553 q -37 517 -51 535 q -1 515 -19 501 l 110 618 l 176 515 q 197 503 185 504 z "},"":{"ha":385,"x_min":-36,"x_max":328,"o":"m 296 -243 l 296 -243 q 318 -229 310 -243 q 310 -194 328 -208 q 299 -171 307 -194 q 282 -72 290 -147 q 274 154 274 3 q 277 377 274 282 q 282 478 281 472 q 260 506 281 500 q 231 486 238 507 q 210 407 231 481 q 157 236 190 333 q 95 81 121 132 q 53 13 69 29 q 32 -3 38 -3 q 25 15 29 -1 q 19 70 21 31 q 24 182 18 110 q 38 300 31 250 q 46 354 46 350 q 25 383 49 378 q -4 363 1 385 q -13 309 -6 358 q -26 192 -21 260 q -27 20 -36 68 q -6 -39 -18 -28 q 33 -54 11 -56 q 103 -6 61 -58 q 207 219 146 46 q 222 269 215 244 q 222 147 221 211 q 232 -92 222 -1 q 256 -203 242 -172 q 283 -239 269 -233 q 296 -243 290 -243 m 308 -194 l 308 -194 q 310 -194 308 -194 q 308 -194 308 -194 m 33 -4 l 33 -4 l 33 -4 l 33 -4 m 17 572 l 17 572 q 44 544 40 572 l 44 544 q 17 517 44 521 q -11 544 -7 517 l -11 544 q 17 572 -11 568 m 178 572 l 178 572 q 206 544 200 572 l 206 544 q 178 517 206 521 q 150 544 154 517 l 150 544 q 178 572 150 568 z "},"":{"ha":613,"x_min":-236,"x_max":661,"o":"m -29 -1710 l -29 -1710 q -11 -1708 -21 -1710 q 235 -1294 143 -1674 q 338 -515 304 -1003 q 361 -7 356 -247 q 501 156 438 88 q 604 263 565 225 q 644 301 643 300 q 647 338 661 319 q 610 339 629 354 q 576 306 608 338 q 488 215 543 274 q 363 76 432 157 q 365 440 367 300 q 364 586 364 579 q 342 611 361 606 q 314 594 322 613 q 282 513 313 589 q 207 338 251 438 q 124 170 157 226 q 76 95 92 114 q 56 75 60 76 q 36 117 44 79 q 32 244 28 156 q 46 367 38 314 q 54 422 54 419 q 35 453 57 446 q 4 432 11 454 q -6 373 3 426 q -18 249 -14 319 q 44 25 -33 42 q 150 111 89 11 q 246 300 192 179 q 314 456 285 383 q 310 13 315 293 q 115 -252 213 -106 q -58 -562 18 -399 q -205 -1046 -174 -824 q -208 -1427 -236 -1268 q -118 -1660 -179 -1586 q -29 -1710 -75 -1710 m 307 -74 l 307 -74 q 286 -511 301 -283 q 197 -1226 253 -981 q 82 -1562 142 -1472 q -24 -1658 22 -1653 q -55 -1650 -40 -1661 q -78 -1626 -69 -1639 q -140 -1494 -112 -1587 q -169 -1256 -168 -1400 q -140 -974 -172 -1144 q -11 -585 -108 -803 q 307 -74 128 -294 m 57 75 l 57 75 l 57 75 l 57 75 m 147 569 l 147 569 q 164 576 156 569 l 274 674 q 276 710 290 692 q 240 713 260 726 l 129 614 q 128 578 114 597 q 147 569 136 569 z "},"":{"ha":613,"x_min":-236,"x_max":661,"o":"m -29 -1710 l -29 -1710 q -11 -1708 -21 -1710 q 235 -1294 143 -1674 q 338 -515 304 -1003 q 361 -7 356 -247 q 501 156 438 88 q 604 263 565 225 q 644 301 643 300 q 647 338 661 319 q 610 339 629 354 q 576 306 608 338 q 488 215 543 274 q 363 76 432 157 q 365 440 367 300 q 364 586 364 579 q 342 611 361 606 q 314 594 322 613 q 282 513 313 589 q 207 338 251 438 q 124 170 157 226 q 76 95 92 114 q 56 75 60 76 q 36 117 44 79 q 32 244 28 156 q 46 367 38 314 q 54 422 54 419 q 35 453 57 446 q 4 432 11 454 q -6 373 3 426 q -18 249 -14 319 q 44 25 -33 42 q 150 111 89 11 q 246 300 192 179 q 314 456 285 383 q 310 13 315 293 q 115 -252 213 -106 q -58 -562 18 -399 q -205 -1046 -174 -824 q -208 -1427 -236 -1268 q -118 -1660 -179 -1586 q -29 -1710 -75 -1710 m 307 -74 l 307 -74 q 286 -511 301 -283 q 197 -1226 253 -981 q 82 -1562 142 -1472 q -24 -1658 22 -1653 q -55 -1650 -40 -1661 q -78 -1626 -69 -1639 q -140 -1494 -112 -1587 q -169 -1256 -168 -1400 q -140 -974 -172 -1144 q -11 -585 -108 -803 q 307 -74 128 -294 m 57 75 l 57 75 l 57 75 l 57 75 m 76 650 l 76 650 q 104 622 100 650 l 104 622 q 76 594 104 599 q 49 622 53 594 l 49 622 q 76 650 49 646 m 238 650 l 238 650 q 265 622 260 650 l 265 622 q 238 594 265 599 q 210 622 214 594 l 210 622 q 238 650 210 646 z "},"":{"ha":263,"x_min":43,"x_max":219,"o":"m 186 1149 l 186 1149 q 206 1158 197 1149 q 203 1194 219 1176 l 93 1292 q 57 1290 74 1306 q 58 1254 43 1271 l 169 1156 q 186 1149 178 1149 z "},"":{"ha":263,"x_min":43,"x_max":219,"o":"m 76 1121 l 76 1121 q 93 1128 85 1121 l 203 1225 q 206 1261 219 1243 q 169 1264 189 1278 l 58 1165 q 57 1129 43 1149 q 76 1121 65 1121 z "},"":{"ha":368,"x_min":43,"x_max":325,"o":"m 292 1128 l 292 1128 q 306 1132 299 1128 q 314 1168 325 1147 l 231 1296 q 213 1308 224 1306 q 192 1301 200 1310 l 58 1178 q 57 1142 43 1160 q 93 1140 75 1126 l 204 1243 l 271 1140 q 292 1128 279 1129 z "},"":{"ha":449,"x_min":44,"x_max":400,"o":"m 306 1119 l 306 1119 q 319 1121 313 1119 q 386 1188 372 1138 q 399 1254 400 1239 q 374 1281 396 1278 q 347 1256 350 1279 q 338 1206 346 1233 q 310 1172 329 1178 q 253 1208 285 1174 q 213 1243 235 1228 q 165 1258 192 1258 q 88 1215 118 1251 q 53 1167 58 1178 q 64 1132 44 1144 q 99 1142 85 1122 q 127 1181 107 1158 q 168 1207 147 1203 q 218 1171 190 1201 q 258 1136 236 1153 q 306 1119 279 1119 z "},"":{"ha":317,"x_min":50,"x_max":267,"o":"m 78 1219 l 78 1219 q 106 1192 101 1219 l 106 1192 q 78 1164 106 1168 q 50 1192 54 1164 l 50 1192 q 78 1219 50 1215 m 239 1219 l 239 1219 q 267 1192 261 1219 l 267 1192 q 239 1164 267 1168 q 211 1192 215 1164 l 211 1192 q 239 1219 211 1215 z "},"":{"ha":289,"x_min":42,"x_max":250,"o":"m 129 1113 l 129 1113 q 201 1146 167 1113 q 235 1258 250 1199 q 175 1315 221 1303 q 81 1285 121 1326 q 54 1168 42 1239 q 110 1115 67 1128 q 129 1113 119 1113 m 154 1267 l 154 1267 q 164 1265 158 1267 q 186 1244 178 1264 q 164 1182 193 1214 q 124 1165 142 1161 q 103 1183 107 1168 q 119 1250 99 1225 l 119 1250 q 154 1267 135 1267 m 100 1268 l 100 1268 l 100 1268 l 100 1268 z "},"":{"ha":365,"x_min":43,"x_max":322,"o":"m 172 1128 l 172 1128 q 192 1138 183 1128 l 308 1272 q 306 1308 322 1292 q 269 1306 288 1322 l 175 1196 l 97 1306 q 61 1311 82 1324 q 54 1276 43 1296 l 151 1139 q 171 1128 158 1129 q 172 1128 172 1128 z "},"":{"ha":303,"x_min":47,"x_max":256,"o":"m 76 -668 l 76 -668 q 82 -668 79 -668 q 171 -619 108 -660 q 253 -512 256 -562 q 232 -472 251 -489 q 176 -454 208 -457 q 115 -454 143 -451 l 119 -382 q 94 -356 118 -358 q 68 -379 71 -357 l 63 -483 q 71 -504 63 -496 q 93 -510 81 -511 q 200 -512 161 -497 q 201 -515 201 -514 q 147 -573 196 -539 q 68 -618 97 -607 q 51 -649 47 -626 q 76 -668 58 -668 m 69 -618 l 69 -618 q 68 -618 69 -618 q 69 -618 69 -618 z "},"":{"ha":229,"x_min":47,"x_max":186,"o":"m 76 872 l 76 872 q 101 893 93 872 q 128 987 110 938 q 169 1054 147 1036 q 175 1090 186 1069 q 139 1096 158 1107 q 75 990 97 1058 q 50 904 53 922 q 71 874 47 881 q 76 872 74 872 z "},"":{"ha":229,"x_min":43,"x_max":182,"o":"m 76 872 l 76 872 q 90 878 83 872 q 154 982 132 914 q 179 1069 176 1050 q 160 1100 182 1093 q 129 1079 136 1103 q 101 987 119 1036 q 61 919 82 938 q 56 883 43 903 q 76 872 64 872 z "},"":{"ha":347,"x_min":47,"x_max":304,"o":"m 175 1090 l 175 1090 q 169 1054 186 1069 q 128 987 147 1036 q 101 893 110 938 q 76 872 93 872 q 71 874 74 872 q 50 904 47 881 q 75 990 53 922 q 139 1096 97 1058 q 175 1090 158 1107 m 292 1090 l 292 1090 q 286 1054 304 1069 q 247 987 265 1036 q 218 893 228 938 q 193 872 211 872 q 188 874 190 872 q 168 904 165 881 q 193 990 171 922 q 256 1096 215 1058 q 292 1090 276 1107 z "},"":{"ha":347,"x_min":43,"x_max":299,"o":"m 160 1100 l 160 1100 q 179 1069 182 1093 q 154 982 176 1050 q 90 878 132 914 q 76 872 83 872 q 56 883 64 872 q 61 919 43 903 q 101 987 82 938 q 129 1079 119 1036 q 160 1100 136 1103 m 276 1100 l 276 1100 q 296 1069 299 1093 q 271 982 293 1050 q 208 878 249 914 q 193 872 201 872 q 172 883 181 872 q 178 919 160 903 q 217 987 199 938 q 246 1079 236 1036 q 276 1100 253 1103 z "},"":{"ha":775,"x_min":50,"x_max":672,"o":"m 665 56 l 665 56 q 651 21 672 33 q 590 -5 647 18 q 451 -51 532 -28 q 279 -82 347 -82 q 164 -40 199 -82 q 128 55 132 0 q 138 165 125 110 q 76 164 107 164 q 50 189 53 165 q 75 215 51 213 q 151 217 81 215 q 168 265 160 243 q 171 269 169 267 q 89 265 129 268 q 63 289 67 265 q 86 317 64 313 q 193 321 99 318 q 356 551 265 469 q 461 588 407 596 q 532 549 507 576 q 558 515 557 521 q 549 479 568 493 q 514 489 528 469 q 497 510 514 492 q 451 536 481 529 q 390 513 422 542 q 251 322 315 446 q 344 318 324 322 q 369 308 365 314 q 372 272 386 292 q 353 264 364 264 q 339 267 346 264 q 226 271 315 272 q 217 246 221 258 q 206 217 211 231 q 217 217 211 217 q 357 212 326 217 q 389 201 388 207 q 394 165 407 185 q 374 154 386 154 q 361 158 368 154 q 190 165 326 165 q 204 -7 163 46 q 380 -17 249 -47 q 631 68 511 14 q 665 56 653 75 z "},"":{"ha":957,"x_min":-139,"x_max":992,"o":"m 218 -704 l 218 -704 q 497 -651 354 -704 q 804 -296 769 -540 q 773 -83 813 -204 q 663 178 733 39 q 881 311 794 261 q 972 364 967 361 q 982 399 992 376 q 947 408 968 418 q 856 356 942 406 q 640 225 771 307 q 536 424 590 322 q 366 760 443 596 q 265 1057 289 925 q 308 1263 242 1189 q 409 1311 357 1310 q 503 1296 461 1313 q 681 1152 606 1251 q 763 953 757 1053 q 789 928 765 931 q 814 954 813 931 q 723 1181 807 1069 q 521 1343 639 1293 q 272 1299 374 1399 q 250 911 158 1183 q 355 663 290 793 q 490 400 419 532 q 596 197 546 297 q 442 94 521 149 q -119 -464 -75 -262 q -64 -625 -139 -560 q 218 -704 38 -704 m 619 150 l 619 150 q 723 -94 685 19 q 753 -290 761 -208 q 642 -503 729 -429 q 478 -604 554 -578 q 192 -653 335 -658 q -31 -585 49 -647 q -69 -475 -83 -540 q 471 51 -26 -292 q 619 150 547 104 m 426 1497 l 426 1497 q 446 1507 438 1497 l 563 1642 q 560 1678 576 1661 q 524 1675 542 1692 l 429 1565 l 351 1675 q 315 1681 336 1693 q 308 1646 297 1665 l 406 1508 q 425 1497 413 1499 q 426 1497 426 1497 z "},"":{"ha":889,"x_min":43,"x_max":921,"o":"m 317 -750 l 317 -750 q 338 -749 326 -750 q 599 -353 500 -719 q 697 208 660 -132 q 794 256 751 236 q 865 285 838 275 q 900 297 893 294 q 903 297 901 297 q 921 322 919 304 q 903 346 919 340 q 886 346 900 349 l 886 346 q 886 346 886 346 q 829 326 874 343 q 704 271 783 310 q 717 401 711 335 q 747 915 739 674 q 756 1311 756 1157 q 757 1472 757 1465 q 735 1497 754 1493 q 706 1479 714 1499 q 678 1381 706 1474 q 603 1142 650 1288 q 497 838 556 997 q 319 433 390 558 q 208 276 249 307 q 156 254 168 246 q 110 351 126 260 q 108 646 94 443 q 128 830 117 743 q 149 972 140 917 q 158 1029 158 1026 q 138 1060 161 1053 q 108 1039 115 1061 q 98 981 107 1036 q 77 837 89 925 q 57 650 65 749 q 56 371 43 476 q 142 206 72 224 q 353 386 235 178 q 544 821 440 540 q 706 1294 644 1094 q 665 406 706 958 q 650 240 658 319 q 494 133 575 199 q 342 -24 413 67 q 167 -408 192 -233 q 203 -678 142 -582 q 317 -750 249 -749 m 642 175 l 642 175 q 329 -697 542 -646 q 276 -685 297 -701 q 246 -651 256 -668 q 217 -417 194 -564 q 383 -54 247 -237 q 642 175 501 93 m 246 1439 l 246 1439 q 274 1411 269 1439 l 274 1411 q 246 1383 274 1388 q 218 1411 222 1383 l 218 1411 q 246 1439 218 1435 m 407 1439 l 407 1439 q 435 1411 429 1439 l 435 1411 q 407 1383 435 1388 q 379 1411 383 1383 l 379 1411 q 407 1439 379 1435 z "},"":{"ha":832,"x_min":-40,"x_max":868,"o":"m 188 -793 l 188 -793 q 408 -547 281 -793 q 600 -42 528 -314 q 642 179 626 57 q 746 246 700 219 q 819 285 792 272 q 847 299 846 299 q 861 333 868 310 q 828 347 850 354 q 799 334 824 346 q 735 301 775 322 q 646 244 696 279 q 628 378 647 321 q 560 456 610 435 q 235 289 460 494 q 175 232 204 260 q 367 608 261 392 q 551 1036 489 863 q 608 1340 632 1258 q 574 1389 599 1374 q 194 1217 450 1457 q 83 1103 133 1158 q 3 1013 33 1049 q -28 975 -26 976 q -24 939 -40 956 q 13 943 -4 926 q 43 980 14 944 q 122 1069 72 1015 q 231 1181 171 1124 q 549 1344 456 1390 q 560 1326 553 1344 q 534 1147 575 1299 q 321 631 493 994 q 185 363 250 486 q 79 162 121 239 q 35 82 38 85 q 43 47 26 61 q 78 53 63 38 q 135 117 81 57 q 269 251 190 176 q 465 394 403 369 q 542 407 528 418 q 593 208 606 379 q 417 56 508 147 q 246 -160 325 -35 q 117 -501 142 -333 q 126 -749 92 -669 q 178 -792 153 -793 q 188 -793 182 -793 m 585 136 l 585 136 q 550 -29 574 61 q 363 -524 481 -294 q 247 -701 293 -654 q 185 -742 201 -747 q 174 -726 182 -742 q 169 -501 144 -658 q 289 -187 194 -344 q 585 136 429 21 m 285 1521 l 285 1521 q 304 1531 296 1521 l 421 1665 q 418 1701 435 1685 q 382 1699 400 1715 l 288 1589 l 210 1699 q 174 1704 194 1717 q 167 1669 156 1689 l 264 1532 q 283 1521 271 1522 q 285 1521 285 1521 z "},"":{"ha":390,"x_min":-94,"x_max":442,"o":"m 122 -579 l 122 -579 q 201 -526 169 -578 q 240 -250 265 -406 q 151 69 215 -94 q 274 186 213 135 q 378 267 336 238 q 424 299 421 297 q 431 335 442 314 q 394 342 415 353 q 349 310 389 339 q 250 233 308 281 q 131 124 192 185 q 97 208 114 167 q -11 524 21 388 q -9 647 -26 610 q 32 694 8 683 q 89 701 58 710 q 167 644 132 686 q 215 576 203 601 q 250 565 228 556 q 261 600 269 578 q 247 622 260 603 q 214 668 235 642 q 165 717 193 694 q 103 751 136 740 q 6 739 51 765 q -61 515 -94 682 q 49 189 -29 371 q 92 82 71 136 q -36 -119 3 -15 q -39 -403 -82 -262 q 82 -569 3 -531 q 122 -579 103 -579 m 113 26 l 113 26 q 190 -260 169 -122 q 157 -501 211 -399 q 128 -526 142 -524 q 103 -522 115 -529 q 10 -388 49 -496 q 13 -136 -28 -281 q 113 26 43 -53 m 51 850 l 51 850 q 71 860 63 850 l 188 994 q 185 1031 201 1014 q 149 1028 167 1044 l 54 918 l -24 1028 q -60 1033 -39 1046 q -67 999 -78 1018 l 31 861 q 50 850 38 851 q 51 850 51 850 z "},"":{"ha":590,"x_min":-224,"x_max":639,"o":"m -64 -1274 l -64 -1274 q 53 -1214 -6 -1274 q 308 -654 196 -1061 q 394 24 414 -254 q 388 72 393 50 q 506 192 453 142 q 590 271 558 243 q 622 300 621 299 q 626 336 639 317 q 589 340 608 353 q 558 313 588 339 q 480 239 529 286 q 368 126 431 192 q 308 181 346 165 q 163 165 238 203 q 233 267 197 213 q 347 488 333 424 q 339 572 361 553 q 220 610 293 622 q 85 566 147 599 q 6 522 22 533 q -1 488 -12 508 q 33 479 13 468 q 115 524 63 499 q 220 558 168 549 q 299 540 272 568 q 301 522 301 540 q 279 450 301 503 q 190 294 257 397 q 86 147 133 210 q 36 82 39 85 q 38 47 24 64 q 72 46 54 33 q 172 113 106 76 q 289 133 238 149 q 331 86 317 122 q 146 -133 239 -11 q -22 -389 53 -254 q -201 -897 -179 -689 q -167 -1200 -224 -1104 q -72 -1272 -129 -1268 q -64 -1274 -68 -1274 m 343 25 l 343 25 q 343 19 343 22 q 311 -410 357 -167 q 186 -867 265 -654 q 17 -1178 107 -1081 q -68 -1222 -31 -1224 q -122 -1175 -97 -1218 q -151 -912 -167 -1106 q 24 -414 -136 -719 q 343 25 167 -164 m 185 728 l 185 728 q 204 738 196 728 l 321 872 q 318 908 335 892 q 282 906 300 922 l 188 796 l 110 906 q 74 911 94 924 q 67 876 56 896 l 164 739 q 183 728 171 729 q 185 728 185 728 z "},"":{"ha":372,"x_min":-17,"x_max":422,"o":"m 403 346 l 403 346 q 413 310 422 332 q 347 205 400 288 q 226 41 294 122 q 96 -60 157 -40 q 76 -62 86 -62 q 39 -50 56 -62 q 0 24 17 -42 q -11 275 -17 90 q 0 459 -7 381 q 7 542 7 538 q 36 565 13 565 q 58 536 58 560 q 51 454 57 532 q 40 274 44 376 q 43 90 38 150 q 57 10 49 29 q 67 -8 65 -8 q 83 -10 71 -11 q 226 122 143 11 q 368 336 310 233 q 403 346 381 356 z "},"":{"ha":813,"x_min":-386,"x_max":1210,"o":"m 1185 990 l 1185 990 q 1210 965 1206 990 q 1185 939 1208 943 l 613 924 q 515 506 575 731 q 557 -283 519 72 q 592 -528 574 -437 q 627 -662 611 -618 q 654 -719 643 -706 q 668 -732 665 -732 q 685 -722 678 -731 q 721 -721 701 -707 q 721 -758 736 -739 q 669 -783 696 -783 q 628 -767 649 -783 q 601 -731 619 -761 q 560 -620 583 -701 q 517 -376 538 -539 q 468 308 479 -89 q 467 331 467 319 q 429 203 449 267 q 272 -228 347 -58 q 124 -451 188 -422 q 46 -424 78 -471 q -10 -26 -7 -322 q 11 594 -14 269 q 40 908 24 758 l -360 897 q -360 897 -360 897 q -386 922 -381 897 q -361 949 -385 946 l 47 960 q 82 1204 63 1094 q 126 1415 106 1346 q 160 1507 146 1483 q 182 1533 175 1531 q 243 1531 214 1556 q 265 1470 257 1519 q 260 1292 274 1421 q 206 964 246 1160 l 475 971 q 503 1233 485 1122 q 551 1382 521 1343 q 622 1390 585 1418 q 651 1330 640 1381 q 647 1144 661 1279 q 622 975 639 1069 l 1183 990 q 1185 990 1183 990 m 546 1171 l 546 1171 q 528 972 535 1086 l 569 974 q 596 1150 588 1072 q 603 1273 604 1231 q 598 1332 603 1315 q 592 1350 593 1349 q 580 1330 588 1346 q 563 1276 572 1314 q 546 1171 554 1238 m 135 1210 l 135 1210 q 99 961 115 1099 l 153 963 q 210 1303 194 1167 q 217 1438 219 1397 q 210 1488 214 1479 q 192 1453 203 1481 q 167 1368 182 1426 q 135 1210 153 1310 m 143 911 l 143 911 l 93 910 q 64 608 76 765 q 60 556 63 582 q 143 911 100 710 m 464 513 l 464 513 q 472 919 463 715 l 196 913 q 193 899 194 906 q 114 560 158 736 q 47 329 69 383 q 88 -393 22 -250 q 97 -405 94 -403 q 101 -406 100 -407 q 208 -244 136 -392 q 379 218 281 -97 q 464 513 425 365 m 517 725 l 517 725 q 560 922 542 828 l 524 921 q 518 749 519 840 q 517 725 518 736 z "},"":{"ha":774,"x_min":-31,"x_max":693,"o":"m 215 1568 l 215 1568 q 247 1554 235 1567 q 274 1457 276 1521 q 265 1299 275 1392 q 192 872 242 1107 q 94 458 142 638 q 56 318 72 372 q 42 275 49 292 q 36 261 39 267 q 33 256 35 258 q 32 -264 21 -42 q 64 -497 40 -418 q 88 -544 76 -535 q 100 -547 93 -554 q 178 -449 126 -535 q 278 -229 225 -364 q 476 385 382 40 q 510 1106 478 806 q 557 1343 528 1260 q 594 1404 571 1383 q 628 1415 608 1415 q 660 1401 646 1414 q 688 1350 682 1382 q 693 1272 693 1318 q 672 1043 693 1181 q 529 397 626 757 q 524 378 526 388 q 524 325 524 351 q 560 -489 525 -131 q 601 -762 576 -660 q 625 -840 613 -814 q 636 -857 632 -853 q 639 -861 640 -861 q 658 -883 658 -867 q 635 -907 658 -903 q 629 -907 632 -907 q 583 -860 596 -896 q 556 -774 568 -826 q 513 -493 531 -667 q 478 217 483 -181 q 322 -246 401 -42 q 218 -472 268 -382 q 119 -590 171 -562 q 54 -578 83 -604 q 19 -511 31 -554 q -15 -267 -7 -422 q 1 501 -31 63 q 90 1263 33 942 q 149 1494 118 1414 q 185 1556 164 1535 q 215 1568 197 1567 m 214 1518 l 214 1518 q 193 1478 207 1510 q 136 1253 164 1404 q 47 499 79 938 q 44 454 46 476 q 50 469 47 461 q 146 882 96 647 q 218 1304 196 1115 q 226 1454 228 1396 q 214 1518 222 1510 m 625 1368 l 625 1368 q 624 1367 626 1368 q 601 1326 615 1361 q 557 1100 575 1254 q 526 572 532 879 q 625 1050 593 839 q 646 1272 646 1186 q 640 1340 646 1315 q 635 1358 638 1351 q 631 1365 632 1364 q 625 1368 625 1369 z "}}}
